<svg xmlns="http://www.w3.org/2000/svg" width="64" height="70" viewBox="0 0 64 70">
    <g fill="none" fill-rule="evenodd">
        <path fill="#3B4256" fill-rule="nonzero" d="M42.23 27.595c-2.092 0-3.836 1.696-3.836 3.817a3.853 3.853 0 0 0 2.72 3.675v6.36c0 4.242-3.767 6.009-6.208 6.009-2.023 0-6.07-1.838-6.07-6.008v-1.696c1.535-.283 3-.92 4.256-1.909a8.204 8.204 0 0 0 3.209-6.502v-8.199c0-.636-.558-1.201-1.186-1.201h-.07c-.209-1.272-1.465-2.12-2.72-1.909-1.256.213-2.163 1.414-1.954 2.757.21 1.272 1.465 2.12 2.721 1.908.21-.07.488-.141.698-.212v6.927c0 4.24-3.768 6.007-6.21 6.007-2.022 0-6.069-1.837-6.069-6.007v-6.856c1.186.565 2.582.07 3.14-1.06.558-1.202.07-2.615-1.116-3.18-1.186-.566-2.582-.071-3.14 1.06l-.209.635c-.628 0-1.186.566-1.186 1.202v8.199c0 2.473 1.116 4.806 3.21 6.431 1.185.99 2.58 1.626 4.045 1.98v1.696c0 2.473 1.116 4.806 3.21 6.431 1.604 1.273 3.418 2.05 5.301 2.05 2.093 0 3.907-.777 5.581-1.979a8.204 8.204 0 0 0 3.21-6.502v-6.503a3.81 3.81 0 0 0 2.441-3.534 3.75 3.75 0 0 0-3.767-3.887zm0 5.372c-.836 0-1.534-.707-1.534-1.555s.698-1.555 1.535-1.555 1.535.707 1.535 1.555-.698 1.484-1.535 1.555z"></path>
    </g>
</svg>