<svg xmlns="http://www.w3.org/2000/svg" width="64" height="70" viewBox="0 0 64 70">
    <g fill="none" fill-rule="evenodd">
        <g transform="translate(16 19)">
            <path d="M0 0h32v32H0z"></path>
            <circle cx="16" cy="18" r="13" stroke="#3B4256" stroke-width="2"></circle>
            <circle cx="16" cy="18" r="6" stroke="#3B4256" stroke-width="2"></circle>
            <path stroke="#3B4256" stroke-linecap="round" stroke-linejoin="round" stroke-width="2" d="M9.3 7c2.05-1.928 2.518-6 6.7-6s4.75 4.058 6.7 6"></path>
            <g fill="#3B4256" fill-rule="nonzero">
                <path d="M18.925 13.653l-1.601-1.2 4.24-5.66 1.6 1.2zM21.55 16.679l5.66-4.24-1.2-1.6-5.66 4.24 1.2 1.6zm-1.2-1.6l1.2 1.6 5.66-4.24-1.2-1.6-5.66 4.24zM11.653 20.925l-1.2-1.601-5.66 4.24 1.2 1.6zM14.679 23.55l-4.24 5.66-1.6-1.2 4.24-5.66 1.6 1.2zm-1.6-1.2l1.6 1.2-4.24 5.66-1.6-1.2 4.24-5.66zM20.347 20.925l1.2-1.601 5.66 4.24-1.2 1.6zM17.321 23.55l4.24 5.66 1.6-1.2-4.24-5.66-1.6 1.2zm1.6-1.2l-1.6 1.2 4.24 5.66 1.6-1.2-4.24-5.66zM13.075 13.653l1.601-1.2-4.24-5.66-1.6 1.2zM10.45 16.679l-5.66-4.24 1.2-1.6 5.66 4.24-1.2 1.6zm1.2-1.6l-1.2 1.6-5.66-4.24 1.2-1.6 5.66 4.24z"></path>
            </g>
        </g>
    </g>
</svg>