<svg xmlns="http://www.w3.org/2000/svg" width="64" height="70" viewBox="0 0 64 70">
    <g fill="none" fill-rule="evenodd">
        <g transform="translate(18 20)">
            <path fill="#3B4256" fill-rule="nonzero" d="M14.447 7.894a1 1 0 0 0 .447-.447l1.764-3.528a1 1 0 0 0-.894-1.448h-3.528a1 1 0 0 0-.894 1.448l1.764 3.528a1 1 0 0 0 1.341.447zm4-3.08L16.683 8.34a3 3 0 0 1-5.366 0L9.553 4.813A3 3 0 0 1 12.236.471h3.528a3 3 0 0 1 2.683 4.342z"></path>
            <path stroke="#3B4256" stroke-width="2" d="M26 14H2a1 1 0 0 0-1 1v3a1 1 0 0 0 1 1h24a1 1 0 0 0 1-1v-3a1 1 0 0 0-1-1z"></path>
            <circle cx="20" cy="14" r="1" fill="#3B4256"></circle>
            <circle cx="8" cy="14" r="1" fill="#3B4256"></circle>
            <path fill="#3B4256" fill-rule="nonzero" d="M11.248 3.317a1.008 1.008 0 0 0 .094.602l.642 1.284C7.427 6.136 4 10.168 4 15H2C2 9.32 5.947 4.561 11.248 3.317zm5.504 0C22.053 4.561 26 9.32 26 15h-2c0-4.832-3.427-8.864-7.984-9.797l.642-1.284a.995.995 0 0 0 .094-.602z"></path>
            <path stroke="#3B4256" stroke-width="2" d="M4 18c0 5.523 4.477 10 10 10s10-4.477 10-10"></path>
        </g>
    </g>
</svg>