<svg xmlns="http://www.w3.org/2000/svg" width="64" height="70" viewBox="0 0 64 70">
    <g fill="none" fill-rule="evenodd">
        <g transform="translate(20 21)">
            <path stroke="#3B4256" stroke-width="2" d="M1.02 4.586c.107 3.847.298 7.473.592 10.524.247 2.565 2.255 5.476 5.412 8.233a30.353 30.353 0 0 0 3.796 2.827c.448.28.855.511 1.18.677.325-.166.732-.398 1.18-.677a30.348 30.348 0 0 0 3.796-2.827c3.157-2.757 5.165-5.668 5.412-8.233.294-3.05.485-6.676.591-10.524-1.854-.574-3.374-1.883-4.16-3.586H5.181c-.786 1.703-2.306 3.012-4.16 3.586zM11.892 28.12l-.028-.122-.003-.012-.003.014.034.12zm.218 0l.034-.12-.008.004-.026.116z"></path>
            <rect width="6" height="2" x="6" y="9" fill="#3B4256" rx="1"></rect>
            <rect width="6" height="2" x="6" y="9" fill="#3B4256" rx="1" transform="rotate(90 9 10)"></rect>
        </g>
    </g>
</svg>