<svg xmlns="http://www.w3.org/2000/svg" width="64" height="70" viewBox="0 0 64 70">
    <g fill="none" fill-rule="evenodd">
        <g transform="translate(16 19)">
            <path d="M0 0h32v32H0z"></path>
            <path stroke="#3B4256" stroke-width="2" d="M10 23c.55 0 1-.45 1-1s-.45-1-1-1-1 .45-1 1 .45 1 1 1zM22 23c.55 0 1-.45 1-1s-.45-1-1-1-1 .45-1 1 .45 1 1 1z"></path>
            <rect width="10" height="2" x="11" y="6" fill="#3B4256" rx="1"></rect>
            <rect width="16" height="7" x="8" y="10" stroke="#3B4256" stroke-width="2" rx="1"></rect>
            <path stroke="#3B4256" stroke-width="2" d="M21 26v3h4v-3h-4zM7 26v3h4v-3H7zM7.65 4.491A3 3 0 0 0 5 7.471V23a3 3 0 0 0 3 3h16a3 3 0 0 0 3-3V7.47a3 3 0 0 0-2.65-2.979A71.436 71.436 0 0 0 16 4c-2.783 0-5.567.164-8.35.491z"></path>
        </g>
    </g>
</svg>