<svg xmlns="http://www.w3.org/2000/svg" width="64" height="70" viewBox="0 0 64 70">
    <g fill="none" fill-rule="evenodd">
        <path d="M16 19h32v32H16z"></path>
        <path fill="#3B4256" fill-rule="nonzero" d="M20 23v13h10V23H20zm12 4h-2v4h2v6a1 1 0 0 1-1 1h-3v-2h-8v2h-1a1 1 0 0 1-1-1V22a1 1 0 0 1 1-1h12a1 1 0 0 1 1 1v5z"></path>
        <path fill="#3B4256" fill-rule="nonzero" d="M35 42v4a1 1 0 0 0 2 0v-4h-2zm0-2v-1a3 3 0 0 1 3-3h5a1 1 0 0 0 1-1v-4a1 1 0 0 0-1-1h-1v1a2 2 0 0 1-2 2H26a2 2 0 0 1-2-2v-4a2 2 0 0 1 2-2h14a2 2 0 0 1 2 2v1h1a3 3 0 0 1 3 3v4a3 3 0 0 1-3 3h-5a1 1 0 0 0-1 1v1h2v6a3 3 0 0 1-6 0v-6h2zm-9-13v4h14v-4H26z"></path>
        <path fill="#3B4256" d="M22 41.83A3 3 0 0 1 18 39v-3h2v3a1 1 0 0 0 2 0v-2a1 1 0 0 1 2 0v5a1 1 0 0 0 2 0v-5a1 1 0 0 1 1-1h1v6a3 3 0 0 1-6 0v-.17z"></path>
    </g>
</svg>