<svg xmlns="http://www.w3.org/2000/svg" width="64" height="70"><path fill="none" stroke="#DDE1E6" d="M57.301 13.217l-.002-.002a52.457 52.457 0 0 0-.716-.526 111.125 111.125 0 0 0-8.587-5.633l-.254-.15A110.005 110.005 0 0 0 40.71 3.04a97.65 97.65 0 0 0-3.06-1.482c-3.068-1.41-8.185-1.41-11.303.001a103.974 103.974 0 0 0-3.058 1.48 110.033 110.033 0 0 0-7.035 3.87l-.247.147a120.401 120.401 0 0 0-9.305 6.16c-2.704 2.052-5.286 6.647-5.663 10.097-.017.165-.046.48-.084.93-.063.75-.126 1.6-.185 2.53C.6 29.434.5 32.214.5 34.976a130.646 130.646 0 0 0 .539 11.658c.382 3.492 2.938 8.07 5.662 10.101.13.098.38.284.738.544.598.434 1.28.919 2.033 1.44a118.048 118.048 0 0 0 6.776 4.37l.006.004a126.756 126.756 0 0 0 7.037 3.85 120.998 120.998 0 0 0 3.06 1.5c3.067 1.41 8.184 1.41 11.302 0a103.975 103.975 0 0 0 3.058-1.48 111.07 111.07 0 0 0 7.065-3.887l-.034.019a128.6 128.6 0 0 0 6.768-4.376 122.907 122.907 0 0 0 2.791-1.986c2.722-2.03 5.278-6.607 5.66-10.094.017-.166.046-.482.084-.931.063-.75.126-1.6.185-2.53.169-2.66.27-5.44.27-8.202a130.646 130.646 0 0 0-.539-11.66c-.382-3.49-2.938-8.068-5.66-10.098zm.599-.801h.001-.002.001z"/></svg>