<?xml version="1.0" encoding="utf-8"?>
<!-- Generator: Adobe Illustrator 23.0.1, SVG Export Plug-In . SVG Version: 6.00 Build 0)  -->
<svg version="1.1" id="Слой_1" xmlns="http://www.w3.org/2000/svg" xmlns:xlink="http://www.w3.org/1999/xlink" x="0px" y="0px"
	 viewBox="0 0 64 70" style="enable-background:new 0 0 64 70;" xml:space="preserve">
<style type="text/css">
	.st0{fill:#FFFFFF;stroke:#DDE1E6;}
</style>
<path class="st0" d="M57.3,13.2L57.3,13.2c-0.2-0.2-0.5-0.4-0.7-0.5c-2.8-2-5.6-3.9-8.6-5.6l-0.3-0.2c-2.3-1.4-4.6-2.7-7-3.9
	c-1-0.5-2-1-3.1-1.5c-3.1-1.4-8.2-1.4-11.3,0c-1,0.5-2,1-3.1,1.5c-2.4,1.2-4.7,2.5-7,3.9L16,7.1c-3.2,1.9-6.3,4-9.3,6.2
	C4,15.3,1.4,19.9,1,23.3c0,0.2,0,0.5-0.1,0.9c-0.1,0.8-0.1,1.6-0.2,2.5c-0.2,2.7-0.3,5.4-0.3,8.2c0,3.9,0.2,7.8,0.5,11.7
	c0.4,3.5,2.9,8.1,5.7,10.1c0.1,0.1,0.4,0.3,0.7,0.5c0.6,0.4,1.3,0.9,2,1.4c2.2,1.5,4.5,3,6.8,4.4l0,0c2.3,1.4,4.7,2.6,7,3.9
	c1,0.5,2,1,3.1,1.5c3.1,1.4,8.2,1.4,11.3,0c1-0.5,2-1,3.1-1.5c2.4-1.2,4.8-2.5,7.1-3.9l0,0c2.3-1.4,4.6-2.8,6.8-4.4
	c0.9-0.6,1.9-1.3,2.8-2c2.7-2,5.3-6.6,5.7-10.1c0-0.2,0-0.5,0.1-0.9c0.1-0.8,0.1-1.6,0.2-2.5c0.2-2.7,0.3-5.4,0.3-8.2
	c0-3.9-0.2-7.8-0.5-11.7C62.6,19.8,60,15.2,57.3,13.2L57.3,13.2z M57.9,12.4L57.9,12.4L57.9,12.4L57.9,12.4z"/>
</svg>
