<svg xmlns="http://www.w3.org/2000/svg" xmlns:xlink="http://www.w3.org/1999/xlink" width="24" height="24" viewBox="0 0 24 24">
    <defs>
        <path id="a" d="M8.17 15.368c1.105 0 2 .899 2 2.004v3.997a2 2 0 0 1-2 2H4.167a1 1 0 0 1-.858-.487c-.106-.176-.281-.493-.503-.932a26.651 26.651 0 0 1-1.072-2.418C.76 17.008.172 14.412.167 11.87.162 9.32.75 6.714 1.735 4.182c.34-.877.706-1.684 1.072-2.403.222-.437.398-.751.503-.927a1 1 0 0 1 .857-.484H8.17c1.105 0 2 .899 2 2.003v3.997a2 2 0 0 1-2 2H6.834c-.424 1.123-.67 2.36-.667 3.5.001 1.036.217 2.028.711 3.5H8.17zm0 2.004l-2.003-.004a1 1 0 0 1-.942-.664c-.732-2.056-1.056-3.357-1.058-4.834-.003-1.637.402-3.396 1.089-4.914a1 1 0 0 1 .91-.588H8.17V2.371l-3.416-.003c-.05.095-.106.201-.165.318a24.354 24.354 0 0 0-.99 2.22c-.9 2.318-1.437 4.689-1.432 6.96.004 2.267.54 4.633 1.433 6.945a24.661 24.661 0 0 0 1.156 2.557H8.17v-3.996z"/>
    </defs>
    <g fill="none" fill-rule="evenodd">
        <path d="M0 0h24v24H0z"/>
        <g transform="rotate(-45 9.707 4.757)">
            <mask id="b" fill="#fff">
                <use xlink:href="#a"/>
            </mask>
            <use fill="#FFF" fill-rule="nonzero" xlink:href="#a"/>
            <g fill="#C7CCD1" mask="url(#b)">
                <rect width="24" height="25" rx="4" transform="translate(-6 -1)"/>
            </g>
        </g>
    </g>
</svg>
