<svg xmlns="http://www.w3.org/2000/svg" width="20" height="12"><g fill="none" fill-rule="evenodd"><path d="M0-4h20v20H0z"/><path fill="#B3BBC3" d="M19.541.813c.14-.469 0-.813-.662-.813h-2.188c-.556 0-.812.297-.952.625 0 0-1.112 2.74-2.688 4.52-.51.515-.742.68-1.02.68-.14 0-.34-.165-.34-.633V.812c0-.562-.162-.812-.626-.812H7.627c-.348 0-.557.26-.557.508 0 .533.788.656.87 2.155v3.255c0 .714-.128.843-.406.843-.742 0-2.546-2.752-3.617-5.902C3.707.247 3.497 0 2.938 0H.75C.125 0 0 .297 0 .625c0 .586.742 3.49 3.454 7.33C5.262 10.578 7.809 12 10.127 12c1.391 0 1.563-.316 1.563-.86V9.158c0-.632.132-.758.572-.758.325 0 .881.164 2.18 1.429C15.924 11.328 16.17 12 17.003 12h2.188c.625 0 .938-.316.757-.939-.197-.621-.905-1.522-1.845-2.59-.51-.61-1.275-1.265-1.507-1.593-.324-.421-.232-.609 0-.984 0 0 2.666-3.793 2.944-5.081"/></g></svg>