<svg xmlns="http://www.w3.org/2000/svg" width="64" height="70" viewBox="0 0 64 70">
    <g fill="none" fill-rule="evenodd">
        <g transform="translate(16 19)">
            <path d="M0 0h32v32H0z"></path>
            <circle cx="16" cy="16" r="12" stroke="#3B4256" stroke-width="2"></circle>
            <path stroke="#3B4256" stroke-width="2" d="M16 11l4.755 3.455-1.816 5.59H13.06l-1.816-5.59z"></path>
            <g stroke="#3B4256" stroke-width="2">
                <path d="M16 11.026V7M12 5l4 3 4-3"></path>
            </g>
            <g stroke="#3B4256" stroke-width="2">
                <path d="M20.597 14.28l3.83-1.244M25.093 8.614l-1.617 4.731 4.089 2.878"></path>
            </g>
            <g stroke="#3B4256" stroke-width="2">
                <path d="M18.515 20.456l2.367 3.258M25.293 22.98l-5-.075-1.472 4.778"></path>
            </g>
            <g stroke="#3B4256" stroke-width="2">
                <path d="M13.485 20.456l-2.367 3.258M6.707 22.98l5-.075 1.472 4.778"></path>
            </g>
            <g stroke="#3B4256" stroke-width="2">
                <path d="M11.403 14.28l-3.83-1.244M6.907 8.614l1.617 4.731-4.089 2.878"></path>
            </g>
        </g>
    </g>
</svg>