<svg xmlns="http://www.w3.org/2000/svg" width="64" height="70" viewBox="0 0 64 70">
    <g fill="none" fill-rule="evenodd">
        <g transform="translate(16 19)">
            <path d="M0 0h32v32H0z"></path>
            <rect width="13" height="24" x="5" y="4" stroke="#3B4256" stroke-width="2" rx="1"></rect>
            <rect width="9" height="16" x="18" y="12" stroke="#3B4256" stroke-width="2" rx="1"></rect>
            <rect width="28" height="2" x="2" y="27" fill="#3B4256" rx="1"></rect>
            <rect width="7" height="2" x="8" y="7" fill="#3B4256" rx="1"></rect>
            <rect width="7" height="2" x="8" y="11" fill="#3B4256" rx="1"></rect>
            <rect width="7" height="2" x="8" y="15" fill="#3B4256" rx="1"></rect>
            <rect width="7" height="2" x="8" y="19" fill="#3B4256" rx="1"></rect>
            <rect width="7" height="2" x="8" y="23" fill="#3B4256" rx="1"></rect>
            <rect width="7" height="2" x="17" y="23" fill="#3B4256" rx="1"></rect>
            <rect width="7" height="2" x="17" y="19" fill="#3B4256" rx="1"></rect>
            <rect width="7" height="2" x="17" y="15" fill="#3B4256" rx="1"></rect>
        </g>
    </g>
</svg>