<svg xmlns="http://www.w3.org/2000/svg" width="64" height="70" viewBox="0 0 64 70">
    <g fill="none" fill-rule="evenodd">
        <path fill="#3B4256" fill-rule="nonzero" d="M34.655 37.131a4.803 4.803 0 0 0 1.434-3.41c0-2.623-2.072-4.721-4.621-4.721-2.55 0-4.622 2.098-4.622 4.721 0 1.364.532 2.57 1.435 3.41-1.647.682-3.028 1.889-3.772 3.462a2.255 2.255 0 0 0 .107 2.099c.212.315.637.997 2.815 1.678.743.263 2.284.63 3.93.63h.053c2.178 0 5.896-.892 6.853-2.466.425-.682.425-1.468.106-2.15-.744-1.417-2.072-2.57-3.718-3.253zm-3.187-5.98c1.38 0 2.496 1.154 2.496 2.623 0 1.469-1.115 2.623-2.496 2.623s-2.497-1.154-2.497-2.623c0-1.47 1.116-2.623 2.497-2.623zm0 11.856c-.054 0-.054 0 0 0-2.603 0-5.153-1.155-5.047-1.47.85-1.73 2.816-2.937 5.1-2.937 2.23 0 4.196 1.154 5.046 2.833.106.315-2.444 1.521-5.1 1.574z"></path>
        <path fill="#3B4256" fill-rule="nonzero" d="M41.35 23.378V21.24c0-.73-.33-1.407-.88-1.824-.55-.417-1.32-.521-2.09-.313l-16.005 4.274c-.33.104-.55.313-.715.573-.385.365-.66.886-.66 1.512v23.452c0 1.147.99 2.085 2.2 2.085h17.6c1.21 0 2.2-.938 2.2-2.085V25.463a2.118 2.118 0 0 0-1.65-2.085zm-2.365-2.293h.165s.055.052.055.156v2.085h-8.58l8.36-2.241zM40.8 48.863H23.2V25.41h17.6v23.453z"></path>
    </g>
</svg>