<svg xmlns="http://www.w3.org/2000/svg" width="64" height="70" viewBox="0 0 64 70">
    <g fill="none" fill-rule="evenodd">
        <path fill="#3B4256" fill-rule="nonzero" d="M44 27.953a2.819 2.819 0 0 0-2.827-2.819 2.819 2.819 0 0 0-2.827 2.819v2.781c-.791-.338-1.809-.3-2.563.15-.452-.939-1.432-1.578-2.563-1.578a2.76 2.76 0 0 0-1.13.226v-5.713c0-.752-.302-1.466-.83-1.992A2.851 2.851 0 0 0 29.225 21a2.819 2.819 0 0 0-2.827 2.819v13.117l-1.507-1.504c-.98-.977-2.488-1.127-3.619-.338a2.84 2.84 0 0 0-1.244 1.954c-.113.79.114 1.616.641 2.218l5.39 6.54A8.72 8.72 0 0 0 32.806 49h3.392c2.073 0 4.033-.79 5.503-2.255a7.69 7.69 0 0 0 2.261-5.487L44 27.953zm-3.505 17.552a6.083 6.083 0 0 1-4.297 1.766h-3.392c-2.111 0-4.109-.94-5.428-2.556l-5.427-6.54c-.226-.262-.302-.563-.264-.901.038-.338.226-.602.49-.79.188-.15.414-.187.64-.187.302 0 .604.112.83.338l2.186 2.18a1.35 1.35 0 0 0 1.432.3c.49-.187.83-.676.83-1.202V23.819c0-.602.49-1.128 1.13-1.128.302 0 .565.113.792.339.226.225.339.488.339.789v10.298c0 .488.377.864.867.864s.867-.376.867-.864v-1.992c0-.64.49-1.128 1.13-1.128.641 0 1.131.489 1.131 1.128v2.518c0 .489.377.864.867.864s.867-.375.867-.864v-1.315c0-.64.49-1.128 1.13-1.128.641 0 1.131.489 1.131 1.128v1.991c0 .49.377.865.867.865s.867-.376.867-.865v-7.366c0-.601.49-1.127 1.13-1.127.604 0 1.132.488 1.132 1.127V41.22c-.076 1.616-.679 3.157-1.847 4.285z"></path>
    </g>
</svg>