<svg xmlns="http://www.w3.org/2000/svg" width="12" height="22"><path fill="#B3BBC3" d="M6.837 1.435l.31-.452c.131-.026.131-.026.15-.026h.03-.014L7.248.951a4.34 4.34 0 0 0-2.184.442C3.61 2.118 2.747 3.632 2.77 6.051v3.023l.461-.478H1.383C.623 8.596 0 9.244 0 10.022v.904c0 .784.608 1.432 1.368 1.458l1.845.064-.446-.478.003 8.601c0 .793.62 1.429 1.393 1.429h1.829c.765 0 1.393-.646 1.393-1.43v-8.613l-.462.478h2.77a.46.46 0 0 0 .412-.265L11.49 9.3c.153-.317-.07-.691-.413-.691H6.923l.462.478V5.995l-.002-.044a1.876 1.876 0 0 1 .085-.63c.11-.337.298-.504.659-.504h1.55c.761 0 1.382-.64 1.385-1.427l.005-1.002c.003-.793-.61-1.431-1.38-1.431H7.298a.47.47 0 0 0-.461.478z"/></svg>