<svg xmlns="http://www.w3.org/2000/svg" width="20" height="20"><path fill="#B3BBC3" fill-rule="evenodd" d="M9.997.04c2.715 0 3.055.011 4.122.06 1.064.048 1.79.217 2.426.463a4.901 4.901 0 0 1 1.77 1.151 4.89 4.89 0 0 1 1.154 1.767c.247.635.416 1.36.465 2.422.048 1.064.06 1.404.06 4.114s-.012 3.049-.06 4.113c-.049 1.062-.218 1.787-.465 2.422a4.89 4.89 0 0 1-1.153 1.767 4.901 4.901 0 0 1-1.77 1.15c-.637.248-1.363.416-2.427.465-1.067.048-1.407.06-4.122.06s-3.056-.012-4.122-.06c-1.064-.049-1.79-.217-2.426-.464a4.901 4.901 0 0 1-1.771-1.15 4.89 4.89 0 0 1-1.153-1.768c-.247-.635-.416-1.36-.465-2.422C.011 13.066 0 12.726 0 10.017c0-2.71.011-3.05.06-4.114.049-1.062.218-1.787.465-2.422a4.89 4.89 0 0 1 1.153-1.767 4.901 4.901 0 0 1 1.77-1.15C4.085.316 4.812.147 5.876.1 6.941.05 7.282.04 9.997.04zm0 4.853a5.128 5.128 0 0 0-5.134 5.124 5.128 5.128 0 0 0 5.134 5.123 5.128 5.128 0 0 0 5.133-5.123 5.128 5.128 0 0 0-5.133-5.124zm6.536-.202c0-.661-.537-1.197-1.2-1.197a1.198 1.198 0 1 0 1.2 1.197zm-6.536 8.651a3.329 3.329 0 0 1-3.332-3.325A3.329 3.329 0 0 1 9.997 6.69a3.329 3.329 0 0 1 3.332 3.326 3.329 3.329 0 0 1-3.332 3.325z"/></svg>