<svg xmlns="http://www.w3.org/2000/svg" width="13" height="22"><path d="M6.491 3.32c1.32 0 2.395 1.053 2.395 2.346 0 1.293-1.074 2.345-2.395 2.345-1.32 0-2.395-1.052-2.395-2.345 0-1.293 1.076-2.346 2.395-2.346m0 8.01c3.19 0 5.784-2.54 5.784-5.664C12.275 2.541 9.682 0 6.491 0 3.301 0 .707 2.541.707 5.666c0 3.124 2.594 5.664 5.784 5.664m2.34 4.622a10.96 10.96 0 0 0 3.359-1.362 1.64 1.64 0 0 0 .531-2.29 1.714 1.714 0 0 0-2.336-.521 7.474 7.474 0 0 1-7.788 0 1.713 1.713 0 0 0-2.336.522 1.64 1.64 0 0 0 .53 2.289c1.046.642 2.182 1.1 3.36 1.362L.916 19.12a1.636 1.636 0 0 0 0 2.347c.331.324.765.486 1.198.486.434 0 .868-.162 1.2-.486l3.175-3.113 3.18 3.113a1.719 1.719 0 0 0 2.395 0c.662-.648.662-1.7 0-2.347L8.83 15.952z" fill="#B3BBC3" fill-rule="evenodd"/></svg>