<svg xmlns="http://www.w3.org/2000/svg" width="22" height="17" viewBox="0 0 22 17">
    <path fill="#B3BBC3" fill-rule="nonzero" d="M3.053.744a116.373 116.373 0 0 1 15.895 0c1.267.085 2.2 1.161 2.35 2.66.326 3.27.324 6.664 0 10.197-.137 1.483-1.074 2.554-2.357 2.655-4.565.361-9.81.364-15.894 0-1.264-.076-2.202-1.16-2.345-2.657a53.416 53.416 0 0 1 0-10.197C.846 1.908 1.782.832 3.053.744zm6.114 11.061a.45.45 0 0 0 .236-.067l4.583-2.833a.475.475 0 0 0 .223-.405.474.474 0 0 0-.223-.405L9.403 5.26a.448.448 0 0 0-.462-.005.475.475 0 0 0-.233.41v5.667c0 .17.09.327.233.41a.44.44 0 0 0 .226.062z"/>
</svg>
