<svg xmlns="http://www.w3.org/2000/svg" width="64" height="64" viewBox="0 0 64 64">
    <g fill="none" fill-rule="evenodd">
        <path fill="#D2AE6E" d="M32.348 6.289a32.691 32.691 0 0 0-4.66.372l-.043.016.006.04.16.92.014.06.048-.024c.458-.19.925-.21 1.328-.227.447-.013.848-.025 1.149-.266l.118-.018.07.092.011.223-.006.16-.003.06.226-.041c.11 0 .226.047.32.122l.03.022.025-.014c.42-.27.826-.405 1.22-.453l.039-.011-.01-.99v-.043h-.042zm-9.66 5.397l.023-.047.032-.037.012-.001c.162-.064.336-.092.525-.092.176 0 .355.016.541.037.182.026.37.03.547.03.21 0 .419-.021.594-.099l.148.048-.042.149a1.763 1.763 0 0 1-.682.122c-.145 0-.296-.012-.448-.024l-.16-.01.331.23.024.148-.148.018-.609-.417-.012-.008h-.051c-.151 0-.282.015-.404.05l-.028.005-.006.037v.036l.59.42.027.143-.152.018-.465-.322-.057-.033-.014.058c-.05.183-.115.388-.205.587l-.032.067h.075c1.455-.008 2.522-.684 2.921-1.442l.045-.094-.094.027-.199.01c-.11 0-.217-.01-.326-.037h-.004l-.182.038a.562.562 0 0 1-.402-.191l-.01-.01h-.011c-.083-.03-.17-.051-.254-.075l-.036-.015-.233.347-.147.028-.03-.145.141-.206.042-.07-.294-.015h-.03l-.292.42-.156.028-.02-.148.134-.2.07-.089-.316.05-.146-.083.005-.048.009-.05.066-.02a2.29 2.29 0 0 1 .563-.074l.029.007h.012c.252 0 .49.03.705.08l.073.02-.016-.1a.56.56 0 0 1 .556-.549l.19.036.02.012.017-.014c.66-.401 1.092-.902 1.278-1.54V8.66l-.012-.08a.46.46 0 0 1 .096-.275v-.009l.015-.196v-.085l-.078.046a1.28 1.28 0 0 1-.264.131h-.006l-.117.034a3.845 3.845 0 0 1-.535.098c-.532.07-1.06.144-1.443.802l-.01.034.019.02a.552.552 0 0 1 .209.418c0 .15-.058.277-.152.377a.56.56 0 0 1-.398.178.622.622 0 0 1-.325-.109l-.052-.035-.017.053a1.48 1.48 0 0 1-.402.673l-.108.103a1.508 1.508 0 0 1-.256.172l-.135-.025.03-.151c.475-.289.703-.699.703-1.236 0-.151-.02-.327-.06-.506l-.018-.085-.063.059a.884.884 0 0 1-.303.198l-.015.007a2.11 2.11 0 0 1-.4.133c-.333.095-.727.217-1.105.59l-.048.05.06.027c.171.1.291.262.291.474 0 .312-.25.555-.563.555a.568.568 0 0 1-.52-.393l-.034-.098-.165.31-.113.21-.044.212a.62.62 0 0 0 .081.316l.139.187v.005l.153.095.015.01.012.004h.015c.091-.01.201-.026.261-.109l.048-.154-.012-.123-.009-.032.089-.095.028-.003.1.083.014.17a.462.462 0 0 1-.087.285c-.066.087-.189.14-.336.17h-.03l-.01.026-.005.012.04.2v.006l.124.139.103.062.002.008.039.013.018-.033c.217-.217.449-.24.653-.24h.074c.133 0 .239-.015.332-.088l.168.016-.018.149c-.162.134-.334.135-.517.135h-.054c-.183 0-.354.025-.523.214l-.012.014v.034l-.01.132.009.1v.004l.073.195.004.001.005.01c.094.124.262.21.49.249l.234-.02h.008l.073-.036.16-.094c.45-.388.712-1.26.754-1.655l.012-.017zm2.19-3.087l.142-.054.052.142-.2.446-.14.059-.057-.144.203-.45zm-.576 1.25l-.03-.03.03.03.015-.014c.213-.205.46-.38.712-.53.411-.26.815-.501.92-.932l.053-.077.048-.056.108.183c-.084.363-.341.606-.652.823l-.108.081h.141l.107.106-.11.102h-.476l-.013.01c-.09.053-.185.123-.274.172l-.114.088h.234l.113.113-.113.104h-.464l-.127.124-.15.025-.026-.149.176-.174zm-2.695-.03l.1-.104h.01l.105.098.023.317v.007l-.105.108h-.002l-.113-.099-.018-.32v-.007zm.48.318c.255-.185.49-.354.548-.704l.042-.081.078-.025.09.1v.011c-.048.449-.349.667-.622.873-.185.135-.362.266-.483.462l-.157.047-.034-.146c.14-.235.348-.392.537-.537zm-.324 2.012a.553.553 0 0 1-.557-.547.56.56 0 0 1 .557-.551c.305.006.553.25.553.551a.552.552 0 0 1-.553.547zM20.48 9.94l-.007.132-.009.086.081-.052.054-.034.063-.044-.117-.061-.065-.027zm6.385-.8a.642.642 0 0 1-.377-.143l-.045-.052-.023.065a2.68 2.68 0 0 1-.782 1.062l-.093.066c-.086.068-.19.138-.296.196l-.035.034.026.034a.556.556 0 0 1 .135.345.51.51 0 0 1-.087.264l-.04.076h.088a.957.957 0 0 0 .393-.085l.13.004.039.118c-.06.17-.145.342-.251.516l-.038.047.059.017c.44.167.877.255 1.29.277l.1.015-.842-1.053-.201-.024-.117-.115.11-.102.214.034.099.007a4.7 4.7 0 0 1 .811.218c.352.126.69.253 1.115.253.121 0 .253-.011.394-.034h.02l.096.084v.02l-.087.102a2.575 2.575 0 0 1-.411.036c-.253 0-.47-.036-.68-.098l-.15-.04.543.605.025.013h.027c.524-.13.961-.394 1.25-.787l.05-.07h-.095c-.28 0-.588-.11-.907-.241l-.018-.007-.057.02a.56.56 0 0 1-.415-.207l-.006-.012h-.005c-.088-.038-.175-.058-.26-.101l-.041.08.016.021-.04.156-.178.115-.148-.039.037-.146.19-.11.068-.014.019-.09c-.199-.068-.401-.131-.627-.16l-.02.047h-.007l-.05.19-.178.11-.149-.04.035-.147.17-.097.115-.07-.134-.011c-.094-.01-.17-.01-.258-.01-.21 0-.43.027-.656.09l-.144-.07.031-.117.024-.047.021.038a2.42 2.42 0 0 1 .757-.115c.433 0 .835.11 1.227.242l.104.036-.047-.089a.563.563 0 0 1 .557-.545h.006l.016.011.012-.011c1-.4 1.652-.905 1.913-1.518l.006-.016v-.004a.495.495 0 0 1 .08-.238v-.022a1.94 1.94 0 0 0 .043-.39v-.072l-.065.033c-.097.043-.198.075-.298.109l.002.087.049.008.031.162a2.752 2.752 0 0 1-.818.756l-.115.074.199.014.09.112v.012l-.104.097-.022-.012-.493-.047-.006-.009-.012.01c-.119.046-.23.098-.342.146l-.144.06.265.043.089.106-.141.1-.607-.1-.015-.009-.01.01c-.2.065-.399.14-.579.22l.018.093.523.007.102.104v.009l-.102.098h-.005l-1.02-.02-.02-.002-.184.16h-.159v-.158l.22-.17.017-.017c.346-.26.778-.415 1.232-.575.716-.257 1.475-.512 1.97-1.234l.05-.033-.039-.085c-.215.048-.437.053-.677.062-.606.023-1.253.06-1.873.584l-.029.023.021.035a.504.504 0 0 1 .095.278.57.57 0 0 1-.56.555zm1.796-1.136l.152-.034.028.144-.216.35-.144.036-.038-.146.218-.35zm-.853.273l.15-.036.032.154-.212.342-.147.034-.042-.149.219-.345zm-6.044 2.987a.345.345 0 0 0-.342.34.34.34 0 0 0 .342.341c.182 0 .34-.156.34-.342a.348.348 0 0 0-.34-.34zm.652-2.132l.04-.016-.369-1.042-.048.016c-.48.167-.956.356-1.419.552l-.043.016.405 1.191.044-.052c.411-.375.808-.51 1.141-.59.096-.025.168-.048.25-.075zm-1.892 1.414c0 .19.146.334.335.334.2 0 .348-.144.348-.334 0-.19-.154-.34-.348-.34a.34.34 0 0 0-.335.34zm2.56-5.972l-.052-.183-.009-.048-.054.011c-.406.145-.882.323-1.457.535H21.426l-.032-.031-.021-.02-.018-.015-.903-2.523-.216.094-.039.018.9 2.524-.002.052v.039l-.034.031-.032.03c-.467.2-.936.412-1.379.645l-.037.011.048.149.018.054.042-.025a25.904 25.904 0 0 1 3.322-1.333l.04-.015zM33.118 2.63c.656.012 1.188.034 1.677.064l.049.002V.072h-.047a32.432 32.432 0 0 0-1.693-.059h-.05l.017 2.617h.047zm-.795 0h.046v-.04L32.362.006h-.057c-.613.006-1.23.013-1.864.052H30.4v2.657l.047-.01c.629-.042 1.25-.064 1.878-.076zm.394.472c.692 0 1.39.024 2.078.072h.049v-.26l-.047-.002c-.518-.034-1.089-.047-1.825-.067l-.045-.023-.039-.018-.02-.045-.013-.036-.012-2.716L32.617 0h-.048l.014 2.738-.102.107a35.76 35.76 0 0 0-2.04.078H30.4v.262h.047a31.852 31.852 0 0 1 2.272-.083zm7.201 3.374l.053.005.444-2.245-.039-.016a32.873 32.873 0 0 0-3.49-.638h-.042l-.328 2.271.038.012c1.135.14 2.263.343 3.364.611zm3.928-1.847l.04.018.014-.045.537-1.406.313-.803.015-.045-.04-.02c-.49-.212-.979-.422-1.51-.602l-.047-.021-.71 2.423.045.014a34.8 34.8 0 0 1 1.343.487zm-3.437-.605l.047.007.037-.194.015-.052h-.052a44.049 44.049 0 0 0-1.383-.33l-.075-.044-.012-.063v-.021l.497-2.632-.225-.047-.041-.01-.51 2.633-.133.099h-.008a31.99 31.99 0 0 0-1.61-.25l-.041-.005-.035.203-.006.052.042.002c1.21.149 2.355.366 3.493.652zm-1.943-.891l.048.014.006-.045.48-2.502-.041-.007A49.86 49.86 0 0 0 37.36.325L37.317.32 36.938 2.9l.048.013c.497.07.994.138 1.48.22zm-5.884 2.48c.736 0 1.472.022 2.213.07l.049.004V3.386l-.047-.007a35.936 35.936 0 0 0-4.357.011l-.042.007v2.285l.047-.004a35.457 35.457 0 0 1 2.137-.066zm-11.007-.966c.52-.21.962-.368 1.342-.494l.041-.014-.682-2.46-.042.013c-.483.142-1.006.307-1.538.512l-.039.013.877 2.443.04-.013zm3.275-1.06c.484-.11.966-.233 1.457-.33l.045-.004-.003-.047-.453-2.567-.057.009a30.73 30.73 0 0 0-1.508.344l-.042.014.513 2.597.048-.017zm-3.986 1.34L20 2.5l-.045.015c-.393.179-.787.37-1.177.604l-.03.014.797 2.405.047-.02c.4-.2.817-.395 1.234-.572l.04-.02zm4.115-.677l-.045.009.427 2.174.05-.013c1.15-.269 2.32-.463 3.502-.603l.043-.004-.31-2.25-.043.014a31.138 31.138 0 0 0-3.624.673zm-4.558 3.773a27.272 27.272 0 0 1 3.252-1.15l.036-.016V6.81l-.574-2.032-.045.013c-1.16.386-2.27.833-3.308 1.334l-.035.02.222.686.407 1.208.045-.016zm6.14-4.637l-.059.043-.016.015c-.538.107-1.075.228-1.603.357l-.042.011.04.192.005.05.051-.01a30.895 30.895 0 0 1 3.638-.68l.046-.01-.028-.207-.012-.045-.044.006c-.563.077-1.114.163-1.581.24l-.012.002h-.006l-.11-.084L26.35.532l-.201.039-.048.016.48 2.72-.02.079zm.506-.27c.435-.075.937-.159 1.44-.217l.047-.01L28.19.263h-.048c-.503.058-1.022.144-1.542.237l-.04.006.462 2.621.045-.01zm12.183.166c.42.097.847.19 1.245.284l.054.016.003-.047.5-2.477-.05-.007c-.412-.11-.836-.2-1.265-.29L39.7.744l-.488 2.535.039.002zm-16.693 9.73l-.074-.007h-.02l-.106.157-.066.104.117-.03c.245-.064.488-.12.745-.183l-.012-.092c-.189.03-.381.05-.584.05zm1.912-2.266c0 .18.159.34.345.34.19 0 .34-.16.34-.34a.33.33 0 0 0-.34-.331.339.339 0 0 0-.345.331zm6.73 1.216c-.697 0-1.402-.156-1.927-.476l-.04-.02-.02.03c-.466.436-1.137.692-1.926.71h-.069c-.537 0-1.12-.104-1.712-.33l-.027-.012-.021.024c-.276.322-.671.602-1.147.8l.027.083c2.236-.455 4.541-.675 6.917-.72v-.089h-.054zm-4.23-5.179l-.048.016a29.66 29.66 0 0 0-4.125 1.028l-.042.025.267.738v.009l.132.099c.048.151.087.291.105.433l.021.06.057-.033a.54.54 0 0 1 .307-.101l.081.018.03.002.023-.032c.445-.773 1.052-.857 1.605-.932.416-.052.787-.098 1.066-.425l.13-.037.077.097v.012c0 .096-.012.176-.018.263v.057l.238-.05c.08 0 .17.039.246.083l.04.014.026-.034.03-.022-.031-.056-.217-1.232zm.236 1.802a.342.342 0 0 0-.342-.336.341.341 0 0 0-.343.336c0 .185.153.34.343.34.189 0 .342-.155.342-.34zm16.07 4.774l-.04-.012c-.52-.111-1.038-.434-1.523-.802l-.014-.012-.03.006a4.251 4.251 0 0 1-.943.17l-.075.011h-.157c-.189 0-.372-.012-.558-.043l-.035-.01c-.236-.036-.458-.107-.683-.179l-.07-.037a4.867 4.867 0 0 1-1.44-.879l-.019-.032-.038.032c-.482.36-1.052.543-1.71.543-.754 0-1.634-.245-2.622-.745l-.024-.012-.024.012c-.31.232-.691.402-1.106.5h-.024c-.216.05-.438.074-.665.088v.093h.009c.132-.006.264-.006.401-.006 3.616 0 7.373.467 11.262 1.427l-.028.078-.036.119.103-.059.179-.099.108-.06-.21-.041.012-.05zM23.31 9.578v.043a.33.33 0 0 0 .334.318c.19 0 .336-.145.336-.341a.334.334 0 0 0-.336-.334c-.18 0-.325.14-.334.314zm21.056.952l-.016-.019-.065-.029-.033-.015-.026.026a.549.549 0 0 1-.425.214.561.561 0 0 1-.516-.351l-.021-.059-.059.041a3.08 3.08 0 0 1-.917.635l-.035.012.014.064c0 .263-.205.476-.458.526l-.096.015.073.063c.195.17.401.305.644.379l.075.108-.055.113c-.141.054-.283.113-.427.171l-.087.018.078.052c.607.45 1.1.668 1.535.697l.233-.007.23-.045.061-.03.086-.04-.086-.043c-.278-.128-.524-.36-.767-.594l-.167-.16-.073.044.207.548-.068.127-.136-.061-.208-.543.07-.151h.172l-.095-.087a1.785 1.785 0 0 0-.53-.343l-.08-.138.13-.067c.36.123.652.406.925.68.282.265.55.522.874.617l.107.02-.185-.302-.006-.013-.093-.216-.012-.027h-.024c-.266-.053-.466-.263-.466-.535l.024-.116.006-.027-.024-.014c-.22-.16-.528-.259-.958-.31l-.094-.107v-.006l.11-.1h.017c.44.057.77.16 1.018.318l.033.014.021-.025c.058-.055.136-.095.22-.14l.105-.019.054-.01.016-.008.005-.012a.493.493 0 0 0 .29-.145l.013-.008c.1-.091.184-.213.262-.35l.03-.053-.06-.006a1.705 1.705 0 0 1-.37-.171zM42.31 4.782l-.04-.018-.636 2.172.043.011A29 29 0 0 1 45.01 8.17l.051.022.695-2.03-.028-.017a27.312 27.312 0 0 0-3.418-1.363zm2.04.264l-.037-.02-.028.031.028-.036-.028-.03v-.094l.569-1.49.324-.835.014-.043-.182-.08-.038-.026-.917 2.381-.01.012-.016.02-.034.032h-.015l-.072.004c-.473-.185-.966-.36-1.466-.523l-.042-.016-.057.183-.012.048.042.015c1.194.382 2.337.842 3.412 1.356l.037.029.067-.16.009-.039-.038-.015c-.491-.25-.994-.483-1.51-.704zm2.351-1.74c-.396-.236-.838-.441-1.267-.651l-.049-.025-.874 2.258.048.03c.466.191.917.405 1.361.62l.045.02.765-2.231-.029-.02zm-3.325 4.905l-.039-.019-.048.138-.291.875-.015.043.044.016c.196.063.37.102.54.104l.2-.032.135.039.012.124-.038.056-.043.056.069.01a.552.552 0 0 1 .43.414l.035.158.478-1.382-.036-.018a24.15 24.15 0 0 0-1.433-.582zm-16.376 2.92c-.116-.031-.227-.074-.333-.106l-.14-.04.088.115.723.898h.025c.102-.003.205-.023.3-.036l.088-.009-.744-.817-.007-.004zm14.03-4.15l-.805-.219-.009.048.01-.052a33.213 33.213 0 0 0-4.053-.742l-.82-.07a31.98 31.98 0 0 0-2.787-.129c-.832 0-1.664.036-2.49.104l-.781.065c-1.379.139-2.75.37-4.106.7l-.898.239c-1.292.35-2.573.778-3.81 1.301l-.044.014.057.165.024.047.042-.025a37.04 37.04 0 0 1 1.529-.584l.165.067.401 1.12.2-.19.02-.018-.36-.995.078-.158c1.432-.48 2.922-.86 4.444-1.119h.017l.108.084.228 1.302.199-.129.034-.014-.206-1.197-.006-.023.085-.101a33.339 33.339 0 0 1 4.995-.402l.018.005.099.113.01 1.073v.045l.227-.01h.038V6.187l.007-.026.009-.017.015-.044.021-.004.053-.027c1.677.025 3.343.176 4.968.458l.016.013.01-.004.038.025.021.011.015.061v.014l-.006.006.006.023-.241 1.259.232.033.041.007.248-1.276.1-.087h.018a31.17 31.17 0 0 1 4.393 1.173l.003.007.056.059.01.076-.37 1.187.162.048.027.009.04.009.31-.925.073-.23.008-.003.022-.027.035-.04h.045l.036-.005v.005h.015c.529.198 1.036.403 1.556.63l.048.013.054-.158.013-.038-.037-.024a29.416 29.416 0 0 0-3.923-1.398zm3.177 4.505a.343.343 0 0 0-.341.34c0 .188.156.332.34.332h.008l.114-.043.107-.036.013-.019.093-.22.008-.009v-.006a.34.34 0 0 0-.342-.339zm-3.455 1.008h.026c.264-.025.53-.07.793-.151l-.012-.088c-.36-.02-.723-.188-1.083-.394l-.15-.09.407.698.02.025zM42.81 9.42l-.171-.051c-.386-.124-.816-.26-1.283-.26-.19 0-.378.023-.586.073l-.039.01.021.095a.558.558 0 0 1-.56.549.55.55 0 0 1-.526-.388l-.019-.063-.05.05c-.368.313-.94.547-1.724.696l-.048.005.04.187a.54.54 0 0 1-.204.42l-.058.052.058.026a.981.981 0 0 0 .39.098h.005l.112.065-.015.117c-.09.093-.178.175-.27.265l-.037.035.036.031c.346.302.686.537 1.047.71l.11.047-.55-1.415-.021-.013c-.114-.025-.231-.053-.355-.053h-.008l-.1-.098-.042-.012h.042l.101-.101h.014c.17 0 .327.029.492.08h.006c.233.066.457.172.676.303l.027.016c.23.115.458.255.676.41.554.372 1.084.727 1.622.746l.099.107-.04.083-.044.1.1-.04c.104-.03.203-.082.314-.125l.083-.031-.083-.048c-.342-.196-.626-.48-.907-.774-.513-.53-1.027-1.055-1.903-1.055-.159 0-.33.014-.52.047l-.025.007-.102-.081-.003-.03.09-.103c.199-.037.379-.055.54-.055.337 0 .608.066.866.176l.017.012.022-.014c.225-.137.499-.192.796-.214h.012l.64-.695.151-.002.013.147-.427.46-.068.074h.098c.089.002.168.002.248.012h.033l.516-.605.154-.014.009.156-.34.388-.066.075h.111c.355 0 .702-.041.968-.19l.156.036-.033.154c-.316.175-.715.203-1.136.203h-.664c-.327 0-.63.017-.877.103l-.091.039.08.047c.258.171.478.359.687.582l.065.051.016-.085a.544.544 0 0 1 .532-.456c.201 0 .357.104.462.255l.019.034.042-.01c.384-.18.735-.425 1.039-.763l.009-.014v-.003a.516.516 0 0 1 .246-.297l.003-.002.024-.054.051-.066h-.075c-.228-.009-.465-.074-.716-.154zm-2.577 1.69l.225-.126.137.027-.036.14-.21.14-.154-.039.038-.141zm-.489-.35l.26-.133.143.048-.046.146-.254.129-.146-.052.043-.137zm-2.44-.773a.33.33 0 0 0-.332.336c0 .187.143.339.332.339a.343.343 0 0 0 .348-.34.34.34 0 0 0-.348-.335zm-6.207-1.78a.34.34 0 0 0-.342-.336.343.343 0 0 0-.347.336c0 .188.154.339.347.339a.34.34 0 0 0 .342-.339zm9.095 1.415a.34.34 0 0 0 0-.677.34.34 0 0 0-.34.336.34.34 0 0 0 .34.34zm3.61.872a.339.339 0 1 0 0-.678c-.189 0-.339.148-.339.338 0 .18.15.34.34.34zm-3.745 1.997c.128.01.25.01.372.01l.081.012-.042-.074-.548-.93-.046-.03c-.084-.051-.161-.108-.248-.166l-.125-.072.532 1.248.024.002zm1.307-1.447a.343.343 0 0 0 .684 0 .337.337 0 0 0-.342-.336c-.19 0-.342.15-.342.336zm-2.192.008a3.907 3.907 0 0 0-.317-.156l-.102-.038.042.099.502 1.337.027.008c.12.042.243.083.366.106l.09.025-.596-1.375-.012-.006zm-1.389-4.333a32.542 32.542 0 0 0-4.645-.43h-.046l.014.977v.041h.036c.224.016.433.048.64.063.286.04.568.075.841.075.27 0 .529-.039.796-.138l.11.016.046.1c-.01.13-.048.266-.096.392l-.02.056.06.007a.559.559 0 0 1 .406.232l.017.018.028-.005a4.681 4.681 0 0 1 1.36-.216h.23l.043.004.222-1.186-.042-.006zM31.28 7.945l-.024.024.006.027.045.21a.555.555 0 0 1-.552.557.537.537 0 0 1-.44-.23l-.04-.058-.028.058c-.306.478-.838.9-1.61 1.25l-.06.022.046.05a.53.53 0 0 1 .027.787l-.045.041.065.024c.198.075.389.127.559.127a.701.701 0 0 0 .264-.052l.135.027.021.118c-.061.124-.144.223-.222.336l-.033.05.04.019c.5.285 1.128.43 1.771.43.213 0 .413-.021.62-.053l.093-.006-.872-.785h-.003a5.28 5.28 0 0 1-.54-.224l-.152-.074.509.73-.033.147-.143-.032-.708-1-.017-.013a1.661 1.661 0 0 0-.59-.119h-.128l-.106-.088v-.016l.1-.1.133-.01c.247 0 .462.065.682.14l.017.01c.135.046.27.11.408.177.473.217 1.01.474 1.922.474.137 0 .283-.002.439-.023l.01-.002.107.106v.004l-.099.109c-.16.009-.318.016-.45.016-.275 0-.517-.016-.729-.055l-.162-.026.668.604.027-.012a2.6 2.6 0 0 0 .969-.457l.095-.061.162-.167.048-.061-.075-.016c-.277-.056-.562-.214-.864-.383v-.003h-.009a.51.51 0 0 1-.332-.202l-.012-.01h-.009c-.552-.329-1.147-.642-1.867-.642-.29 0-.593.056-.914.166l-.141-.063.066-.144c.348-.108.677-.165.982-.165.1 0 .198.005.291.014l.033.009.015-.023c.087-.128.188-.232.298-.322l.004-.014c.524-.44 1.233-.541 1.935-.629.719-.089 1.416-.172 1.866-.66l.16-.008.004.145c-.305.327-.698.482-1.131.588l.003.086.062.018.1.133-.102.08h-.028l-.807-.177h-.108c-.153.025-.306.045-.465.07l-.008.094.47.122.075.133-.138.07-1.027-.28h-.01c-.18.062-.354.13-.519.233l-.075.048.611.212.065.133-.138.065-.702-.237-.028-.009-.1.106-.053.061.08.014c.388.09.753.253 1.076.43l.06.037.014-.066a.539.539 0 0 1 .539-.494l.123.023h.024l.006-.005c.832-.081 1.65-.498 2.142-1.096l.012-.013a.518.518 0 0 1 .241-.355l.01-.013V7.95c.055-.104.1-.214.124-.318l.024-.08-.078.02c-.22.06-.438.083-.674.083-.269 0-.542-.034-.822-.066a6.902 6.902 0 0 0-.913-.074 2.878 2.878 0 0 0-1.568.429zm0 2.37l.442-.11h.027l.096.077-.086.137-.43.11-.127-.083.078-.13zm-.919-.302l.423-.104.13.077-.078.122-.424.104-.123-.075.072-.124zm1.28-1.538l-.15.029-.035-.14.22-.35.15-.036.037.144-.222.353zm.788-.17l-.146.032-.033-.145.214-.345.147-.04.036.149-.218.35zm.918-.498l.147-.045.04.148-.217.348-.14.038-.044-.144.214-.345zm-5.092 2.116c-.19 0-.339.148-.339.336a.34.34 0 0 0 .68 0 .338.338 0 0 0-.34-.336zm7.224-1.171a.34.34 0 0 0 .34-.336.336.336 0 0 0-.34-.336.337.337 0 0 0-.345.336c0 .183.153.336.345.336zm7.152-.807a31.688 31.688 0 0 0-4.063-1.083l-.046-.011-.003.045-.216 1.119.042.008c.156.038.306.066.444.104.322.084.598.154.858.154a1 1 0 0 0 .33-.048l.11.016.039.1c-.003.119-.025.231-.054.344l-.015.072.141-.03c.18 0 .325.091.431.227l.023.027.027-.004c.232-.066.462-.093.677-.093.338 0 .656.06.942.14l.045.016.34-1.09-.052-.013zm-6.582.379l-.038.013.012.036.012.05a.55.55 0 0 1-.556.539.55.55 0 0 1-.5-.296l-.027-.067-.048.058a3.54 3.54 0 0 1-1.795.932l-.064.009.04.06c.057.09.108.19.108.303 0 .185-.103.34-.244.44l-.059.045.063.027c.232.124.454.21.661.21h.084l.105.052-.003.122c-.076.108-.177.207-.279.313l-.04.043.053.027c.903.446 1.7.661 2.402.661.73 0 1.351-.244 1.856-.751l.054-.048-.078-.016a1.802 1.802 0 0 1-.45-.207l-.014-.004h-.01a.557.557 0 0 1-.505-.366l-.005-.013-.048-.037c-.546-.432-1.16-.913-1.99-.913-.222 0-.465.032-.717.113l-.139-.07.07-.133c.282-.086.543-.127.786-.127.826 0 1.436.432 1.97.842l.055.034.018-.052a.545.545 0 0 1 .515-.38c.155 0 .28.06.387.15l.011.016h.026c1.638-.28 2.07-.864 2.164-1.406l.015-.07-.07.012-.204.013c-.282 0-.572-.072-.895-.15-.402-.105-.862-.216-1.408-.216-.388 0-.805.048-1.281.202zm-.311 1.73h.025l.096.065-.087.14-.423.108-.131-.076.075-.13.445-.108zm-1.106-.251l.008.036.46-.122h.025l.093.08-.078.142-.424.105-.153-.087-.006-.005.083-.113-.008-.036zm.488.67c.278.17.555.323.83.45l.06-.066-.028-.034v-.027l.075-.095.44-.124.15.097.005.009-.082.11-.456.104-.019.095c.267.11.529.187.787.187.105 0 .207-.03.306-.05l.142.073-.076.13c-.121.033-.24.053-.366.053-.288 0-.595-.084-.892-.206l-.123-.056.144.262-.047.14-.151-.048-.265-.504-.009-.013-.018-.004a8.623 8.623 0 0 1-.46-.273l-.143-.074.359.692-.05.144-.147-.045-.499-.981-.012-.002a3.137 3.137 0 0 0-.546-.246l-.12-.041.687 1.115-.039.14-.156-.028-.762-1.252h-.158l-.097-.074.093-.14h.265c.407.032.881.293 1.378.582zm1.432-2.046l.153-.004.004.153-.37.386-.15.016-.007-.156.37-.395zm1.207-.155l.01.15-.554.635-.066.065.1.009c.153.002.31.009.468.009h.021l.652-.672.151-.004v.155l-.412.438-.088.083.115-.009c.486-.034.923-.142 1.18-.465l.16-.025.02.145c-.366.47-1.018.57-1.709.57h-.015c-.213 0-.411-.01-.604-.02a14.438 14.438 0 0 0-.525-.009c-.247 0-.46.018-.614.063l-.15-.054.058-.13c.186-.073.432-.095.709-.095l.186.004h.024l.728-.834.155-.01zm-5.13 1.349a.352.352 0 0 0-.346.34c0 .185.163.34.346.34a.342.342 0 0 0 .345-.34.348.348 0 0 0-.345-.34z"/>
        <path fill="#8F1A1E" d="M52.38 56.43c0 1.851-1.427 3.542-3.125 3.542H35.722c-1.328 0-3.327 1.68-3.327 3.162 0-1.481-2.07-3.162-3.365-3.162H15.47c-1.696 0-3.119-1.69-3.119-3.543V13.605H52.38v42.824z"/>
        <path fill="#D2AE6E" d="M27.938 52.043a.884.884 0 0 1-.287-.403c-.012.159-.114.276-.187.368.088.298.238.794.673.75.165.022-.324-.274-.2-.715zM24.33 38.145c.05.223.104.416.194.571.081-.012.162-.039.239-.07-.008-.157.02-.318.094-.505-.189.037-.347.037-.527.004zm1.48-1.079c.22-.258.665-.446.99-.664.893.049 2.279-.49 6.918-.091.65-.28.67-.586.817-1.012.01-.036.015-.045.023-.066-.53-.293-.966-1.045-.879-2.326-1.514 2.242-2.852 1.833-3.463 1.318 1.508-.385 1.925-1.244 1.535-3.298-2.435 1.532-.874 2.913-.39.495 1.195 2.017-1.695 3.44-2.232.859.011.867.657 1.757.501 1.74-.474-.014-.793-.169-.988-.344-.95.362-2.44.68-2.89 1.176-.513-.064-.937.12-1.102.306-.351.318-.634.536-1.051.858-.77.489-1.217.906-1.46 1.247.066.218.165.474.643.41.046.392.368.479.558.375-.054-.799.463-1.512 1.436-1.448.012.065.018.13.04.194-.705-.056-1.498.613-1.142 1.585a.73.73 0 0 0 .6.357c-.135-.277-.204-.605-.163-.88.333.137.815.077 1.11-.036-.111.149-.19.394-.201.699.516-.323.928-.934.79-1.454zm.863-1.48c1.304-.818 2.238-.215 3.987-.735.082-.102.286.002.082.182-.77.53-3.091-.05-3.986.784-.154.043-.193-.151-.083-.232zm-2.981 1.265c-.41-.091-.828.203-.696.652l-.196.018c-.2-.602.447-1.023.907-.892-.003.068-.01.143-.015.222zm6.236 14.634c.012.36.08.642.207.885.108-.207.22-.431.162-.909-.198-.083-.264-.037-.37.024zM23.376 38.31c-.159.058-.372.092-.558-.095.02.122.046.226.08.329.145.28.441.475.698.547.048.017.096.02.156.034a.764.764 0 0 1-.111-.18 2.247 2.247 0 0 1-.265-.635zm2.39-9.821c.635.85 1.302 1.638 2 2.393.524-1.002 1.293-1.718 1.97-2.18l-4.653-3.443c.168.257.389.48.564.673-.258.14-.64.12-.979-.056a.645.645 0 0 1-.147.424c.167.182.351.358.505.514-.259.153-.652.153-1.004-.008a.695.695 0 0 1-.156.434c.075 0 .156.01.231.01l.959.245c.015.03.04.056.054.083.165.079 1.617 1.874 2.952 1.59l.048.258c-1.06.07-1.508-.214-2.344-.937zm.688-1.143l.073-.171 2.52 1.573-.118.166-2.475-1.568zm-1.732 11.623c.033.027.066.052.108.08-.01-.03-.02-.077-.036-.111-.02.007-.045.008-.072.03zm-2.169-1.056c-.23-.013-.459-.116-.552-.405-.388.838.597 1.104.646 1.113a1.478 1.478 0 0 1-.094-.708zM39.215 52.51c-.263.48-.32 1.048-.216 1.28.15-.264.4-.386.49-.698.011-.216-.056-.443-.274-.582zm3.702 1.11c.004.295.057.542.152.753.046-.009.087-.02.132-.031.076-.18.126-.391.085-.754-.2-.09-.271-.038-.37.033zm2.24-27.728c.185.258.309.493.424.767 1.077-.485 1.537.331 1.436.828-.113.513-1.086.65-1.5-.27a4.353 4.353 0 0 1-.154-.362c-.02-.043-.05-.083-.06-.122 0 0 .005-.009.01-.009a3.182 3.182 0 0 0-.402-.761c-.01.007-.025.007-.037.018-1.474-1.093-2.794.119-3.073.797a.597.597 0 0 0-.015.107c2.18-1.285 2.154.297 2.945 1.394.427.488.894.755 1.34.86.18.026.37.044.585.035.423-.005 1.35-.413 1.456-1.698.075-.923-1.003-2.325-2.954-1.584zm-12.781-2.86l-.21-.048.013.122.197-.074zm-.585-.571c-1.392.434-1.37.44-2.125.556 0 .175-.042.298.108.449-.21.768-.246 1.449.154 1.627 3.36-.584 2.652 1.656.956 1.328-.278-.042-.716-.259-.944-.05-.277.243.05.685.036 1.087-.352.617.63.345.935.515 1.645-.168 3.044-.533 2.97-2.975l.198-.019c.096 2.497-1.175 2.89-2.533 3.18-2.646.563-4.023 3.242-4.139 4.542-.063.702-.297.93-.944.887 1.404.782 1.823-1.257 1.93-1.352-.103.19-.036.868.377 1.28l.043.046c.141.13.316.223.54.272.2.007-.86-1.15-.224-2.582.33 3.413 2.587 2.155 2.28.795-.59 2.255-2.734.165.513-1.474.362 1.871.362 3.26-1.247 3.7 1.636.436 2.363-.973 3.393-2.122-.815 3.435 1.957 3.596 1.95 1.857-.44 1.02-2.552-.295.578-2.503-.43 2.815.447 3.43.955 3.297-.012-.075-.018-.155-.024-.213-.415.088-1.292-.492-.319-1.71.194.145.436.21.583.13-.054-.05-.096-.155-.141-.242-.523-.983.215-1.667.297-1.646-.6 3.392 1.274 3.261 1.364 3.001-1.006-.203-.637-2.157-.348-2.834 0 .026.009.049.009.074a.855.855 0 0 1 .034.2c.305 1.902 1.011 1.714 1.272 1.503.023-.026.04-.056.07-.083-.444.19-.734-.412-.665-1.23.697-8.783-1.875-10.464-3.871-9.954-.012-.014-.012-.033-.012-.052-.024.019-.053.019-.07.03.01-.05.01-.096.01-.145-.328-.684-1.463-1.418-1.77.092-.708.155-2.407.23-2.179.738zm4.814 7.397c.55-.348.39-1.163.11-2.144.037-.128.136-.13.22-.074.67 1.992-.144 2.366-.195 2.396-.216.04-.135-.178-.135-.178zm-2.088-8.308c.93-.075 1.053.72.864 1.216-.097.017-.206.001-.194-.12.147-.393-.042-.945-.637-.884-.094-.035-.094-.11-.033-.212zm.078 7.02c.01-.166.07-.214.202-.16.324.608.774 2.007-.314 3 1.986-.877.374-2.623 1.058-3.577.122-.067.259.055.163.184-.511.77.97 2.727-1.208 3.648-.153.073-.219-.003-.23-.086-.23.166-.51.32-.85.455-.154.047-.214-.097-.142-.187-.077.038-.154.078-.247.118-.24.116-.3-.142-.177-.184 2.343-.889-.94-1.989.177-2.977.116-.07.247.043.148.165-.814.663 1.96 1.801.222 2.812.552-.267 2.222-.984 1.198-3.21zm-1.945-1.911c-.043-.063-.114-.128-.16-.185.285-.148.552-.728.09-1.38l.147-.15c.177.07.697 1.087-.077 1.715zm-.585-3.928l1.096.223-1.188.485-.036-.516-.234-.168.11-.186.252.162zm-.248 3.196c.05-.009.102-.023.153-.035a.336.336 0 0 0 .06-.192c-1.248.046-3.12-.534-3.697.104 1.146-.317 2.353.1 3.484.123zM45.264 48.42c.212-.658.242-1.139.144-1.493-.105-.362-.384-.671-.952-.847-.393-.104-.865-.11-1.37-.104-.927-.333-1.678-1.144-1.331-5.027 0 0 .001-.002.01-.006.015-.361.021-.79.012-1.204l-.003.001c0-.026-.009-.04-.009-.056-.01 0-.018 0-.033.004.012-.062 0-.122 0-.184-.308-2.563-3.607-1.363-4.151-4.476-.652.162-1.654-.424-1.289-3.013-2.078 1.787-.637 2.744-.189 1.525.349 1.365-.526 2.045-1.319 1.799l-.012.046h-.003c-.163.489-.136.73-.856 1.134a1.289 1.289 0 0 0-.225-.02c.081.233.457 1.441 2.006 1.86l.017.223a2.814 2.814 0 0 1-1.065-.441c-.066.187-.18.373-.414.413l-.164-.152c.257-.043.359-.205.415-.383a2.316 2.316 0 0 1-.338-.326c-.087.194-.293.417-.654.504l-.115-.166a.918.918 0 0 0 .615-.51c-.103-.13-.192-.283-.283-.437-.107.22-.326.583-.717.743l-.12-.17c.315-.112.58-.451.705-.84-.041-.105-.085-.216-.122-.337-.072 0-.153-.013-.228-.013-.158.48-.478.797-.796.871-.026-.067-.054-.132-.083-.2.266-.054.51-.351.641-.687-.941-.05-2.018-.06-3.06-.029.588 1.123 1.444 1.768 2.282 2.16.156.064.307.134.48.188.058.02.11.044.168.062.25.076.501.137.773.189.138.022.267.046.384.058a.294.294 0 0 0 .097.012c.243.034.494.078.778.096a.66.66 0 0 1 .357.124c.236.113.375.28.416.603-2.229.236-5.58.193-8.22 1.463-.264-.006-.474.74.208 1.314.174.083.34.14.4.443.594 2.343 2.027 3.125 3.012 3.942.048.024.077.057.123.078.07.053.105.1.143.154.05.043.1.088.142.14.205.57-1.159 1.6-1.604 2.054-.132.318-.872-.22-1.712.31-.348-.054-.306-.023-.43-.087a.802.802 0 0 0-.224-.083.702.702 0 0 0-.206-.075h-.01a.713.713 0 0 0-.15-.026c-.453-.039-.794.181-1.039.496.45.296.467.628.311 1.157.153.39.406.44.547.392-.078-.08.063-.599.15-.746.135-.464 1.27-1.035 2.538-.886l-.114.22c-1.238-.024-2.071.395-2.226.831-.063.166-.213.541-.016.81.027-.08.272-.24.273-.517.03-.086.113-.045.198-.063.01.241.275.59.476.753l-.036.032c.573.176.543-.38.6-.303.37.538.764.752 1.119.74-.155-.315-.238-.716-.247-1.108.208-.188.535-.222.835-.08.089.359.057.67-.027.927.259-.265.434-.71.448-1.26a398.871 398.871 0 0 1 2.48-2.602c.25-.198.535-.407.695-.45 1.49-.421.048-1.819-.871-2.291-1.508-1.508 2.379-2.082 2.587-2.192.554 1.3 1.899 2.18 2.899 3.302-.233.73.602 1.063 1.577.813.767.05 1.386.965 2.598.904.329.797.634 2.055.479 2.73-.299.056-.664.37-.862.63-.418-.075-1 .065-1.347.252-.86-.486-1.446-.226-1.798.238.433.286.457.614.291 1.142.1.135.256.235.508.297-.01-.253.027-.467.087-.572h-.015c.116-.479 1.265-1.056 2.541-.9l-.11.214c-1.256-.016-2.11.415-2.236.861-.052.179-.136.397.053.53.07-.091.25-.239.254-.475.024-.09.105-.044.198-.06.003.173.147.402.3.58.05.063.102.113.15.15.175.026.418-.034.508-.268.198.441.568.627.931.627a3.357 3.357 0 0 1-.171-.916c.216-.193.54-.221.847-.09.07.316.051.584 0 .807.225-.153.378-.387.334-.632.142.019 1.174.16 1.285.126.619-.2 0-.743.087-2.084.036-.636.06-1.518.06-3.187zm-16.948-5.427c-.182-.043-.096-.201-.096-.201.123-.044.218-.479.055-.936.015-.155.134-.152.229-.076.2.973-.102 1.241-.188 1.213zm2.277 7.79c-.577-.462-1.45-.022-1.559.429-.08-.063-.1-.11-.176-.173.114-.46 1.24-1.04 1.895-.379l-.16.124zm1.536-4.058c-.064.01-1.592-.166-2.213-2.078.012-.151.12-.172.202-.071.287 1.046 1.353 1.941 2.002 1.912 0 0 .209.145.01.237zm3.956-6.166c-1.126 1.668-2.172 1.002-3.505 2.957-.204.097-.233-.034-.183-.156 1.321-1.885 2.822-1.58 3.54-3.013.046-.106.312-.074.148.212zm5.584 6.435c-.06-.017-3.238-1.722-2.953-3.958.072-.128.187-.109.224.024-.1.999.55 1.963 1.476 2.78a2.932 2.932 0 0 1-.758-1.407c.053-.14.167-.113.228.015.116.773 1.182 1.938 1.834 2.332 0 0 .171.206-.051.214zm1.164-.278c-.07-.005-1.512-.536-1.664-2.534.048-.147.166-.143.236-.02.015 1.075.835 2.198 1.474 2.326 0 0 .163.18-.046.228zm.75 6.196c-.583-.468-1.452-.028-1.561.425-.078-.068-.098-.107-.179-.175.113-.467 1.244-1.045 1.906-.382l-.167.132zm-.115-5.133c-.057-.114.008-.214.149-.162 1.269 1.069.907 2.028.925 2.37-.16.14-.227-.057-.227-.057.096-.675 0-1.467-.847-2.15zm1.84 5.365l-.137.179c-.26-.158-.526-.351-.8.023-.068-.06-.098-.104-.176-.166.363-.485.829-.37 1.113-.036zm-.36-20.05c.115.787.483 1.388.79 1.693-.675-1.553.41-3.058-1.67-3.087.002 0 .002.006.002.006-.368.327-.923.295-1.227.487-1.55 1.255.849 1.74.193 3.678.05 0 .09-.01.145-.027.23-.092.42-.208.578-.375.008-.01.008-.017.025-.02.22-.387.343-.797.318-1.392.598.565.958.877 1.622 1.106a.531.531 0 0 0 .13.027c-.76-.602-1.085-1.537-1.127-2.108.004-.382.282-.278.222.012zm-22.38-6.035c-.015-.05-.045-.115-.054-.175.152-.222.445-.446.8-.506.013.293.123.556.26.803a.53.53 0 0 0 .205-.523 1.297 1.297 0 0 1-.291-.312c-.368-.046-.787-.274-.77-1.057.094 0 .176.013.268.019-.11.324.156.722.432.782.088-.155.217-.31.388-.428-.212-.253-.144-.71.21-.958.066.061.095.127.165.183-.279.195-.297.495-.198.67.04-.008.06-.016.1-.026.05.208.147.386.27.562.07-.083.102-.208.078-.372a1.264 1.264 0 0 1-.374-.54c.1-.185.293-.411.554-.527a1.952 1.952 0 0 0-.363-.286v.005s-.016-.014-.03-.022c-.562-.366-1.259-.497-1.342.387l-.064.002a.077.077 0 0 1 .012.025c-.044-.004-.075-.004-.114-.004-.283.052-.526.217-.457.734-.006.008-.006.012-.012.012.006.01.006.024.021.027-.027-.003-.039 0-.063-.003-.98.5-.135 1.213.37 1.528zm18.257 26.65a.56.56 0 0 1-.153.318c.18.607.468.693.561.718v-.082a.997.997 0 0 1-.078-.511c-.159-.138-.264-.257-.33-.443zm-11.06-34.524l-.93 1.692.903.86c.428-.608 3.085-2.548 1.773-4.513a2.306 2.306 0 0 0-1.656-.095 4.042 4.042 0 0 0-1.258.718c-.264.26-.46.439-.649.607-.332.334-.604.652-.802.827l.961.901 1.658-.997zm15.241 15.934c-.227-.202-.529-.31-.698-.544 0 .122.007.526-.317.96.006.02.012.05.013.062a.05.05 0 0 0 .023.029c.003.04.003.047.003.07.177.79.285 2.414-.828 3.37-.22.206-.455.347-.709.447a3.11 3.11 0 0 1-.124.048c-.057.02-.1.03-.153.056-.057.012-.109.038-.167.05.013.375.013.8-.027 1.215 2.693-.691 3.374-2.655 2.984-5.763zm-7.218-.473c.108-.134.123-.329-.02-.517 0 .188.005.353.02.517zm-.276-.887c.006-.13.012-.3.02-.445a.98.98 0 0 1-.253-.122c-.842 1.342.825 1.597-.027.485.095.038.177.073.26.107v-.025zm6.602-6.013c-.092-.195-.282-.605-.409-.797-1.559 1.763-1.41 3.697-.92 4.987.302-.178.665-.13 1.039-.388-.038-.08-.075-.187-.119-.309-.524-1.259-.069-2.601.304-3.267.036-.08.066-.16.105-.226zm-6.557 5.538l-.018-.004c-.006.013-.006.02-.006.034.01.004.018 0 .033.004l-.01-.034zm-15.175-6.061c-.159-.102-.351-.22-.522-.37l-4.857 4.969-.67-.633-.472.472.072.068 1.694 1.636.468-.476-.666-.654 4.953-5.012zm2.556-2.646l1-1.028.706-.767.169.174.504.48.475-.465-.667-.645 1.412-1.445.772-1.198-1.202.776-1.409 1.464-.663-.655-.469.472.649.632-.012.013.016.014-1.701 1.743c.17.137.321.286.42.435zm1 25.701c-.309.566-.4 1.273-.309 1.42.24-.213.41-.439.559-.573.081-.264.096-.656-.25-.847zm3.978-24.934l-.04-.018a3.377 3.377 0 0 0-.87.027c.274-.036.585-.036.91-.01zm-6.238.817c.236.345.461.51.84.522-.227-.24-.526-.555-.566-.798l-.274.276zm-1.794 8.99l.48.757.27-.168.286.452c.15-.098.31-.2.487-.303.102-.075.198-.149.29-.223l-.309-.455c1.442-1.689.21-3.5-.832-4.014-2.237-.972-3.532.577-3.715 1.882-.003.045-.008.092-.008.149-.007.056-.012.116-.007.178 0 .192.033.378.084.535.192-1.94 1.805-2.854 3.142-2.066 1.473.972.835 2.813-.168 3.276zm2.754-10.207l-.294.263c.216.35.423.538.805.562-.214-.238-.49-.586-.51-.825zm3.327 1.018l.037-.003c.01-.024.015-.042.03-.068-.02.026-.042.044-.067.071zm-5.16.978c.023.3.535.663.77.672-.223-.193-.455-.758-.45-.898l-.32.226zm7.123-1.596c.414.038.854.095 1.282.136-.411-.043-.823-.108-1.22-.148-.022.006-.041.006-.062.012z"/>
        <path fill="#D2AE6E" d="M12 13.017v43.246c0 2.117 1.664 3.964 3.549 3.964h13.566c.963 0 2.272 1.151 2.833 2.24.228.546.467 1.13.548 1.474.252-.754.543-1.744.922-2.25.649-.805 1.647-1.464 2.39-1.464h13.523c1.897 0 3.554-1.847 3.554-3.964V13.017H12zm40.032.845v42.4c0 1.663-1.265 3.123-2.7 3.123H35.808c-1.145 0-2.624 1.003-3.34 2.223a.1.1 0 0 1 .01.023h-.016c0-.018.006-.018.006-.018-.73-1.215-2.23-2.228-3.354-2.228H15.549c-1.442 0-2.69-1.46-2.69-3.122V13.862h39.173z"/>
    </g>
</svg>
