<svg xmlns="http://www.w3.org/2000/svg" viewBox="0 0 780.77 751.41"><defs><style>.cls-1,.cls-6{opacity:0.2;}.cls-2{fill:#a85425;}.cls-3{fill:#984722;}.cls-4{fill:#cf802d;}.cls-5{font-size:81.32px;font-family:Skiff-Bold, Skiff;font-weight:700;}.cls-5,.cls-9{fill:#fff;}.cls-7{fill:#d0812d;}.cls-8{fill:none;stroke:#fff;stroke-linecap:round;stroke-linejoin:round;stroke-width:8px;}.cls-10{fill:#aa5f27;}.cls-11{fill:#994722;}</style></defs><g id="кнопка_красноярск" data-name="кнопка красноярск"><g class="cls-1"><path d="M119.46,871.72c-10.95,13.61-4.78,43-3.82,59.11,1,17.23-3.24,46.22,22.84,51.92,24.85,5.44,731.1,12.28,742.42-7,8.89-15.15,6.4-41.62,7.7-58.55,1.22-16,2-33.59-9.09-47.69C868.67,855.67,130.87,857.57,119.46,871.72Z" transform="translate(-109.84 -237.11)"/></g><path class="cls-2" d="M116.32,822.49c-11.06,16.92-4.83,53.5-3.86,73.48,1,21.42-3.27,57.45,23,64.53,25.08,6.76,735.22,15.26,746.65-8.73,9-18.82,6.46-51.73,7.77-72.77,1.23-19.91,2-41.76-9.17-59.28C869.81,802.53,127.83,804.9,116.32,822.49Z" transform="translate(-109.84 -237.11)"/><path class="cls-3" d="M119.22,821.8c-10.8,14.87-4.72,47-3.77,64.58,1,18.82-3.19,50.49,22.51,56.72,24.49,5.94,724.71,13.41,735.87-7.67,8.76-16.55,6.31-45.47,7.59-64,1.2-17.49,2-36.69-9-52.09C861.77,804.27,130.46,806.34,119.22,821.8Z" transform="translate(-109.84 -237.11)"/><path class="cls-3" d="M861.36,928.18c-22,2.23-44,2.41-66.07,3.54-4.71.23-4.73,7.32,0,7.08,22-1.12,44.11-1.31,66.07-3.54C866,934.79,866.06,927.69,861.36,928.18Z" transform="translate(-109.84 -237.11)"/><path class="cls-4" d="M133.43,829.34h0Z" transform="translate(-109.84 -237.11)"/><path class="cls-4" d="M145.25,939.94l-.13,0C144.76,940.11,145.33,939.91,145.25,939.94Z" transform="translate(-109.84 -237.11)"/><path class="cls-4" d="M600.71,825.62s.09.17.08.14Z" transform="translate(-109.84 -237.11)"/><path class="cls-4" d="M873.7,842.25h0Z" transform="translate(-109.84 -237.11)"/><path class="cls-4" d="M365.09,939c-.3-.26-.59-.53-.91-.78C358.94,938.72,368.1,941.9,365.09,939Z" transform="translate(-109.84 -237.11)"/><path class="cls-4" d="M342.61,817.59c.25.1.3-.27,0,0Z" transform="translate(-109.84 -237.11)"/><path class="cls-4" d="M490.35,827.31c-1.53,1.64,1.31,2.14,0,0Z" transform="translate(-109.84 -237.11)"/><path class="cls-4" d="M463.68,945.44l-.12-.18Z" transform="translate(-109.84 -237.11)"/><path class="cls-4" d="M611.05,837.94c.28.16.36-.42,0,0Z" transform="translate(-109.84 -237.11)"/><path class="cls-4" d="M863.57,937.48h0Z" transform="translate(-109.84 -237.11)"/><path class="cls-4" d="M330.72,832.32c.45.36.42-.38,0,0Z" transform="translate(-109.84 -237.11)"/><path class="cls-4" d="M548.23,842.64c.06.22.25-.08,0,0Z" transform="translate(-109.84 -237.11)"/><path class="cls-4" d="M456.78,811.66h0Z" transform="translate(-109.84 -237.11)"/><path class="cls-4" d="M363.84,829.87c.5.3.47-.42,0,0Z" transform="translate(-109.84 -237.11)"/><path class="cls-4" d="M486.05,822.31c0,.31.32-.12,0,0Z" transform="translate(-109.84 -237.11)"/><path class="cls-4" d="M127.92,825.07c-.43.21.39-.18,0,0Z" transform="translate(-109.84 -237.11)"/><path class="cls-4" d="M167.3,941.06c.25.48.33-.1,0,0Z" transform="translate(-109.84 -237.11)"/><path class="cls-4" d="M500.16,947.58c.35.42.48-.32,0,0Z" transform="translate(-109.84 -237.11)"/><path class="cls-4" d="M853.18,816.15h0Z" transform="translate(-109.84 -237.11)"/><path class="cls-4" d="M819.76,820.14c-.87.6-.11.08,0,0Z" transform="translate(-109.84 -237.11)"/><path class="cls-4" d="M599.86,827.17c0-.1,0,.33,0,0Z" transform="translate(-109.84 -237.11)"/><path class="cls-4" d="M328,844.58c.52.35.37-.42,0,0Z" transform="translate(-109.84 -237.11)"/><path class="cls-4" d="M402.6,847.68h0Z" transform="translate(-109.84 -237.11)"/><path class="cls-4" d="M581.93,911.86c-.25,0-.46.07-.69.12C579.25,912.38,582.56,912.7,581.93,911.86Z" transform="translate(-109.84 -237.11)"/><path class="cls-4" d="M361,858.77c.1-.27-.24-.08,0,0Z" transform="translate(-109.84 -237.11)"/><path class="cls-4" d="M424.56,877.61Z" transform="translate(-109.84 -237.11)"/><path class="cls-4" d="M811.39,911.82h0Z" transform="translate(-109.84 -237.11)"/><path class="cls-4" d="M831.67,900l.16,0C832.11,900.1,831.47,900,831.67,900Z" transform="translate(-109.84 -237.11)"/><path class="cls-4" d="M451.19,881.28Z" transform="translate(-109.84 -237.11)"/><path class="cls-4" d="M129.24,885c.19.19.25-.1,0,0Z" transform="translate(-109.84 -237.11)"/><path class="cls-4" d="M557.37,912.13h0Z" transform="translate(-109.84 -237.11)"/><path class="cls-4" d="M179.07,882.38c.53.33.37-.53,0,0Z" transform="translate(-109.84 -237.11)"/><path class="cls-4" d="M569.76,898.5l0,0C569.93,898.81,569.81,898.61,569.76,898.5Z" transform="translate(-109.84 -237.11)"/><path class="cls-4" d="M419.12,858.74h0Z" transform="translate(-109.84 -237.11)"/><path class="cls-4" d="M352.27,929.42c-.65,1.22,1.11,1,0,0Z" transform="translate(-109.84 -237.11)"/><path class="cls-4" d="M131.41,864.09c.2-.24.07-.53,0,0Z" transform="translate(-109.84 -237.11)"/><path class="cls-4" d="M349.52,856.85c.23-.08.15-.36,0,0Z" transform="translate(-109.84 -237.11)"/><path class="cls-4" d="M494.19,929.83a4.28,4.28,0,0,0-.12.54C496,931.94,494.7,928.08,494.19,929.83Z" transform="translate(-109.84 -237.11)"/><path class="cls-4" d="M149.74,930.69Z" transform="translate(-109.84 -237.11)"/><path class="cls-4" d="M150.2,868v0C150.3,868.12,150.8,868.88,150.2,868Z" transform="translate(-109.84 -237.11)"/><path class="cls-4" d="M211.31,873c.05-.47-.13-.25,0,0Z" transform="translate(-109.84 -237.11)"/><path class="cls-4" d="M362.92,924.47c.59.3.3-.58,0,0Z" transform="translate(-109.84 -237.11)"/><path class="cls-4" d="M120.73,912c.28.76.6-.16,0,0Z" transform="translate(-109.84 -237.11)"/><path class="cls-4" d="M826.84,855.84c.32.5.3-.19,0,0Z" transform="translate(-109.84 -237.11)"/><path class="cls-4" d="M556.57,856.18c1.23.51.55-1.12,0,0Z" transform="translate(-109.84 -237.11)"/><path class="cls-4" d="M176,921.72c.49.85.72-.54,0,0Z" transform="translate(-109.84 -237.11)"/><path class="cls-4" d="M401.11,892.24a.34.34,0,0,1,0,.1C401.09,892.45,401.09,892.53,401.11,892.24Z" transform="translate(-109.84 -237.11)"/><path class="cls-4" d="M490.94,860.51c0-.54,0,.53,0,0Z" transform="translate(-109.84 -237.11)"/><path class="cls-4" d="M597.82,933.26c1.13.72,1-1,0,0Z" transform="translate(-109.84 -237.11)"/><path class="cls-4" d="M810,861.22c.43.46.31-.14,0,0Z" transform="translate(-109.84 -237.11)"/><path class="cls-4" d="M508.66,886.16c.49.41.21-.28,0,0Z" transform="translate(-109.84 -237.11)"/><path class="cls-4" d="M485,922.06h0Z" transform="translate(-109.84 -237.11)"/><path class="cls-4" d="M495,853.4c-.44.93.74.59,0,0Z" transform="translate(-109.84 -237.11)"/><path class="cls-4" d="M376.64,885.94Z" transform="translate(-109.84 -237.11)"/><path class="cls-4" d="M602.5,867.48h0l-.09.12C602.55,867.65,602.64,867.45,602.5,867.48Z" transform="translate(-109.84 -237.11)"/><path class="cls-4" d="M164.24,891.68c.25.65.63-.24,0,0Z" transform="translate(-109.84 -237.11)"/><path class="cls-4" d="M485.35,888.77c-.24.64.64.27,0,0Z" transform="translate(-109.84 -237.11)"/><path class="cls-4" d="M558,905.07c.74.59.77-.57,0,0Z" transform="translate(-109.84 -237.11)"/><path class="cls-4" d="M450.27,853c.5.31.38-.45,0,0Z" transform="translate(-109.84 -237.11)"/><path class="cls-4" d="M184.75,930.35c.27.58.48-.37,0,0Z" transform="translate(-109.84 -237.11)"/><path class="cls-4" d="M365.09,939a15.88,15.88,0,0,1,5.26,9.38c51,1,111,1.4,165.67.69-.91-1.74-3-8.95,2.24-7.29l-.29-.09-.05,0h0l.05,0,.29.09h0c3.9,1.2,1.86,6.38-1.36,7.27,84.75-1.12,332.36-5,336.93-13.59,8.76-16.55,6.31-45.47,7.59-64a176.44,176.44,0,0,0,.49-21.62,2.3,2.3,0,0,1-2,.76q-5.37-1.89-.14-4.3h0a1.69,1.69,0,0,1,1.9.51c-.86-9.68-3.33-19.12-9.23-27.44l-.05-.06a3.71,3.71,0,0,1-1.16,2.43c-3-.21-3.64-1.57-2-4.08-6.13-1.94-20.19-3.54-39.74-4.82-.61,3.06-4.17,6.21-6.77,3.09a4.77,4.77,0,0,1-1-3.56c-27.27-1.54-235.7-3.91-278.88-3,0,3-2.15,6.31-6,6.17a14.64,14.64,0,0,1-2.35-6.27c-60.54-.58-127.13-1.25-183.1.51-1.85,1-5.89,1.18-7.46,0-78.9.8-221.16,7.12-224.72,12-5.62,7.74-6.67,20.16-6.24,32.77,2,2.65,2,6.67.6,10.21.64,8.05,1.55,15.66,1.87,21.6,1,18.82-3.19,50.49,22.51,56.72,6.74,1.63,155,3.39,204,4.62,5.71-5.34,16-8.9,22.19-9.53A10.91,10.91,0,0,1,365.09,939Zm135.07,8.61c3-2,1.94,2.36,0,0Zm-36.48-2.14s0,0-.12-.18C462.8,944.06,466.1,949.24,463.68,945.44Zm-6.91-133.78h0q4.55,3.18-.66,5.28Q452.15,813.12,456.77,811.66Zm-114.16,5.93c1.8-1.65,1.74.69,0,0ZM444.92,820Zm117.54-.71c-1.82.22,1.54-.2,0,0,5.31-.69,2,3.87.65,5.67Q558.24,822.66,562.46,819.25Zm257.3.89q3.25,1.56-.09,4.7C815.55,823.64,815.59,822.07,819.76,820.14Zm-333.71,2.17c2.49-.95.32,2.84,0,0Zm-358.13,2.76c4.09-2-4.57,2.25,0,0Zm26.79-4.16h0q5.22,3.93-1.08,7.82C152.3,827.15,146.52,819.17,154.71,820.91Zm446,4.71.08.14C602.35,828.36,600,824.6,600.71,825.62Zm-470.63,6.5,3.35-2.77c-.24.08-.71.23,0,0,.18-.06.12,0,0,0C134.74,828.94,137.18,836,130.08,832.12Zm233.76-2.25c2.58-2.29,3,1.8,0,0Zm-36.55,2.06c-.08-1.19-.08-1.16,0,0Zm3.43.39c2.4-2.2,2.78,2.22,0,0Zm-147.61-.38Zm307.24-4.63q6,4.7-.08,7Q484.12,830.77,490.35,827.31Zm109.51-.14c-.19,2.8,0-1.12,0,0Zm253.25-11c-1.47,0-3-.1.07,0,2.63.09,1.43.05.07,0,12.37.5,12,19.7-.44,19.46C839.71,835.38,839.43,815.76,853.11,816.15ZM571.78,836.67Zm39.27,1.27c2.49-2.86,1.91,1.15,0,0Zm266.53,5c-1.28,3.16-2.58,2.92-3.87-.73.08.25.23.71,0,0h0C875.46,837.52,876.75,837.78,877.58,843ZM328,844.58c2.12-2.44,3.21,2.21,0,0Zm220.2-1.94c1.79-.53.48,1.55,0,0Zm-401.64,1c-.1,1.1.1-1,0,0l3.16-3.33q4.38,3,1.34,6.35C148.45,847.88,147,846.88,146.59,843.68Zm361.33,3.56ZM167.3,941.06c1.91-.55,1.58,3,0,0ZM145.12,940l.13,0C150.08,938.3,140.15,941.8,145.12,940Zm231.44.76Zm483.71-10.81c0,.06,0,.1,0,0l0-.09c0-.09.05-.19.07-.25a.28.28,0,0,0,0-.06.28.28,0,0,1,0,.06c0,.06,0,.16-.07.25l0,.09,2.34-3.47C867.9,932.39,859.84,931.51,860.27,929.93Zm-262.45,3.33q2.4-4.72,3.61,0C600.85,935.63,599.64,935.64,597.82,933.26Zm-35.57-28.93q-1.1,5.29-4.22.74Q559.92,902.28,562.25,904.33Zm-84.06-3.58h0C473.1,900,482.76,901.4,478.19,900.75Zm353.64-.69-.16,0C826.62,899.29,835.54,900.57,831.83,900.06Zm-262.1-1.61,0,0C571.81,902.19,569.34,897.77,569.73,898.45Zm304-18.39c-1.15,4.88.33-1.46,0,0Zm-323.65-2.75c-6.5-1.82-3.85-13.33,3.34-9l-.57-.34-.18-.11-.15-.09.15.09.18.11.71.43.13.08,0,0,0,0-.13-.08-.14-.09C559.78,872.07,555.91,878.94,550.11,877.31ZM392,869c1.09-2,1.06-.27,0,0Zm452.56.29c1.9-2.54,2.91,1.25,0,0Zm-245.43-4.85c.49.05.25,0,0,0l3.32,3c2.95-2.27,1.25,1.9-.08.18-1.91,2.86-4,3.34-6.14,1.39-1.17-2.55-.21-4.08,2.9-4.6ZM810,861.22c2.15-1,2.85,3.12,0,0Zm-224.69-1.47q5.4,2.24-.08,4.28-4.07-2.12.08-4.28Zm-94.37.76c.08,5.4-.16-5.68,0,0Zm335.9-4.67c2.92-1.9,2.44,3.7,0,0ZM561,856q-.84,3.57-4.41.2Q557.42,851.48,561,856Zm-65.47,1.66q-3.5-1.35-.54-4.24Q498.84,855,495.51,857.64ZM450.27,853c2.17-2.55,3.25,2,0,0Zm-47.68-5.28c-.8-.13-2.11-.34,0,0,.74.12.47.08,0,0,6.44,1.05,1.8,16.54-4.87,8.72C394.44,852.51,397,846.81,402.59,847.68ZM361,858.77c-1.35-.45.57-1.63,0,0Zm-11.48-1.92c.84-2,.92-.32,0,0Zm14.26-2.36c2.06-.59-7.41,2.51,0,0Zm15.4-.23Zm-45.39-4Zm-195.16-.64c-.56.08-1.1.15,0,0s.59-.08,0,0c9-1.15,4.33,13.94-2.4,7.95A4.52,4.52,0,0,1,138.63,849.59ZM131,857.87c4-1.61,1.59,4.15,0,0Zm3.48,2.86c1.39-.36,2.31.62,0,0Zm-3,3.36c.41-3.14.67-.8,0,0Zm287.7-5.35c-.51,0-1.72-.17,0,0,.3,0,.22,0,0,0,4.44.43,3.75,8.44-1,7.89C412.62,866,415,858.36,419.11,858.74ZM150.2,868v0c-2.07-3,3.75-.31,5.23.24a.77.77,0,0,0,.07-.16c.43.31.32.3-.07.16C154,872.1,152.24,872,150.2,868ZM211.31,873c-.43-.84.28-2.79,0,0Zm263.05-4.36,6.08.13h0C483.91,869.41,474.08,880,474.36,868.68Zm-49.8,8.93c2.59-4-.5.82,0,0Zm57.47.18c1.25-6.07,6.57,2,7,3.06q-6.45,3.23-7-3.06ZM189.19,879Zm-10.12,3.41c2.55-3.66,3.7,2.24,0,0Zm272.12-1.1h0c.2,0,.13,0,0,0,1.53-.33,2.86,6-3.9,2.48ZM129.24,885c1.74-.71,1.22,1.2,0,0Zm18,.75c1.21-.9.57-.43,0,0Zm229.4.15c2.44-4.72-2.17,4.32,0,0Zm132,.22c1.46-2,3.51,2.88,0,0Zm-23.31,2.61c4.35,1.85-1.67,4.42,0,0Zm45.5,1.68c-4.05-5.38,2.81-12.39,9-11.21h0C548.59,880.9,537.67,899.54,530.85,890.45Zm-366.61,1.23c4.4-1.69,1.77,4.66,0,0Zm175.36.41c-.46-.94-.32-.67,0,0Zm61.5.25c0-.09,0-.22,0-.1C401.38,889.45,400.65,897.1,401.1,892.34ZM371.49,896c8.58.5,7.63,13.44-.63,13a6.52,6.52,0,1,1,.63-13Zm-199.85.6h0c12.49-.14,10.76,15.89-.44,15.33C162.28,911.53,162.85,896.73,171.64,896.64ZM120.73,912c3.84-1,1.86,4.95,0,0ZM176,921.72q2.4-3.47,2.95,0Q177,925.65,176,921.72Zm186.9,2.75c2.06-4,4.22,2.08,0,0Zm21-13.69h0c9.79,0,13.23,14.83,2.54,15.19C376.51,926.3,373.38,910.81,383.92,910.78Zm94.1,9.68,7,1.6c-.27-.08-1.63-.49,0,0,.06,0,0,0,0,0C486.52,922.52,480.39,929.77,478,920.46Zm78.75,1.36c-5.63-.67-5.3-10.24.58-9.69-.55,0-1-.1,0,0,1.46.15.69.07,0,0C563.1,912.74,562.5,922.53,556.77,921.82ZM581.24,912a5.63,5.63,0,0,1,.69-.12C591.93,925.19,567.87,914.27,581.24,912Zm230.11-.16c-1-.12-2.12-.25,0,0,1.7.21.92.11,0,0,9.3,1.14,8.19,14.2-.94,14.59C800.88,926.85,801.38,910.69,811.35,911.82Zm-266.44,15c5.26-1.61,8.29,6.18,2.54,7.55-4.55,1.09-8.89-5.66-2.54-7.55C543.5,927.26,547.9,925.92,544.91,926.84Zm127-45.64q4.05,3.43-.82,3.52C668.92,883.6,669.19,882.42,671.92,881.2Zm36.38-27.91q-4.9-2.29.25-4.28C710.07,850.67,710,852.09,708.3,853.29Zm4,8.63-.06,0C708.17,863.08,713,861.7,712.29,861.92Zm25.1-14.19c3.28-5.9,13.86-.67,8,5.34l.46-.48.15-.15.12-.12-.12.12-.15.15c-.18.2-.42.44-.58.59l-.1.11,0,0,0,0,.1-.11.12-.11C740.25,858.35,734.46,853,737.39,847.73Zm1.19,50.69c-.16.47-.09.24,0,0L734.86,901c1.52,3.39-2.14.77-.15-.12-2.35-2.52-2.34-4.63.06-6.3q4.13-.82,3.81,3.89ZM746.33,886q-3.42,4.74-4.15-1.07,3-3.47,4.15,1.07C746.45,885.25,746.22,886.78,746.33,886Zm9.3-22.8q-3.28-1.63.82-4.34Q760.83,860.82,755.63,863.24ZM729.06,826c6.18-2.69,11.4,5.6,8.83,11.33,2.13-4.74-1,2.15,0,0C734.25,845.42,718.64,830.48,729.06,826Zm-36.52,18c2-5.32,11.19-2.79,9.3,2.8.18-.51.32-.92,0,0-.47,1.39-.23.66,0,0C699.92,852.17,690.53,849.32,692.54,843.91ZM696.46,870a6.68,6.68,0,0,1,0,.7C681.14,877.34,697.33,856.45,696.46,870Zm-6.05-38.77c.35,5.48-7.93,6.63-7.93.71,0-4.68,7.56-7.33,7.93-.71C690.33,829.74,690.61,834.33,690.41,831.22ZM503.82,935.85q-6.22.61-9.75-5.48a4.28,4.28,0,0,1,.12-.54C495.92,923,511.66,931.33,503.82,935.85Zm-151.55-6.43q4.31,1.79.89,4.3C350.34,933,350.05,931.52,352.27,929.42Zm-167.52.93c3.92-3,2.2,4.73,0,0ZM141,931.56c0,1.69,0-1.11,0,0q1.44-6.4,5.6-.79Q144.49,935.59,141,931.56Zm4.54,2.9,4.21-3.77h0c1.28-.33.52-.13,0,0C153.21,929.81,155.57,944.58,145.53,934.46ZM325.77,885.2c-1.13,4.4,1.25-4.94,0,0ZM311.6,908.32c1.95-1.51-1.34,1,0,0q-6.37,1.42-5.26-5.89C308.4,902.43,318.22,903.2,311.6,908.32Zm7.4-26c0,1.44,0,2.9-.05,4.34.09-.23.28-.69,0,0-.07.17-.05.11,0,0C318.41,887.9,311.44,885.17,319,882.29Zm-34.19,40.53c0,1.48,0,.59,0,0Zm14.69-35.44h0c.17,1.52.33,3,.5,4.57-3.43.92-5.34-.11-5.71-3.09Q295.51,884.69,299.5,887.38Zm-87.62-47.27c-.81,1.82-3.3-.73,0,0Zm15.18-16.2a.69.69,0,0,1-.05.13C225.14,828.78,228.9,819,227.06,823.91Zm73.09,53.58h0c-.64,1-.33.5,0,0-4.93,7.57-13.43-5.73-4.5-7A4.51,4.51,0,0,1,300.15,877.49Zm-1.33-11.22c-1.38,4.11-4.19-1.47,0,0Zm-4.44.81c-.62,1.29-2,1.36,0,0Zm-.6-4.48c2.13,2.34.17,1,0,0Zm-15.12,11.81h0c3.65.39-2.19,3.07-3.57,3.84a.71.71,0,0,0,.08.15c-.51.14-.44.06-.08-.15C273.06,874.61,274.23,873.33,278.66,874.41Zm-43.43,43.28c.91.22,1.94,2,0,0ZM245,897c0,.5,0,1.5,0,0Zm3.95-9.92c1.14,4.31-4.1,1.37,0,0Zm30.24-39.7c-.59,1.79-1.71.15,0,0ZM267,860.61c-.11,1.5-.05.72,0,0Zm-15.51,9.14c-1.56,4.46-4.69-1.66,0,0Zm-8.56,2.43c2.27-2.74-3.06,3.68,0,0-8,9.62-19.08-2.08-11.4-10.26C237.64,855.41,248.55,865.42,242.93,872.18Zm21.29-48.72c-1.72,3.59-5-1.78,0,0ZM221,859.28q1.09,4.08-1.93,2.23C217.9,858.84,218.55,858.1,221,859.28Zm-12.22,1.07c-.27,4.92-5-1.39,0,0Zm27.4-34.13c-1.3-1.09.86.71,0,0q4,5.24-3,4.78Q230.82,826.28,236.15,826.22ZM231,827.8c.05,1.88.1,3.77.14,5.64.15-.3.25-.5,0,0-.57,1.19-.23.48,0,0C229.58,836.66,216.79,828.9,231,827.8ZM494.38,937.15q5.46,2.48.84,7Q489.73,940.81,494.38,937.15Z" transform="translate(-109.84 -237.11)"/><path class="cls-4" d="M131,857.87c.22.58.57-.23,0,0Z" transform="translate(-109.84 -237.11)"/><path class="cls-4" d="M844.58,869.28c.47.2.33-.45,0,0Z" transform="translate(-109.84 -237.11)"/><path class="cls-4" d="M392,869c.27-.07.2-.35,0,0Z" transform="translate(-109.84 -237.11)"/><path class="cls-4" d="M138.64,849.59h0Z" transform="translate(-109.84 -237.11)"/><path class="cls-4" d="M134.43,860.73c.64.17.59-.15,0,0Z" transform="translate(-109.84 -237.11)"/><path class="cls-4" d="M494.38,937.15c-.76,1.05,1,.83,0,0Z" transform="translate(-109.84 -237.11)"/><path class="cls-4" d="M873.76,880.06c0-.14-.14.59,0,0Z" transform="translate(-109.84 -237.11)"/><path class="cls-4" d="M333.79,850.23c.48,0-.52,0,0,0Z" transform="translate(-109.84 -237.11)"/><path class="cls-4" d="M363.78,854.49c-.87.3.16,0,0,0Z" transform="translate(-109.84 -237.11)"/><path class="cls-4" d="M795.29,931.72c-4.71.23-4.73,7.32,0,7.08,11.55-.59,23.1-.92,34.64-1.43-.8-1.41-4.23-8.23,1.54-6.9-.5-.11-1.42-.33,0,0,.39.08.26.06,0,0,5,1.18,3.17,6.17-.59,6.85,3.62-.16,7.25-.35,10.87-.56-.88-1.26-1-2.57,1.85-2.38-.32,0-.88-.06,0,0h0c1.38.67,2,1.39,1.89,2.16,5.27-.34,10.55-.76,15.82-1.29,4.65-.47,4.7-7.57,0-7.08C839.4,930.41,817.32,930.59,795.29,931.72Z" transform="translate(-109.84 -237.11)"/><path class="cls-4" d="M843.65,934.39h0Z" transform="translate(-109.84 -237.11)"/><path class="cls-4" d="M831.48,930.48h0Z" transform="translate(-109.84 -237.11)"/><text class="cls-5" transform="translate(102.79 660.3)">Лондонский</text></g><g id="красноярск"><path class="cls-6" d="M427.18,798.58c-11.19,0-20.28-8.62-20.28-19.22V415.48c0-.24,0-.49,0-.74a18.55,18.55,0,0,1,.33-2.76c.07-.33.14-.65.22-1a18.22,18.22,0,0,1,.74-2.27c.11-.3.24-.59.37-.88a18.55,18.55,0,0,1,1.38-2.51l70-107.32v-20.5c0-10.6,9.1-19.22,20.28-19.22s20.28,8.62,20.28,19.22V298l70,107.36a17.64,17.64,0,0,1,1.38,2.5c.11.25.23.53.33.8A18.14,18.14,0,0,1,593,411c.08.32.15.63.21.94a18.55,18.55,0,0,1,.33,2.76c0,.25,0,.5,0,.74V779.36c0,10.6-9.09,19.22-20.28,19.22Z" transform="translate(-109.84 -237.11)"/><path class="cls-2" d="M427.18,777.39c-11.19,0-20.28-8.63-20.28-19.23V394.29c0-.24,0-.49,0-.74a18.55,18.55,0,0,1,.33-2.76c.07-.33.14-.66.22-1a18.22,18.22,0,0,1,.74-2.27c.11-.3.24-.6.37-.88a18,18,0,0,1,1.38-2.51l70-107.32v-20.5c0-10.6,9.1-19.22,20.28-19.22s20.28,8.62,20.28,19.22v20.5l70,107.36a17.11,17.11,0,0,1,1.38,2.5c.11.25.23.53.33.79a18.81,18.81,0,0,1,.77,2.37c.08.32.15.62.21.94a18.4,18.4,0,0,1,.33,2.76c0,.25,0,.5,0,.74V758.16c0,10.6-9.09,19.23-20.28,19.23Z" transform="translate(-109.84 -237.11)"/><path class="cls-3" d="M585,387.1a19.57,19.57,0,0,0-.3-2.64c-.06-.31-.12-.6-.19-.9a16.83,16.83,0,0,0-.7-2.27c-.09-.26-.2-.52-.3-.77a18.57,18.57,0,0,0-1.25-2.39L518.65,275.19V255.54a18.33,18.33,0,0,0-3.17-10.32c-1.55-.57-1.76-1.33-1.45-1.84a18.57,18.57,0,0,0-3.54-3.14,7.18,7.18,0,0,1,.34,1.45,5.11,5.11,0,0,1-7.88,5.1h0l-.11-.07h0l.1.06c-5-3.23-2-7.8,1.63-9.13a18.19,18.19,0,0,0-14.48,2.51h0q4.73,1.36,1.67,5.9h0l-5.17.56a8.24,8.24,0,0,1-.3-3.11,18.35,18.35,0,0,0-4.5,12v19.65L418.2,378.09a18.87,18.87,0,0,0-1.26,2.4c-.12.28-.23.56-.33.85a18.3,18.3,0,0,0-.67,2.18c-.07.31-.14.62-.2.94a19.76,19.76,0,0,0-.3,2.64c0,.24,0,.48,0,.72V736.7a18.45,18.45,0,0,0,18.43,18.43H566.59A18.45,18.45,0,0,0,585,736.7V387.82C585,387.58,585,387.34,585,387.1Z" transform="translate(-109.84 -237.11)"/><path class="cls-7" d="M513.39,533.42l0,0-.08.13Z" transform="translate(-109.84 -237.11)"/><path class="cls-7" d="M585,387.1a19.57,19.57,0,0,0-.3-2.64c-.06-.31-.12-.6-.19-.9a16.83,16.83,0,0,0-.7-2.27c-.09-.26-.2-.52-.3-.77a18.57,18.57,0,0,0-1.25-2.39L518.65,275.19V255.54a18.33,18.33,0,0,0-3.17-10.32c-1.55-.57-1.76-1.33-1.45-1.84a18.57,18.57,0,0,0-3.54-3.14,7.18,7.18,0,0,1,.34,1.45,5.11,5.11,0,0,1-7.88,5.1h0l-.11-.07h0l.1.06c-5-3.23-2-7.8,1.63-9.13a18.19,18.19,0,0,0-14.48,2.51h0q4.73,1.36,1.67,5.9h0l-5.17.56a8.24,8.24,0,0,1-.3-3.11,18.35,18.35,0,0,0-4.5,12v19.65L418.2,378.09a18.87,18.87,0,0,0-1.26,2.4c-.12.28-.23.56-.33.85a18.3,18.3,0,0,0-.67,2.18c-.07.31-.14.62-.2.94a19.76,19.76,0,0,0-.3,2.64c0,.24,0,.48,0,.72V736.7a18.45,18.45,0,0,0,18.43,18.43H566.59A18.45,18.45,0,0,0,585,736.7V387.82C585,387.58,585,387.34,585,387.1Zm-16.94,23.51Zm-2.66,46.55c1.08,2.81-3.22.35,0,0ZM561.65,586.9l-.16.09C558.55,588.76,562.8,586.12,561.65,586.9ZM559.73,462c-3.53,4.55-6.19,4.51-8-.08Q555.82,455,559.73,462Zm.17,123.92c-3.17-.22,1.27,0,0,0Zm-5.39,93.49c5.29,0,8.29,8.56.81,9h0C549.12,688.8,547.81,679.43,554.51,679.43Zm-5.36-125.26Zm-1.44,44.44c3.23,2.81-1.3,2.16,0,0Zm-5.32-71.1c.6,2-1.75.54,0,0Zm-5.2-45.6Zm-8-145.69ZM529,318.8c.66,2.32-2.85-8.39,0,0Zm-2.67-16.15c2.24,1,.36,1.05,0,0Zm-2.18,13c.51-1.52,1.84.64,0,0Zm-11.57,35.11c2.21,1.23.31,1.19,0,0Zm.36,93.16q-.07,3.43-.16,6.89c.38-2.22-.09.55,0,0C512.09,454.74,500.12,443.6,512.93,443.92Zm-10.11-56.34c4.51,2.93-.92-.58,0,0Zm-.21,65c-1.26-.27,2.33.48,0,0,6.87,1.41-2.22,7.43-3.46,7.89Q495.51,453.2,502.61,452.61Zm-3.94-34.9,0,.09s0-.05,0-.08c.37,1.73-6.74,3.24-2.81-4.41l2.8,4.4C498.6,417.42,498.47,416.84,498.67,417.71Zm-4.44-141.92c-5-1.29,5.59,1.41,0,0Zm3.3-7.67-4.92-.06c.27.11.78.32,0,0-.2-.08-.13-.06,0,0C491.18,267.45,494.27,259.56,497.53,268.12Zm-4.14,65.23c5.35,2.76-4.89-2.46,0,0Zm-.25,149.39c2.24,1.65-3.26,4,0,0Zm-2.95-26.38c-2.09,4.92-5-1.89,0,0Zm-3.45-165.07h0l-.31.15Zm-63.1,181.83c2.27,3.4-2.67,2.2,0,0Zm2.43-41.28-.22.13h0l.22-.13c-.06,0-.05,0,.2-.13l-.2.13Zm1.42,35.69q3.81-6.21,7.95-.95Q432.65,472.76,427.49,467.53Zm15.63-1.3a5.47,5.47,0,0,1,.61.13c7.74,2-1.69,19.78-6.81,10.91Q436.22,470.22,443.12,466.23Zm-3.25,121.49q-4-1,0-4.09Q445.2,586.36,439.87,587.72Zm-1.3-61.09c-1.23-5.15,6.41-10,8.55-2.86-.48-1.61,1,3.37,0,0C448.93,529.71,440.12,533.14,438.57,526.63ZM452.52,456h0c0,.05,0,.06,0,0-.53,1.65-8.71-5.27,1.81-7.95-.6,2.63-1.2,5.25-1.79,7.88l.24-.81-.26.86,0-.05Zm.27,81.17c.76-6.37,11.58-6,11,.65.07-.61.12-1.1,0,0v0h0v0c-.15,1.56-.08.74,0,0v0C463.07,544.35,452,543.66,452.79,537.18Zm11.14,27.69a7,7,0,0,1,.13.78C449,577,461.34,549.74,463.93,564.87Zm1.36-223.29c0,11.08-16.79,15-17.19,2.87-.37-11.25,17.15-14.79,17.19-2.87C465.27,337.21,465.31,347.56,465.29,341.58Zm2-14.77a7.37,7.37,0,1,1,14.7.71c.25-4.13-.26,4.47,0,0C481.39,337.23,466.76,336.15,467.26,326.81Zm12,225-.06,0C475,554.2,480,551.4,479.24,551.84Zm-2.61-103.57c.85-5.77-.73,5.16,0,0C476.57,448.72,476.72,447.67,476.63,448.27Zm-4,95.12q-6-1.26-.85-4.78C473.86,540,474.13,541.63,472.59,543.39Zm6.68,199.52h0l-2.86-4.21c-3.84,1.73-.87-2.42.13-.17q4.29-4,7.13.08C484.29,741.71,482.83,743.15,479.27,742.91ZM486.17,361l.14,0c1.12.1.64.06-.14,0h0l-1.76-.17Zm7.11,390.65h0q-5.36-3.87,1.21-4.69Q498.41,750.38,493.28,751.68Zm1.5-85.12c1.26-2.48,2.6-2.17,4,.92Q494.88,672.07,494.78,666.56ZM501,518c-1.88,9.91-23-2.45-12.69-10.16,6.1-4.58,14,3.18,12.69,10.16C502.08,512.23,500.48,520.63,501,518Zm2.19,11.63c2.06-7.33,15-4.37,10.25,3.74l.08-.14.28-.46c-.08.14-.18.31-.28.46l-.1.18-.1.16,0-.07C509,540.55,501.32,536.18,503.16,529.64Zm8.28,165.62c-.21,0-.46,0-.79-.06C503.13,677.91,526.76,696.23,511.44,695.26Zm6.3-110.12h0l-3.44,3.76c2.57,3.34-2.15,1.41-.19-.09-3.25-2.17-3.79-4.49-1.58-6.95q4.32-2,5.21,3.28Zm2.83,128,0-.06C519.26,708.5,520.82,714,520.57,713.16ZM523,569.48q-2.53,6.1-4.85-.09,2.4-4.6,4.85.09C523,568.57,523.1,570.32,523,569.48Zm-.86-106.8c-6.12.09,6.42-.18,0,0Zm2-81.26v0c0,.23,0,.32,0,0-.5,5-9.55,4.23-8.92-1.12.72-6.25,9.36-3.54,8.92,1.09C524.23,380.83,524.36,379.46,524.17,381.42Zm2.65-24.18c4.41-3.75,10.85-.83,9.87,5.47.14-.9.38-2.38,0,0-.14.83-.09.53,0,0C535.5,370,518,364.78,526.82,357.24Zm3.9,59.43c2.88,2.45-2.3,3.67,0,0Zm-.51,50.58q-1.8,4.38-4.79.61Q526.93,463.9,530.21,467.25Zm5,241.68c-1.88,1.73-3.49,1.63-4.84-.28Q532.94,703.1,535.18,708.93Zm-8.11-172q5.31,1,.23,5C524.61,541.31,524.52,539.65,527.07,537Zm3.56,213.73.11.11-.15-.14-.13-.14.06.06c-5.86-5.82.18-12.3,6.11-9C543.29,745.27,537.41,757.21,530.63,750.68Zm7.15-49.34c.59.2,1.05.36,0,0h0c-1.51-.52-.7-.25,0,0h0c-6.13-2.16-2.89-12.78,3.22-10.5S544.11,703.48,537.78,701.34Zm10.67,40.79h0c-9.2-4.12,7.7-21.78,12.83-10C564.32,739.13,554.94,745,548.45,742.13Zm14-197.78q2.56-5.52,6.42-.73h0C569.63,549.63,564.48,545.85,562.44,544.35ZM479.9,584.27l.17.05C483.42,585.1,478.52,584,479.9,584.27Zm.58,1.91c2.12,2.37-.87-.92,0,0ZM466,616.44c-.16-1.19-.1-.73,0,0Zm32-30.83c-.35-4.28,2.44-.65,0,0Zm-45.78,54.64c1-1.87,1.63.84,0,0Zm23,35.7c8.26-5.79,14.75,17.79,2,16.14-7.56-1-7.82-12.06-2-16.14C470.49,679.33,477.49,674.43,475.31,676Zm6.55-9.85c-6.59,3.82-13.82-7.36-4.74-9.83l-.15,0-.53.14.53-.14.2-.06.18,0-.09,0C485.27,654.19,487.73,662.69,481.86,666.1Zm28.27-49.94h0l5.08-.29c.49-4.18,2.53.49.08.2.81,3.82-.42,5.85-3.72,6.08q-4.49-1.59-1.44-6Zm-14.72,7.54q6.07-2.62,3.41,3.44-4.92,1.62-3.41-3.44C494.83,624.39,496,623,495.41,623.7Zm-25.58,20.48q-3.13-4.41,3.32-3.74Q475.39,643.93,469.83,644.18Zm-20.18-30q-5.7,2.16-5.12-4h0C448.17,605.41,449.23,611.7,449.65,614.2ZM503.8,461.59l-.15.09C500.71,463.45,505,460.81,503.8,461.59Zm-1.75-1c-3.16-.22,1.27.05,0,0ZM491.3,428.86Zm-6.75-26.66c.6,2-1.76.54,0,0Zm-41.42-9.5c-1.88,9.91-23-2.45-12.69-10.16,6.1-4.58,14,3.18,12.69,10.16C444.23,386.92,442.63,395.32,443.13,392.7Zm2.19,11.63c2.05-7.33,15-4.37,10.25,3.73l.08-.13.28-.46c-.09.14-.18.31-.28.46s-.06.11-.11.18a1.12,1.12,0,0,1-.1.16l.05-.07C451.18,415.24,443.48,410.87,445.32,404.33Zm14.58,55.5c-.06.56,0,.28,0,0q-1.72,1.88-3.44,3.76c2.57,3.33-2.15,1.41-.2-.09-3.24-2.17-3.78-4.49-1.57-6.95q4.32-2,5.21,3.28Zm5.28-15.66q-2.52,6.1-4.84-.09,2.4-4.6,4.84.09C465.12,443.26,465.25,445,465.18,444.17Zm4.05-32.53q5.31,1,.23,5Q465.41,415.68,469.23,411.64ZM504.6,419q2.56-5.52,6.42-.74c-.26-2.05.22,1.76,0,0C511.79,424.32,506.64,420.54,504.6,419Zm72.85,5q-3.6,5.15-6-.76,4.32-4.48,6,.74h0C577.46,425.28,577.45,424.45,577.45,424Z" transform="translate(-109.84 -237.11)"/><path class="cls-7" d="M530.59,750.65l0,0-.11-.11Z" transform="translate(-109.84 -237.11)"/><polygon class="cls-8" points="324.02 499.59 456.75 499.59 456.75 300.09 324.02 300.09 324.02 499.59"/><polygon class="cls-8" points="324.02 299.98 456.75 299.98 456.75 173.79 324.02 173.79 324.02 299.98"/><polygon class="cls-8" points="324.02 173.79 456.75 173.79 456.75 150.71 324.02 150.71 324.02 173.79"/><polygon class="cls-8" points="390.38 43.32 324.02 150.71 456.75 150.71 390.38 43.32"/><path class="cls-8" d="M500.22,473.07V448.19" transform="translate(-109.84 -237.11)"/><path class="cls-8" d="M516.81,473.07H500.22" transform="translate(-109.84 -237.11)"/><path class="cls-8" d="M550,473.07a49.78,49.78,0,1,0-49.77,49.78A49.77,49.77,0,0,0,550,473.07Z" transform="translate(-109.84 -237.11)"/><path class="cls-8" d="M500.22,255.54v24.89" transform="translate(-109.84 -237.11)"/><circle class="cls-9" cx="441.37" cy="276.9" r="5.1"/><circle class="cls-9" cx="359.5" cy="133.21" r="5.1"/><circle class="cls-9" cx="430.17" cy="285.74" r="4.11"/><circle class="cls-9" cx="338.42" cy="190.3" r="4.11"/><circle class="cls-9" cx="427.01" cy="132.06" r="4.11"/><circle class="cls-9" cx="403.74" cy="96.33" r="4.11"/><path class="cls-9" d="M494.77,355.64a2.23,2.23,0,0,1-2.14-1.63l-7.17-25.68a2.23,2.23,0,0,1,4.29-1.19l7.17,25.68a2.22,2.22,0,0,1-1.55,2.74A2.47,2.47,0,0,1,494.77,355.64Z" transform="translate(-109.84 -237.11)"/><path class="cls-9" d="M486.23,353.14a2.2,2.2,0,0,1-1.08-.28,2.23,2.23,0,0,1-.86-3l13.09-23.61a2.23,2.23,0,1,1,3.89,2.17L488.18,352A2.24,2.24,0,0,1,486.23,353.14Z" transform="translate(-109.84 -237.11)"/><path class="cls-9" d="M500.09,345.41a2.17,2.17,0,0,1-.82-.16l-19-7.51a2.22,2.22,0,1,1,1.63-4.14l19.06,7.51a2.23,2.23,0,0,1-.82,4.3Z" transform="translate(-109.84 -237.11)"/><path class="cls-9" d="M450.44,511.06c-10.38,0-10.38,16.1,0,16.1S460.83,511.06,450.44,511.06Z" transform="translate(-109.84 -237.11)"/><path class="cls-9" d="M519,347c-12.71,0-12.71,19.72,0,19.72S531.72,347,519,347Z" transform="translate(-109.84 -237.11)"/><path class="cls-9" d="M470.61,704c-1-.12-2.61-.94-3.28-.53a19.76,19.76,0,0,1,2-2.17,59.85,59.85,0,0,0,5.52-6c4.7-6.47-2.87-11.64-6.69-15.45-2.92-2.92,5.35-10.44,6.3-13.86,1.79-6.43-4.55-8.59-9.65-9.18-4.53-.52-5.38,6.51-.86,7,4.33.49,4,.77,1.59,4a62.31,62.31,0,0,0-4.58,6.73c-3.67,6.79,3.86,11.22,7.52,15.22,1.93,2.12-6.92,9.49-8.15,12.21-2.83,6.26,5,8.45,9.41,8.95S475.14,704.51,470.61,704Z" transform="translate(-109.84 -237.11)"/><path class="cls-9" d="M461.58,570c1.56.93,2,1.75,2.44,1.41a13.62,13.62,0,0,1-2,1.56c-1.7,1.3-3.48,2.65-4.42,4.67-2.53,5.49,2,10.65,5.52,14.35,4,4.22-4,10.52-5,15-1.21,5.21,2.9,7.81,7.27,8.75s5-6.18.61-7.12c-2.14-.46,1.19-3.93,2.3-5.46a19,19,0,0,0,2.9-4.94c2-5.85-2.3-10-5.85-14-4.05-4.49,4.15-6.57,5.49-10.27,1.62-4.48-1.72-7.61-5.29-9.74C461.63,561.83,457.63,567.59,461.58,570Z" transform="translate(-109.84 -237.11)"/><path class="cls-9" d="M465.4,658.49c-2.76-3.66,1.24-4.09,4.16-5.35a13.17,13.17,0,0,0,6.6-5.56c3.09-5.45-.91-10.62-6-12.65-3.33-1.34-8.5-2.88-2.12-6,3.39-1.68,6.19-2.69,8.16-6.09,4.14-7.16-4.5-12.91-10.36-14.5-4.45-1.2-6,5.63-1.55,6.84,1.06.29,8.56,2.76,4.08,5.74a48,48,0,0,1-5.34,2.48c-2.73,1.36-3.91,3.77-4.79,6.54-1.62,5.1,1.82,8.79,6.31,10.59,1.95.78,7.44,1.33,4.61,4.57-1.74,2-5.51,2.78-7.85,3.92-5.62,2.76-5.54,8.25-2,13C462.14,665.65,468.19,662.21,465.4,658.49Z" transform="translate(-109.84 -237.11)"/><path class="cls-9" d="M539.41,570.67c-1,.12-2.61.94-3.28.54a18.65,18.65,0,0,0,2,2.16,59.76,59.76,0,0,1,5.52,6c4.7,6.48-2.87,11.65-6.69,15.46-2.92,2.92,5.35,10.44,6.3,13.86,1.8,6.42-4.54,8.59-9.64,9.18-4.54.52-5.39-6.51-.87-7,4.33-.5,4-.78,1.59-4a62.43,62.43,0,0,1-4.58-6.74c-3.67-6.78,3.86-11.21,7.52-15.22,1.94-2.12-6.92-9.49-8.15-12.2-2.83-6.27,5-8.46,9.41-9S543.94,570.17,539.41,570.67Z" transform="translate(-109.84 -237.11)"/><path class="cls-9" d="M530.38,704.72c1.56-.94,2-1.75,2.44-1.41a13.11,13.11,0,0,0-2-1.56c-1.7-1.31-3.48-2.66-4.41-4.68-2.54-5.49,2-10.64,5.51-14.34,4-4.22-4-10.53-5-15-1.21-5.21,2.9-7.81,7.27-8.75s5,6.18.61,7.13c-2.14.46,1.19,3.93,2.3,5.45a18.93,18.93,0,0,1,2.9,4.95c2,5.84-2.3,10-5.85,14-4,4.48,4.15,6.56,5.49,10.27,1.62,4.48-1.72,7.6-5.28,9.74C530.43,712.84,526.43,707.08,530.38,704.72Z" transform="translate(-109.84 -237.11)"/><path class="cls-9" d="M534.2,616.18c-2.75,3.67,1.24,4.09,4.16,5.36a13.16,13.16,0,0,1,6.61,5.55c3.08,5.45-.92,10.62-6,12.66-3.33,1.34-8.5,2.88-2.12,6,3.39,1.68,6.19,2.7,8.16,6.09,4.14,7.16-4.5,12.91-10.36,14.5-4.45,1.21-6-5.63-1.55-6.84,1.06-.28,8.56-2.75,4.08-5.73a48.05,48.05,0,0,0-5.34-2.49c-2.73-1.35-3.9-3.77-4.78-6.53-1.63-5.11,1.81-8.8,6.3-10.6,2-.77,7.44-1.32,4.61-4.57-1.74-2-5.51-2.77-7.85-3.92-5.62-2.76-5.53-8.24-2-13C530.94,609,537,612.46,534.2,616.18Z" transform="translate(-109.84 -237.11)"/><path class="cls-9" d="M498,704c1-.12,2.61-.94,3.29-.53a19.76,19.76,0,0,0-2-2.17,57.56,57.56,0,0,1-5.52-6c-4.7-6.47,2.87-11.64,6.68-15.45,2.93-2.92-5.34-10.44-6.3-13.86-1.79-6.43,4.55-8.59,9.65-9.18,4.54-.52,5.39,6.51.87,7-4.33.49-4,.77-1.59,4a62.31,62.31,0,0,1,4.58,6.73c3.67,6.79-3.86,11.22-7.52,15.22-1.94,2.12,6.92,9.49,8.15,12.21,2.83,6.26-5,8.45-9.41,8.95S493.45,704.51,498,704Z" transform="translate(-109.84 -237.11)"/><path class="cls-9" d="M507,570c-1.55.93-2,1.75-2.43,1.41a13.55,13.55,0,0,0,2,1.56c1.7,1.3,3.49,2.65,4.42,4.67,2.54,5.49-2,10.65-5.51,14.35-4,4.22,4,10.52,5,15,1.21,5.21-2.9,7.81-7.27,8.75s-5-6.18-.62-7.12c2.15-.46-1.18-3.93-2.29-5.46a18.71,18.71,0,0,1-2.9-4.94c-2-5.85,2.29-10,5.84-14,4.06-4.49-4.14-6.57-5.48-10.27-1.62-4.48,1.72-7.61,5.28-9.74C507,561.83,511,567.59,507,570Z" transform="translate(-109.84 -237.11)"/><path class="cls-9" d="M503.19,658.49c2.75-3.66-1.24-4.09-4.16-5.35a13.23,13.23,0,0,1-6.61-5.56c-3.08-5.45.92-10.62,6-12.65,3.33-1.34,8.5-2.88,2.12-6-3.39-1.68-6.19-2.69-8.15-6.09-4.14-7.16,4.5-12.91,10.36-14.5,4.45-1.2,6,5.63,1.54,6.84-1.05.29-8.55,2.76-4.07,5.74a47.17,47.17,0,0,0,5.34,2.48c2.73,1.36,3.9,3.77,4.78,6.54,1.62,5.1-1.81,8.79-6.31,10.59-1.94.78-7.44,1.33-4.6,4.57,1.74,2,5.51,2.78,7.84,3.92,5.63,2.76,5.54,8.25,2,13C506.45,665.65,500.4,662.21,503.19,658.49Z" transform="translate(-109.84 -237.11)"/><path class="cls-6" d="M789.49,675.27c-11.15-1.24-28.44,1.47-32.71-8.75-4.63-11.11-.9-33.28-1.83-45.52-.55-7.21-1.11-20.63-6.7-23-2.26-.93-14.33,9.58-18.41,13.78-11.55,11.9-23.57,23-33.1,31.93-1.31,1.22-5.57-7.32-7.86-9-8.08-5.79-41.3-28.08-43.46-8.83-.31,2.77,2.92,18.22,6.33,25.95h0c4.44,10,8.5,20.08,12.15,29.31-6.72,10.14-15,23.32-23.83,38.91-2.53,4.44-6.45,8.59-6.85,13.79-1,13.14,14.43,6.44,21.6,4.17,8.78-2.79,17.53-5.14,26.45-7,6-1.27,14.05-5.15,20.22-2.74,6.64,2.61,8.61,11,12.63,17.47,5,7.94,9.78,16.07,14.68,24.11,7.92,13,16.66,20.49,22.58,4,2.46-6.87,11.45-38.41,14.77-49.46,2.85-9.52,4.59-9.47,22.46-17.29,6.11-2.67,25.76-9.31,24.4-18.2C811.69,680.23,796.28,676,789.49,675.27Z" transform="translate(-109.84 -237.11)"/><path class="cls-10" d="M808.81,680c-2.45-3.18-19.7-9.66-23.76-11.39-9.72-4.13-15.55-3.72-25.17-8.11.13-12.54-.2-29.06-1.54-48.35-.5-7.1-1-20.33-6.41-22.58-2.19-.91-15.77,10-19.76,14.12-11.33,11.79-21.34,22.33-30.67,31.21-8.21-3.5-20.14-10.93-30.48-14.74-6.43-2.37-15.68-3.52-19.48.68-1.53,1.7,3.74,17,6.08,22.37,4.26,9.85,8.17,19.74,11.67,28.81-5.1,7.75-41.33,54.62-28.69,60.22,4.2,1.86,15.35-2.76,19.54-4.13,8.56-2.79,17.09-5.15,25.79-7.07,5.87-1.3,13.72-5.16,19.71-2.82,6.46,2.53,8.74,11.87,12.21,17.15,4.54,6.88,14.66,36.9,26,33.71,6.93-1.95,11.9-22.11,13.65-28.13,2.85-9.74,4.58-19.72,7-29.55,8.23-3.31,17.37-7.17,27.22-11.61C797.29,697.27,815.15,688.21,808.81,680Z" transform="translate(-109.84 -237.11)"/><path class="cls-11" d="M786.92,669.34c-10.86-4.35-21.34-9.09-30.47-13.25,0-11.45-.34-26.54-1.68-44.17-.5-6.49-1-18.57-6-20.66-2-.84-12.9,8.62-16.56,12.4-10.4,10.71-21.22,20.67-29.8,28.74-7.6-3.24-16.27-6.72-25.84-10.26-6-2.2-16.9-6.67-20.39-2.85-1.4,1.54,3.55,15.51,5.74,20.46,4,9,7.65,18.07,10.93,26.38-6,9.13-13.47,21-21.45,35-3.14,5.52-9.29,15.61-6.47,19.41,1.14,1.54,14.82-1.69,19.75-3.25,7.91-2.51,15.78-4.63,23.81-6.33,5.41-1.15,12.64-4.64,18.19-2.47,6,2.34,8.14,10.89,11.38,15.73,4.69,7,8.8,14.45,13.21,21.69,3.3,5.42,9.14,15.7,13.84,15.08,1.89-.25,5.71-13.78,6.74-18.85,2.91-14.41,6.48-28.37,9.23-39.57,7.58-3,16-6.46,25.08-10.46,6.1-2.69,17.59-7.33,18-12.5C804.3,677.56,791.73,671.26,786.92,669.34Z" transform="translate(-109.84 -237.11)"/><path class="cls-7" d="M678,632.17c-.13-.06,0,0,0,0Z" transform="translate(-109.84 -237.11)"/><path class="cls-7" d="M750.16,735.4c-.12-.18-.16.05,0,0Z" transform="translate(-109.84 -237.11)"/><path class="cls-7" d="M749.72,695.34s0-.14,0,0Z" transform="translate(-109.84 -237.11)"/><path class="cls-7" d="M747.22,739.49c-.11.11.1.11,0,0Z" transform="translate(-109.84 -237.11)"/><path class="cls-7" d="M753.33,639.15Z" transform="translate(-109.84 -237.11)"/><path class="cls-7" d="M679.7,713l-.11,0S679.68,713.06,679.7,713Z" transform="translate(-109.84 -237.11)"/><path class="cls-7" d="M667.3,627.79Z" transform="translate(-109.84 -237.11)"/><path class="cls-7" d="M664.66,643.89Z" transform="translate(-109.84 -237.11)"/><path class="cls-7" d="M736.78,714.08l.07,0Z" transform="translate(-109.84 -237.11)"/><path class="cls-7" d="M748,730.54Z" transform="translate(-109.84 -237.11)"/><path class="cls-7" d="M740.6,626.14Z" transform="translate(-109.84 -237.11)"/><path class="cls-7" d="M757.14,707.36c0,.28,0,.21,0,0Z" transform="translate(-109.84 -237.11)"/><path class="cls-7" d="M743.14,731.43Z" transform="translate(-109.84 -237.11)"/><path class="cls-7" d="M736.78,714.08h0Z" transform="translate(-109.84 -237.11)"/><path class="cls-7" d="M760.27,659.11c0-.09,0,0,0,0Z" transform="translate(-109.84 -237.11)"/><path class="cls-7" d="M736.73,714.07h0C736.41,714,736.59,714,736.73,714.07Z" transform="translate(-109.84 -237.11)"/><path class="cls-7" d="M777.22,691.05Z" transform="translate(-109.84 -237.11)"/><path class="cls-7" d="M743.85,748.28l-.06-.13Z" transform="translate(-109.84 -237.11)"/><path class="cls-7" d="M741.4,676.75Z" transform="translate(-109.84 -237.11)"/><path class="cls-7" d="M797,674.23a1,1,0,0,1,.14,1.43h0c-1.37,1.31-2.51-1.26-1.11-1.71a.87.87,0,0,1,.48,0,103.9,103.9,0,0,0-9.61-4.62q-4.51-1.82-8.91-3.68a1.07,1.07,0,0,1-.57.26c-.26-.3-.37-.52-.34-.65-7.31-3.12-14.31-6.29-20.65-9.18,0-3.76,0-7.91-.11-12.4-.54.9-2.34,0-1.78-1.05a1,1,0,0,1,1.75-.09q-.1-4.59-.31-9.65a1,1,0,0,1-.38-.5,3.65,3.65,0,0,1,.33-.59c-.09-2.14-.19-4.33-.32-6.58-.9,0-1.25-1.69-.17-1.93h.07q-.31-5.49-.76-11.38c-.48-6.32-1-17.95-5.66-20.47a1.5,1.5,0,0,1-.46.14,2.07,2.07,0,0,1-.08-.37c-.66-.1-1.94.53-3.52,1.57h0a.39.39,0,0,1-.5.33,102.22,102.22,0,0,0-12.38,10.54c-10.4,10.71-21.22,20.67-29.8,28.74-3.93-1.68-8.15-3.42-12.63-5.2-.29,0-.43,0-.44-.17-4-1.6-8.31-3.24-12.77-4.89-6-2.2-16.9-6.67-20.39-2.85-1.4,1.54,3.55,15.51,5.74,20.46l1.33,3c.73-.58,2.12-.18,1.52,1l.06-.12h0l-.13.25h0a1.11,1.11,0,0,0,.07-.13c-.28.54-.58.65-.86.56,3.22,7.49,6.21,14.91,8.94,21.81-6,9.13-13.47,21-21.45,35-3.14,5.52-9.29,15.61-6.47,19.41,1.14,1.54,14.82-1.69,19.75-3.25,1.76-.56,3.52-1.09,5.28-1.61l0,0v0q4.8-1.43,9.63-2.64c-.15,0-.36-.16,0-.22.1.1.12.16.1.19,2.9-.73,5.81-1.42,8.75-2,5.41-1.15,12.64-4.64,18.19-2.47a8.88,8.88,0,0,1,1.5.78,1.38,1.38,0,0,1-.07-.41c.62-.71.93-.6.92.34h0a1.18,1.18,0,0,1-.49.3c4.61,3.2,6.64,10.42,9.52,14.72,3.26,4.86,6.24,10,9.24,15a2.68,2.68,0,0,1,.76,1.29q1.59,2.7,3.21,5.37c1,1.69,2.3,3.84,3.71,6a2.31,2.31,0,0,1,.34-.1c-.36-.15.16.06,0,0,.29.33.33.61.14.83,3,4.51,6.58,8.76,9.65,8.35,1.29-.17,3.49-6.56,5.08-12.2-.41-.48-.5-1.28.33-1.55h.09c.54-2,1-3.83,1.24-5.11,1.42-7,3-14,4.57-20.54a10.6,10.6,0,0,1,.17-5,4.28,4.28,0,0,1,1.12-.39c1.18-4.87,2.33-9.46,3.37-13.67,7.58-3,16-6.46,25.08-10.46,6.1-2.69,17.59-7.33,18-12.5C804.22,678.57,800.91,676.37,797,674.23ZM661.14,618.68c.91-.35,2.07.65,1.54,1.6h0c-.14.26-.08.13,0,0C661.65,622.11,659.21,619.4,661.14,618.68ZM658,626.21c.55-.45.92-.32,1.12.39l-.09,0C658.69,626.71,657.36,627,658,626.21Zm.07,2.6c.21-.68.46-.76.77-.23h0c0,.14,0,.06,0,0C658.73,629.35,658.47,629.43,658.1,628.81Zm1.1.18c0,1.07,0-1.22,0,0Zm.93-2c.06.43-.38.21,0,0Zm2.06-2.71c.33.68-.62.54,0,0Zm-1.74,5.52,0,0C660.29,629.66,661.16,630.14,660.45,629.75Zm4-.78c-.5.41-.73.33-.69-.23.54-.83.77-.75.69.23C664.53,628.83,664.36,629.11,664.44,629Zm2.83-7c.15,1.19-1.22-.19,0,0Zm0,5.78Zm-.88,10.92c-.4-.47-1-2.64.38-1.86h0C667.73,637.37,666.8,638.28,666.42,638.71Zm86.91.44Zm-9.79,16.43c.37-.85.83-1.44.63.18,0-.24,0,.38,0,0-.19.35-.37.7-.56,1-.77,1-.5-.2-.11-1.14C742.58,656,743.06,654.78,743.54,655.58Zm5.77-34.18Zm1.53-6.51h0l-1.33.57C749,611.41,751.13,614.64,750.84,614.89Zm-6.22,1.83c0,.24-.31.31,0,0Zm-3.72,5.55c.72-1.26,2.85-.43,2.18,1,.06-.14.13-.28,0,0s-.07.14,0,0C742.43,624.68,740.18,623.52,740.9,622.27Zm-4.38,18c-.3-.55-.18-.75.36-.61h0c.07.1,0,.06,0,0C737.33,640.24,737.2,640.44,736.52,640.26Zm-4.13,10.22q.9.79-.36,1.44-1.1-1.26.36-1.44Zm6.28-15.91c-1.14.15.19,0,0,0Zm-3.6,5.6Zm5.53-14h0l.06,0,.21.09h0Zm10.78-29.49c.2.71-.73.4,0,0Zm-11.15,25.14c-4.36.73,1.58-3.4,0,0Zm1.13-9.13.42.24v0l1.12.7c0-.07-.07-.1,0,0h0c.83,1.06-3.18,3-1.14-.67l-.52-.31Zm-4.21,8.4c.11.27.06.13,0,0Zm7.68-21.86c.29.29-.32.35,0,0ZM739,614.77c-.51.92-1.06-.31-.88-.94A.88.88,0,0,1,739,614.77Zm6.8-21.08c.67,1-1,.62,0,0Zm-13.48,32c1.16-1.74,2.7.18,2.12,1.41.08-.17.22-.47,0,0-.07.15,0,.1,0,0C733.8,628.44,731.47,627,732.32,625.72Zm-4,8.71s0-.06.12-.09.1,0,0,0c.57.81.35,1.13-.67,1S727.91,634.67,728.36,634.43Zm-6.48,10.39c.13.06,1.75.14,1.12.47h0c-.89.66-1.26.5-1.12-.47v0ZM737.08,608c0,.26-.36.74,0,0ZM724.7,636.72l0-.05C724.63,636.57,725.06,637.45,724.7,636.72Zm-7.86,17.88Zm.88-1.81c-.26.48-.39-.41,0,0Zm15.6-41c.55-.43.95-.27,1.17.5C734.16,612.55,732.82,612.73,733.32,611.83ZM716.91,656.2c.3-.59-.27.56,0,0-.7,1.41-2.77.2-2.17-1.09S717.59,654.84,716.91,656.2Zm19.19-55.33,0,0v0C736.81,600,735.29,601.84,736.1,600.87Zm-3.37,5-.13.29C730.34,611.11,731.5,600.5,732.73,605.85Zm-3,5.32q-1,.84-1-.48Q729.52,610.1,729.74,611.17Zm-13.16,28.2Zm4.86-20.2c.66,1-1.21.56,0,0Zm-16,34.19Zm6.8-19.3c.58.79.42,1.31-.47,1.56C711.15,634.93,711.31,634.41,712.28,634.06Zm-8.06,19.79c-.16,0-.81,0,0,0Zm-.87,2.06c.06-.07.16-.18,0,0h0c-.8.59-1.28.35-1.43-.74C701.85,655.19,704.24,654.89,703.35,655.91Zm-8.37,19c0-.26,0,.35,0,0-.66.7-1.2.55-1.61-.45C694.2,673.81,694.74,674,695,674.89Zm-8.65,19.89Zm12.72-33.42c.35.33-.34.39,0,0Zm-5.31,11.54h0c.44.82.28,1.1-.47.84C692.83,673,693,672.67,693.74,672.9ZM701,651.77c.44,1-.41.3,0,0Zm-6.36,15.56s0-.05,0,0,0,.07,0,0c-.21.32-.41.65-.61,1C693.47,666.86,694.81,666.61,694.67,667.33Zm-4.13,7.77c.53.25-.39.42,0,0Zm2.77-15.64c.45,1-.21-.37,0,0Zm5.83-16.06c0-1,0,.16,0,0Zm-19,41.78c.24.46-.54,0,0,0Zm8.6-22.59Zm-9.65,23.64c-1.88.1-.91-1.44-.7-1.18h0C678.66,685.44,678.89,685.84,679.13,686.23Zm6.59-22.6c.18.56.35,1.11.53,1.66,0-.47,0,.41,0,0C686.28,665.59,682.85,666,685.72,663.63ZM683.51,671h0c.16.47,0,.72-.61.78-.35-.5-.15-.76.61-.78Zm6-17.25c.1.57-.79.54,0,0Zm6.27-15.33Zm-7.06,19.18c.21.34.42.68.62,1,.17-.46,0,.14,0,0C689.07,659.42,687.89,658.24,688.74,657.58ZM698,633.74Zm-5.7,4.88c.7-.2.82,0,.37.68,0,0,.07-.11,0,0h0C692,639.5,691.91,639.27,692.26,638.62Zm-.22,1.54c-1.19.11,1-.1,0,0Zm-9.6,21.68Zm3.15-10.93c.45.93-.52.28,0,0Zm6.32-17.86.48,1.32c0-.36,0,.14,0,0C692.39,634.51,689.29,634.86,691.91,633.05Zm-6.58,16.07h0c-.09.09-.55-.26.48-.9Q686.34,648.67,685.33,649.12Zm-14,35.76-.09.21C669.59,688.64,669.55,680.58,671.36,684.88ZM677.24,669c.47.87-.45.26,0,0Zm-8.37,21.52c.1.56-.8.55,0,0Zm-.37-5.06.68,1c0-.09,0-.33,0,0,0,0,0,0,0,0C669.12,687.87,667.33,685.24,668.5,685.5Zm-8.17,19.1c-.46.32-.42-.42,0,0Zm19.88-45.2c.26-.43-.09.14,0,0-.77.4-1.21.05-1.33-1C679.77,658.06,680.21,658.41,680.21,659.4ZM690,631.46Zm-10.89.09c.06.37-.67.15,0,0Zm-1.09.62c.39.21-1.12-.55,0,0Zm-7.09,17.7Zm4.56-9.25c-.91,1.33-1.44-.39-1.74-1.1.51-.07,2.76-.41,1.74,1.1Zm.89,2v.05h0C676.51,643.4,676.06,641.4,676.34,642.65Zm5.67-6.81c-.44,1.4-2,.24-1.68-.83.61-.25,2.1-.61,1.69.79,0-.12.07-.23,0,0S682,636,682,635.84Zm-7.36,24c-.34-.41,1.31,1.54,0,0ZM666,679.42c.51.92-.48.29,0,0Zm-1.14,5.92Zm23.7-56.23c-1-3.1.84-1.28.81-.94,0-.07,0-.14,0,0s0,.06,0,0Zm-8.85,23.68c1-1.37,2.4-.16,2,1.06.25-.68-.21.58,0,0C681.15,655.38,678.83,654.07,679.75,652.79Zm-11.1,29Zm-12.21,33.92c-.05.11,0,.06,0,0-.66.7-1.16.56-1.51-.4,1.05-.9,1.56-.77,1.51.39C656.47,715.6,656.49,715.55,656.44,715.66Zm.76,1.37Zm3.19-6c.08.28,0,.15,0,0Zm1.41-2h0c-.92.93-2.29-1.18-1.43-1.79s2.09,1.11,1.43,1.78C661.85,709,661.83,709,661.8,709.06Zm.65-2.63Zm15.75-38c-.81-.76-.68-1.11.37-1h0C679.15,668.17,679,668.51,678.2,668.44Zm1.64-1.12Zm-15,38.38h0c-.7.19-.82,0-.34-.7C665.11,704.84,665.22,705.07,664.87,705.7ZM675,682.58c.1.33,0,.15,0,0Zm4.47-6.13c-.22.48-.11.23,0,0-.83,1.74-3.64.89-2.84-.94s3.78-1.09,2.84.93Zm12.7-31.09,0,0h0C693,646.06,691.71,645,692.15,645.36Zm4.84-10a1.11,1.11,0,0,1,0,.33c.88-.29,1.87,1.48,1.08,2,.17-.11-.15.11,0,0-.77.52-2.07-1.15-1.4-1.81a1,1,0,0,1,.18-.13A.24.24,0,0,1,697,635.33Zm-33.14,80.53c-.82.4-.37-.43,0,0ZM680.57,675c.47.86-.46.28,0,0Zm-14,36.74c-.32-.77-.94-1.74.36-1.69h0C668.61,710.16,666.74,711.65,666.57,711.78ZM674,696.92c0,.45-.4,0,0,0Zm2.2-6.86a1.17,1.17,0,0,1,1.41,1.71h0c-.08.12-.06.08,0,0C676.24,693.63,674.79,690.78,676.23,690.06Zm-5.85,17.28c.46-.72.78-.64,1,.23C670.88,707.87,670.56,707.79,670.38,707.34Zm-2.11,7.31c.45.86-.45.23,0,0Zm4.41-7.6c-.77-.56-.7-.9.2-1C673.21,706.49,673.15,706.83,672.68,707.05Zm11.48-23.78h0c-.51.41-.8.29-.88-.36.61-.61.9-.49.88.36Zm3.63-7c.1.26.05.14,0,0Zm.16,2.56c2.29-.83,2.85,2.09,1.63,3.37h0C687.56,684.29,684.75,680,688,678.82Zm.39,5.68Zm-11.61,25c-4.18,1.63,1.18-3.56,0,0Zm-1.28,1.79h0l.75.93C674.23,712.48,674.55,711.25,675.45,711.31Zm6.16-9.19c-.87.3-1-.92,0,0Zm3.14-8.17c-.62-.63-.53-.91.28-.85-.21,0,.11,0,0,0C685.49,693.44,685.4,693.72,684.75,694Zm6-13.77q-.5-.75.36-1Q692.21,680.23,690.71,680.18Zm-7.27,24.94c-3.09.42-1.28-3.2,0,0ZM682.28,708c-.81.73-.8-.8,0,0Zm3.88-6.84h0c-.66.63-1.07.52-1.24-.34-.19,0-.25,0,0,0,0,0,0,0,0,0C685.4,700.79,686.77,700.67,686.16,701.16Zm14.55-33.42Zm12.13-28.06c-1.11.49-.55-.95,0,0Zm5-12.65c.55-.62.89-.51,1,.34,0,0,0-.08,0,0s0,.08,0,0C718.92,628,717.52,627.79,717.85,627Zm6.8-11.43c.28-1,1-1.3,2.12-.91l-1,1.41h0A.8.8,0,0,1,724.65,615.6Zm-33.14,83.64c-.33-.47-.26-.81.22-1C692.48,698.79,692.41,699.13,691.51,699.24Zm22.63-55.1c.55-1.47,3-1,2.41.63.22-.63-.25.76,0,0C716,646.34,713.59,645.64,714.14,644.14ZM710.43,658c.51-.06.19.16,0,0Zm-14.94,35.17c.84-.58,1.37-.3,1.61.84h0C696.74,694.05,694.43,694.31,695.49,693.17Zm14-28.51c.34,1.1-1.27,0,0,0Zm-18.95,43.22c0,.43-.41,0,0,0Zm1.36-2.2c.24.28.48.55.71.83,0-.07,0-.12,0,0s0,.11,0,0C693,707.67,690.06,707.93,691.93,705.68Zm19.26-48.21a1,1,0,0,1,1.4.4h0a1.94,1.94,0,1,1-1.4-.4Zm-2.05,14.86c.29.06.38.34,0,0Zm6.16-12.21a.55.55,0,0,1-.17.11c-.21.24-.41.42-.43.44h0q-1.11-1.49.48-1.74h0c1,0,.54.63.07,1.16ZM720,648.41c.78-2.59,4.34-1.36,3.73,1.14.06-.23.11-.46,0,0s-.06.23,0,0C723.15,651.83,719.27,650.74,720,648.41Zm-17.2,43.51c.41.87-.38.25,0,0Zm-.86,3.79c0-.05,0,0,0,0C701.82,694.9,702,696,701.92,695.71Zm1.81-.57c-.45,1.45-2.39.43-1.74-1.07.78-.33,2.2-.41,1.74,1.07Zm16.08-40.85c-.29-.75.05-1.26,1-1.51l.48,1.1c0-.06,0-.1,0,0,0,.33,0,.12,0,0C720.85,654.75,720.35,654.88,719.81,654.29Zm-13.45,35.28c-.65.83.77-1,0,0C706.43,689.46,706.3,689.64,706.36,689.57ZM703.62,697c.08.14.18.35,0,0ZM719,659.38c.33-1.54,3-.86,2.48.69.06-.15.1-.28,0,0s-.06.19,0,0A1.29,1.29,0,0,1,719,659.38Zm-2.84,12.86.18,1.11h0C715.94,674.1,714.3,673.3,716.19,672.24Zm1.32-3c.42.79-.43.29,0,0Zm-1.22.29c.75-.08-1.42.19,0,0Zm-4.5,11.3c.75-.48,1.3-.27,1.63.64C713.45,681.41,710.79,682.07,711.79,680.78Zm-5.16,17.88c.19.63-.31.3,0,0Zm17.44-41.2s0,0,0,0c-1.94,2.6-1.34-1.88-1.08-3.52h0c.19-.86.14-.65,0,0,2-.44,2,2.3,1.09,3.51C724.19,657.3,724.65,656.67,724.07,657.46Zm5.06-11.86c.74-.38,1-.19.85.57,0-.22,0,.07,0,0C729.51,646.46,729.23,646.26,729.13,645.6Zm1.45-3.47h0C730.84,641.63,730.36,642.58,730.58,642.13ZM708,699h0C707.32,698.65,708.63,699.27,708,699Zm22.69-59.54c1-1.44,4.08-.24,3.13,1.46h0C732.74,642.83,729.43,641.26,730.68,639.43Zm-7.52,28.82h0c.7.62.63.91-.23.88C722,668.32,722,668,723.16,668.25Zm-.84,2.08c.26.24.35.44.28.61l.13.06c.36.19,0,0-.13-.06a.66.66,0,0,1-.42.31C721.79,670.8,721.83,670.49,722.32,670.33ZM715.26,688c.36-.68-.25.49,0,0Zm2.06-4.26c.59.63-.56.6,0,0Zm4.24-5.49c-.13.27-.06.14,0,0-.88,1.76-1.8-.56-2-1.08.62-.11,2.88-.62,2.05,1.07C721.63,678.15,721.68,678,721.56,678.27Zm10.49-24.41c-.46.07-1.78.24-1.11-.41q.82-.57,1.26.39A.3.3,0,0,1,732.05,653.86Zm6.52-15.22q-1.23.92-1-.69,1-.57,1,.69Zm-8,20.84c0,.73-.43.11,0,0ZM748.26,618c-.23.43-.12.22,0,0-1,1.77-4.15.45-3.33-1.29s4.4-.74,3.34,1.27C748.37,617.8,748.46,617.62,748.26,618Zm-4,13.19c-.62.52-1,.32-1.14-.58.76-.37,1.13-.17,1.14.58ZM711.1,711.36Zm5.16-11.46c.64-.54,1.07-.3,1.28.72h0s0,0,0,0C718,701.63,715.47,701.22,716.26,699.9Zm4.46-6.14Zm10-23.8a1,1,0,0,1-1.4.6c-.38-2,1.48-1.63,1.4-.6,0-.05,0-.08,0,0Zm15-36.17ZM733,666.31c-.37-.56-.19-.75.54-.54-.22-.06.08,0,0,0C733.87,666.27,733.69,666.46,733,666.31Zm-19.31,49.4c-.05-1,.22-1.36.82-1,0,0-.12.39,0,0-.14.38-.27.77-.41,1.16A.34.34,0,0,1,713.69,715.71ZM734,669.65c-.44-.58-.28-.93.5-1-.09,0-.28-.16,0,0,0,0,0,0,0,0C735.23,669.34,735.06,669.69,734,669.65Zm5.7-11.71c.89-.62,1.38-.43,1.48.55.08-.22-.08.2,0,0C740.43,659.08,739.93,658.9,739.67,657.94Zm-12.23,33.2c0,1.19,0-1.27,0,0ZM736.08,669h0C734.86,668.89,736.43,669,736.08,669Zm-11.89,28.86c-.74-1.38,2-2.71,2.8-1.33-.1-.16-.19-.33,0,0h0C727.89,698.09,725,699.39,724.19,697.84Zm9.64-18.29c-.09-.69.19-1,.85-.85h0C735.93,679.15,733.83,679.54,733.83,679.55Zm10.76-23.69Zm-16.9,43.75c.38.62-.79,0,0,0Zm-8.81,23s.08.26.12.38v0c0-.13,0,0,0,0h0v0C718.93,722.76,718.89,722.65,718.88,722.62Zm29.79-72c-.36-.69-.15-.87.61-.52h0C749.59,650.69,749.39,650.86,748.67,650.6Zm-11.5,34.52c-.36-.68-.12-1,.72-.83h0l0,0,0,0C738.46,685.16,738.22,685.43,737.17,685.12Zm3.55-5.87c-1.54-1.46,0-3.82.68-2.5h0A1.8,1.8,0,0,1,740.72,679.25Zm5.41-12c-.3,1-.54-.14,0,0Zm14.14-8.17h0l0,0,0,0c-.55.47-.87.33-1-.4C760,658.06,760.27,658.19,760.27,659.11Zm-3.91,8.2c-.64-.42-.52-.75.37-1C757.21,666.7,757.09,667,756.36,667.31ZM739.64,707.5c.2.17.06.45,0,0Zm11.47-29.36c-.41.43-.74.34-1-.26C750.56,677.41,750.9,677.5,751.11,678.14Zm-5.61,8.31c.32-.28-.33.33,0,0Zm-13,28.47h0C733,714.94,731.34,714.91,732.47,714.92Zm-5.11,10.72c.83.89-.25-.24,0,0Zm20.9-51.87,0,0C749.18,674.76,748,673.48,748.26,673.77Zm-5.94,12.9ZM753,652.06c.48.4-.67.15,0,0Zm-10.52,27c-.26.38-.69-.24,0,0ZM726.23,721Zm3-6.88c.1.32,0,.18,0,0Zm5-8.46.24,1.45C733,707.27,733.12,706.42,734.22,705.67Zm-10.31,26.87c.09.29,0,.11,0,0Zm2.58-2.46q-1.29.55-1.38-.93c-.05,0,2.75-.09,1.38.93ZM740,699.61c.6-.92,2.87.21,2.29,1.28.06-.11.11-.2,0,0s-.09.15,0,0C741.47,702.36,738.94,701.21,740,699.61Zm-1.81,10.16c.27,0,.35.33,0,0Zm-2.27,2.84c.51.95-1.08.52,0,0Zm3.21-7.39Zm-10.84,28.93c.24-.38-.4.77,0,0Zm8.46-20.08c-.14,0-.32-.07,0,0h0l.07,0-.07,0h0c1.74.39-.44,1.72-.7,1.91C735.68,715.19,735,713.69,736.73,714.07Zm-6.81,18.8c0,1-1.06,0,0,0Zm29-55.47c.41-.12-1.26.51,0,0Zm-5.65,5.74s0,0,0,0c-.14.56,0,.11,0,0-.25.77-.76,1-1.53.6C751.92,683.39,753.76,681.39,753.31,683.14Zm-15.42,35.78c.61.32.12.19,0,0Zm12.62-30.4h0c-.09-.17-.06-.14,0,0,.8-.48,1.16-.24,1.07.71h0C751.55,690.08,750.76,688.89,750.51,688.52Zm-.79,6.82c.08-1.17,0,.4,0,0Zm-12.35,30.95c.56.91-.86.56,0,0Zm14.86-32.79c-.49-.78-.35-1.23.41-1.37h0C753.17,692.76,753,693.22,752.23,693.5ZM751,741.44c0,.43-.06-.87,0,0ZM773,676.87c.08-.49-.11.63,0,0-.19,1.09-2.09,1.36-1.92-.19C771.16,675.4,773.19,675.5,773,676.87Zm-21.17,31.69c0,.5-.57,0,0,0Zm11.61-31.22c.38.33-.37.44,0,0Zm-3.61,8.35c.54,1-1.23.25,0,0Zm-9.1,26.7h0a1.58,1.58,0,1,1-2.84-1.39C748.76,709.2,751.56,710.66,750.68,712.39Zm7-26.58c-.81.77-.82-.8,0,0Zm-6.56,15.77c.25.79-.76.16,0,0Zm-15.62,46.81c.06.51-.87.26,0,0Zm7.65-16.9-.09.17v0s.05-.09.09-.17c-.94,1.87-4.19.32-3.38-1.58a1.88,1.88,0,1,1,3.38,1.58l0-.06c.23-.46.11-.23,0,0Zm24.3-59.74c-.3-.46-.22-.78.22-1C768.35,671.27,768.28,671.59,767.41,671.75Zm3.48-1.25c-.64,1.17-2.78.24-2.14-1s2.79-.2,2.14,1Zm-33.32,83.25c-.11.49-1.67,0-.17-1,.05.34.11.68.17,1Zm17.3-41.32c.69.82-.83.72,0,0Zm2.27-5.07c0,.21,0,.28,0,0ZM748,730.54Zm15.29-39.69c.75-.28,1.22-.07,1.4.61C764,691.9,763.5,691.7,763.29,690.85Zm-14.36,39.49c-.8.86.81-.89,0,0Zm-5.14,17.81.06.13,0,0h0l0,0Zm-2.62,8.52v0h0C740.42,757.58,741.92,755.77,741.17,756.67Zm10.51-24.12c.34.62-.8,0,0,0Zm-1.52,2.85c-1,.31-.74-1.14,0,0Zm-2.94,4.09c.73.8-.8.76,0,0ZM745,744.7c-.47-.34.26.18,0,0Zm9.5-26.13s0,0,0,0h0c-.43.53-.78.46-1-.23.53-.5.88-.42,1,.23C754.53,718.57,754.53,718.56,754.53,718.57Zm12-31.2a2.55,2.55,0,0,1,2.13-1.78c.06,0,.1.11.15.16C770,687.14,766.8,688.83,766.51,687.37Zm3.3-2.26c-.25,0,.23,0,0,0l.85.84C768.83,686.49,768.8,685,769.81,685.11Zm-1.46,7.36c.46.68-.62.63,0,0Zm3.24-4.58c-.31-.33.79.76,0,0Zm7.13-14.55c-.55.38-.86.23-.94-.45.66-.82,1-.66.94.45C778.74,673.07,778.72,673.43,778.72,673.34Zm1.63,4.88Zm-3.13,12.83Zm12.31-10.69c.88.86.75,1.23-.38,1.11C788.64,680.77,788.77,680.4,789.53,680.36Zm-3.31,4.71Zm3.83-12.16a1.26,1.26,0,0,1-1.73.57c-.74-2.19,2.1-2,1.73-.57C790.16,672.46,789.9,673.46,790.05,672.91ZM784,690.35c-.14-.07.24.14,0,0l.63.81C782.75,691.8,783.49,690.07,784,690.35Zm4.64-5.23c-.06.4-3.54-.24-.17-1.64.06.54.12,1.09.17,1.64C788.7,684.68,788.58,685.5,788.63,685.12Zm1.13,2.17c.31,0,.42.39,0,0Z" transform="translate(-109.84 -237.11)"/><path class="cls-7" d="M741.17,756.68h0C741.22,756.62,741.19,756.65,741.17,756.68Z" transform="translate(-109.84 -237.11)"/><path class="cls-7" d="M741.16,756.69v0h0Z" transform="translate(-109.84 -237.11)"/><path class="cls-7" d="M743.87,748.31Z" transform="translate(-109.84 -237.11)"/><polygon class="cls-7" points="626.9 476.97 626.9 476.97 626.9 476.97 626.9 476.97"/><path class="cls-7" d="M714.7,660.67Z" transform="translate(-109.84 -237.11)"/><path class="cls-7" d="M719,723c0,.09,0,.07,0,0Z" transform="translate(-109.84 -237.11)"/><path class="cls-7" d="M715.19,658.93Z" transform="translate(-109.84 -237.11)"/><path class="cls-7" d="M715.18,658.93h0Z" transform="translate(-109.84 -237.11)"/><polygon class="cls-7" points="579.57 391.06 579.57 391.06 579.57 391.06 579.57 391.06"/><path class="cls-7" d="M740.87,626.25h0Z" transform="translate(-109.84 -237.11)"/><path class="cls-7" d="M689.41,628.17h0C689.42,628,689.42,628.1,689.41,628.17Z" transform="translate(-109.84 -237.11)"/><path class="cls-7" d="M689.41,628.17h0C689.4,628.23,689.4,628.29,689.41,628.17Z" transform="translate(-109.84 -237.11)"/><path class="cls-7" d="M711.1,711.36Z" transform="translate(-109.84 -237.11)"/><path class="cls-7" d="M734.68,678.7Z" transform="translate(-109.84 -237.11)"/><path class="cls-7" d="M719,723c0-.12-.1-.33-.12-.38S718.93,722.76,719,723Z" transform="translate(-109.84 -237.11)"/><path class="cls-7" d="M734.7,678.7Z" transform="translate(-109.84 -237.11)"/><path class="cls-7" d="M717.54,700.63h0S717.56,700.68,717.54,700.63Z" transform="translate(-109.84 -237.11)"/><path class="cls-7" d="M736,669Z" transform="translate(-109.84 -237.11)"/><polygon class="cls-7" points="624.6 390.03 624.6 390.03 624.6 390.02 624.6 390.03"/><path class="cls-7" d="M682,635.8v0Z" transform="translate(-109.84 -237.11)"/><path class="cls-7" d="M751.68,732.55c-.09,0,0,.07,0,0Z" transform="translate(-109.84 -237.11)"/><polygon class="cls-7" points="627.73 516.65 627.73 516.64 627.73 516.64 627.73 516.65"/><polygon class="cls-7" points="559.34 449.36 559.34 449.36 559.34 449.36 559.34 449.36"/><path class="cls-7" d="M737.37,726.29c-.12.08.08.13,0,0Z" transform="translate(-109.84 -237.11)"/><path class="cls-7" d="M676.34,642.65l0,.06h0Z" transform="translate(-109.84 -237.11)"/><path class="cls-7" d="M679.07,631.55c-.11,0,0,.06,0,0Z" transform="translate(-109.84 -237.11)"/><path class="cls-7" d="M679.45,676.46h0Z" transform="translate(-109.84 -237.11)"/><polygon class="cls-7" points="633.08 376.47 633.08 376.47 633.08 376.47 633.08 376.47"/><path class="cls-7" d="M751.58,689.24h0C751.59,689,751.58,689.21,751.58,689.24Z" transform="translate(-109.84 -237.11)"/><polygon class="cls-7" points="643.48 446.04 643.48 446.04 643.48 446.04 643.48 446.04"/><path class="cls-7" d="M763.39,677.34c0,.06.06,0,0,0Z" transform="translate(-109.84 -237.11)"/><polygon class="cls-7" points="633.27 494.38 633.27 494.38 633.27 494.38 633.27 494.38"/><path class="cls-7" d="M678.57,667.41c.13.24,0,0,0,0Z" transform="translate(-109.84 -237.11)"/><path class="cls-7" d="M767.63,670.77c-.12.1.14.17,0,0Z" transform="translate(-109.84 -237.11)"/><path class="cls-7" d="M735.9,712.61c-.13.07.07.13,0,0Z" transform="translate(-109.84 -237.11)"/><polygon class="cls-7" points="642.8 455.02 642.8 455.02 642.8 455.02 642.8 455.02"/><path class="cls-7" d="M759.78,685.69c-.15,0,.06.13,0,0Z" transform="translate(-109.84 -237.11)"/><path class="cls-7" d="M751.08,701.58c-.12,0,0,.13,0,0Z" transform="translate(-109.84 -237.11)"/><path class="cls-7" d="M664.9,685.34Z" transform="translate(-109.84 -237.11)"/><path class="cls-7" d="M660.45,629.75l0,0Z" transform="translate(-109.84 -237.11)"/><path class="cls-7" d="M737.89,718.92c0,.06.1.06,0,0Z" transform="translate(-109.84 -237.11)"/><polygon class="cls-7" points="620.9 432.86 620.9 432.85 620.9 432.85 620.9 432.86"/><path class="cls-7" d="M759,677.4c-.14.06,0,0,0,0Z" transform="translate(-109.84 -237.11)"/><path class="cls-7" d="M768.79,685.75s-.09-.11-.15-.16C768.1,685.93,769,686.11,768.79,685.75Z" transform="translate(-109.84 -237.11)"/><path class="cls-7" d="M741.26,612.6l.1.06Z" transform="translate(-109.84 -237.11)"/><path class="cls-7" d="M789.76,687.29c.08.08.08,0,0,0Z" transform="translate(-109.84 -237.11)"/><polygon class="cls-7" points="551.97 471.95 551.97 471.95 551.97 471.95 551.97 471.95"/><path class="cls-7" d="M751.78,708.56c-.08,0,0,.07,0,0Z" transform="translate(-109.84 -237.11)"/><polygon class="cls-7" points="546.61 478.55 546.61 478.55 546.61 478.55 546.61 478.55"/><polygon class="cls-7" points="614.23 420.35 614.23 420.35 614.23 420.35 614.23 420.35"/><path class="cls-7" d="M764.69,691.46c-.1-.2-.29.07,0,0Z" transform="translate(-109.84 -237.11)"/><path class="cls-7" d="M667.27,622c-.15,0,0,.15,0,0Z" transform="translate(-109.84 -237.11)"/><path class="cls-7" d="M666,679.42c-.06,0,.08.13,0,0Z" transform="translate(-109.84 -237.11)"/><path class="cls-7" d="M660.45,629.75Z" transform="translate(-109.84 -237.11)"/><path class="cls-7" d="M717.53,700.61c0-.09-.08-.21,0,0Z" transform="translate(-109.84 -237.11)"/><path class="cls-7" d="M717.54,700.62h0v0Z" transform="translate(-109.84 -237.11)"/><polygon class="cls-7" points="624.63 431.5 624.63 431.5 624.63 431.5 624.63 431.5"/><polygon class="cls-7" points="552.84 383.18 552.84 383.17 552.84 383.18 552.84 383.18"/><path class="cls-7" d="M664.87,705.7s.07-.16,0,0Z" transform="translate(-109.84 -237.11)"/><path class="cls-7" d="M658.87,628.58h0Z" transform="translate(-109.84 -237.11)"/><path class="cls-7" d="M745.76,633.79s-.07,0,0,0Z" transform="translate(-109.84 -237.11)"/><path class="cls-7" d="M745,744.7Z" transform="translate(-109.84 -237.11)"/><path class="cls-7" d="M751,741.44c0-.09,0,0,0,0Z" transform="translate(-109.84 -237.11)"/><polygon class="cls-7" points="551.97 471.95 551.97 471.95 551.97 471.95 551.97 471.95"/><path class="cls-7" d="M659.06,626.63l.09,0C659,626.37,658.91,626.63,659.06,626.63Z" transform="translate(-109.84 -237.11)"/><path class="cls-7" d="M659.2,629Z" transform="translate(-109.84 -237.11)"/><path class="cls-7" d="M771.59,687.89c.09.1,0,0,0,0Z" transform="translate(-109.84 -237.11)"/><path class="cls-7" d="M735.46,748.39c-.12,0,0,.07,0,0Z" transform="translate(-109.84 -237.11)"/><path class="cls-7" d="M757.64,685.81c-.11-.11-.11.11,0,0Z" transform="translate(-109.84 -237.11)"/><path class="cls-7" d="M674.65,659.87c.16.19,0,0,0,0Z" transform="translate(-109.84 -237.11)"/><path class="cls-7" d="M754.87,712.43c-.12.1.1.11,0,0Z" transform="translate(-109.84 -237.11)"/><path class="cls-7" d="M662.19,624.23c-.1.08.06.12,0,0Z" transform="translate(-109.84 -237.11)"/><path class="cls-7" d="M748.93,730.34Z" transform="translate(-109.84 -237.11)"/><path class="cls-7" d="M768.35,692.47c-.1.1.09.12,0,0Z" transform="translate(-109.84 -237.11)"/><path class="cls-7" d="M660.33,704.6c-.06-.06-.07,0,0,0Z" transform="translate(-109.84 -237.11)"/><path class="cls-7" d="M728.36,634.43c-.06.12.21.21.12-.07Z" transform="translate(-109.84 -237.11)"/><path class="cls-7" d="M697.06,694h0C696.8,693.53,696.55,694.1,697.06,694Z" transform="translate(-109.84 -237.11)"/><polygon class="cls-7" points="609.03 390.26 609.03 390.26 609.03 390.26 609.03 390.26"/><path class="cls-7" d="M739,614.77c-.06-.19-.08.15,0,0Z" transform="translate(-109.84 -237.11)"/><polygon class="cls-7" points="631.56 439.64 631.57 439.65 631.56 439.64 631.56 439.64"/><path class="cls-7" d="M728.48,634.36h0v0Z" transform="translate(-109.84 -237.11)"/><path class="cls-7" d="M712.84,639.68c-.07-.13-.13.06,0,0Z" transform="translate(-109.84 -237.11)"/><path class="cls-7" d="M691.73,698.22c-.14.11.14.2,0,0Z" transform="translate(-109.84 -237.11)"/><path class="cls-7" d="M723,645.29Z" transform="translate(-109.84 -237.11)"/><path class="cls-7" d="M737.08,608c-.06.12,0,.08,0,0Z" transform="translate(-109.84 -237.11)"/><path class="cls-7" d="M724.7,636.72s0-.06,0-.05Z" transform="translate(-109.84 -237.11)"/><path class="cls-7" d="M689.53,653.73c-.11.08,0,.08,0,0Z" transform="translate(-109.84 -237.11)"/><polygon class="cls-7" points="593.51 418.81 593.51 418.81 593.5 418.81 593.51 418.81"/><path class="cls-7" d="M699.05,661.36c0,.06.05,0,0,0Z" transform="translate(-109.84 -237.11)"/><path class="cls-7" d="M740.23,621.79c.35-.76-.26,0,0,0Z" transform="translate(-109.84 -237.11)"/><path class="cls-7" d="M682.28,708c-.12-.12-.12.1,0,0Z" transform="translate(-109.84 -237.11)"/><path class="cls-7" d="M748.31,673.81l0,0S748.31,673.82,748.31,673.81Z" transform="translate(-109.84 -237.11)"/><path class="cls-7" d="M679.6,712.84c-.06,0,0,0,0,0Z" transform="translate(-109.84 -237.11)"/><path class="cls-7" d="M727.69,699.61c-.08,0,0,.07,0,0Z" transform="translate(-109.84 -237.11)"/><path class="cls-7" d="M692,640.16Z" transform="translate(-109.84 -237.11)"/><polygon class="cls-7" points="632.43 463.79 632.43 463.79 632.43 463.79 632.43 463.79"/><path class="cls-7" d="M732.47,714.92h0Z" transform="translate(-109.84 -237.11)"/><path class="cls-7" d="M727.36,725.64s.09.11,0,0Z" transform="translate(-109.84 -237.11)"/><path class="cls-7" d="M742.52,679.08c-.11,0,0,.06,0,0Z" transform="translate(-109.84 -237.11)"/><path class="cls-7" d="M692.62,639.32v0Z" transform="translate(-109.84 -237.11)"/><path class="cls-7" d="M742.32,686.67Z" transform="translate(-109.84 -237.11)"/><path class="cls-7" d="M753,652.06c-.08,0,.05.05,0,0Z" transform="translate(-109.84 -237.11)"/><path class="cls-7" d="M749.29,650.08h0S749.11,650,749.29,650.08Z" transform="translate(-109.84 -237.11)"/><path class="cls-7" d="M686.15,701.16h0S685.94,701.32,686.15,701.16Z" transform="translate(-109.84 -237.11)"/><path class="cls-7" d="M734.46,707.12c-.06-.38-.24,0,0,0Z" transform="translate(-109.84 -237.11)"/><path class="cls-7" d="M748.26,618h0v0Z" transform="translate(-109.84 -237.11)"/><path class="cls-7" d="M729.74,611.17c-.17-.28-.29.13,0,0Z" transform="translate(-109.84 -237.11)"/><polygon class="cls-7" points="611.47 416.78 611.47 416.78 611.47 416.77 611.47 416.78"/><path class="cls-7" d="M721.44,619.17c-.16.08.08.12,0,0Z" transform="translate(-109.84 -237.11)"/><path class="cls-7" d="M732.05,653.86l.15,0C732,653.62,731.92,653.83,732.05,653.86Z" transform="translate(-109.84 -237.11)"/><path class="cls-7" d="M708,699h0Z" transform="translate(-109.84 -237.11)"/><path class="cls-7" d="M712.28,634.06c-.43.35.16.51,0,0Z" transform="translate(-109.84 -237.11)"/><path class="cls-7" d="M730.61,659.48c-.07,0,0,.13,0,0Z" transform="translate(-109.84 -237.11)"/><path class="cls-7" d="M736.88,639.65l0,0v0Z" transform="translate(-109.84 -237.11)"/><path class="cls-7" d="M717.51,669.19c-.06,0,.06.11,0,0Z" transform="translate(-109.84 -237.11)"/><path class="cls-7" d="M709.52,664.66c-.15,0,0,.14,0,0Z" transform="translate(-109.84 -237.11)"/><path class="cls-7" d="M738.67,634.57Z" transform="translate(-109.84 -237.11)"/><path class="cls-7" d="M706.63,698.66c0,.05,0,.11,0,0Z" transform="translate(-109.84 -237.11)"/><path class="cls-7" d="M730.59,642.12s0,0,0,0Z" transform="translate(-109.84 -237.11)"/><path class="cls-7" d="M721.51,660.09h0Z" transform="translate(-109.84 -237.11)"/><path class="cls-7" d="M716.29,669.48c-.15,0,.05,0,0,0Z" transform="translate(-109.84 -237.11)"/><path class="cls-7" d="M746.13,667.28c-.08,0,0,.14,0,0Z" transform="translate(-109.84 -237.11)"/><path class="cls-7" d="M713.42,681.42c-.35-.42-.52.17,0,0Z" transform="translate(-109.84 -237.11)"/><path class="cls-7" d="M712.67,658Z" transform="translate(-109.84 -237.11)"/><path class="cls-7" d="M712.59,657.87l.08.11-.08-.11Z" transform="translate(-109.84 -237.11)"/><polygon class="cls-7" points="633.24 386.19 633.24 386.19 633.24 386.19 633.24 386.19"/><path class="cls-7" d="M734.49,612.33c-.18-.26-.24.16,0,0Z" transform="translate(-109.84 -237.11)"/><path class="cls-7" d="M683.44,705.12c-.25-.63-.62.09,0,0Z" transform="translate(-109.84 -237.11)"/><path class="cls-7" d="M680.57,675c-.07,0,.06.12,0,0Z" transform="translate(-109.84 -237.11)"/><path class="cls-7" d="M717.72,652.79s0,.05,0,0Z" transform="translate(-109.84 -237.11)"/><polygon class="cls-7" points="582.81 469.4 582.81 469.4 582.81 469.4 582.81 469.4"/><path class="cls-7" d="M690.57,707.88c-.06,0,0,.06,0,0Z" transform="translate(-109.84 -237.11)"/><polygon class="cls-7" points="573.67 433.88 573.67 433.88 573.67 433.88 573.67 433.88"/><path class="cls-7" d="M709.14,672.33c.1.09.12,0,0,0Z" transform="translate(-109.84 -237.11)"/><path class="cls-7" d="M702.78,691.92c-.07,0,.06.12,0,0Z" transform="translate(-109.84 -237.11)"/><path class="cls-7" d="M715.23,660.13s0,0,.07,0l0,0Z" transform="translate(-109.84 -237.11)"/><polygon class="cls-7" points="613.87 412.44 613.87 412.44 613.88 412.44 613.87 412.44"/><polygon class="cls-7" points="605.34 421.82 605.34 421.82 605.34 421.82 605.34 421.82"/><path class="cls-7" d="M732.6,606.14c0-.09.09-.18.13-.29S732.38,606.59,732.6,606.14Z" transform="translate(-109.84 -237.11)"/><path class="cls-7" d="M668.27,714.65c-.06,0,.06.11,0,0Z" transform="translate(-109.84 -237.11)"/><polygon class="cls-7" points="611.73 441.17 611.73 441.16 611.72 441.17 611.73 441.17"/><path class="cls-7" d="M692.15,645.36Z" transform="translate(-109.84 -237.11)"/><path class="cls-7" d="M697,635.33c-.07,0,0,.13,0,0Z" transform="translate(-109.84 -237.11)"/><path class="cls-7" d="M756.73,666.35Z" transform="translate(-109.84 -237.11)"/><path class="cls-7" d="M735.07,640.17Z" transform="translate(-109.84 -237.11)"/><path class="cls-7" d="M663.85,715.86c-.05-.06-.12.06,0,0Z" transform="translate(-109.84 -237.11)"/><path class="cls-7" d="M740.66,626.16Z" transform="translate(-109.84 -237.11)"/><path class="cls-7" d="M671.33,707.57c-.11-.2-.22.06,0,0Z" transform="translate(-109.84 -237.11)"/><path class="cls-7" d="M693.31,659.46Z" transform="translate(-109.84 -237.11)"/><path class="cls-7" d="M677.24,669c-.07,0,.07.12,0,0Z" transform="translate(-109.84 -237.11)"/><path class="cls-7" d="M674,696.92c-.06,0,0,.06,0,0Z" transform="translate(-109.84 -237.11)"/><polygon class="cls-7" points="567.81 454.66 567.81 454.66 567.8 454.67 567.81 454.66"/><path class="cls-7" d="M728.27,734.15Z" transform="translate(-109.84 -237.11)"/><path class="cls-7" d="M717.32,683.76c-.09.1.1.11,0,0Z" transform="translate(-109.84 -237.11)"/><path class="cls-7" d="M668.87,690.56c-.12.08,0,.08,0,0Z" transform="translate(-109.84 -237.11)"/><polygon class="cls-7" points="617.15 459.41 617.15 459.41 617.15 459.41 617.15 459.41"/><path class="cls-7" d="M739.64,707.5c0,.09.05,0,0,0Z" transform="translate(-109.84 -237.11)"/><path class="cls-7" d="M729.92,732.87c-.16,0,0,.14,0,0Z" transform="translate(-109.84 -237.11)"/><path class="cls-7" d="M680.18,685.18c-.07,0,0,.06,0,0Z" transform="translate(-109.84 -237.11)"/><path class="cls-7" d="M743.51,655.65l0,0S743.47,655.65,743.51,655.65Z" transform="translate(-109.84 -237.11)"/><path class="cls-7" d="M699.14,643.4s0-.13,0,0Z" transform="translate(-109.84 -237.11)"/><path class="cls-7" d="M722.73,671Z" transform="translate(-109.84 -237.11)"/><path class="cls-7" d="M692.15,645.36l0,0h0Z" transform="translate(-109.84 -237.11)"/><path class="cls-7" d="M722.32,670.33c-.13.08.1.19,0,0Z" transform="translate(-109.84 -237.11)"/><path class="cls-7" d="M715.26,688c0-.06,0,.05,0,0Z" transform="translate(-109.84 -237.11)"/><path class="cls-7" d="M751.11,678.14c-.14-.2-.22.13,0,0Z" transform="translate(-109.84 -237.11)"/><path class="cls-7" d="M672.88,706c-.21.09.06.23,0,0Z" transform="translate(-109.84 -237.11)"/><path class="cls-7" d="M685.33,649.12c.19-.2,0,0,0,0Z" transform="translate(-109.84 -237.11)"/><path class="cls-7" d="M694.67,667.34h0Z" transform="translate(-109.84 -237.11)"/><path class="cls-7" d="M691.07,679.13c-.18.13.14.24,0,0Z" transform="translate(-109.84 -237.11)"/><path class="cls-7" d="M693.74,672.9Z" transform="translate(-109.84 -237.11)"/><path class="cls-7" d="M685.59,650.91c-.07,0,.06.12,0,0Z" transform="translate(-109.84 -237.11)"/><path class="cls-7" d="M701,651.77c-.06,0,.07.14,0,0Z" transform="translate(-109.84 -237.11)"/><path class="cls-7" d="M671.27,685.09c0-.07.06-.13.09-.21S671.11,685.4,671.27,685.09Z" transform="translate(-109.84 -237.11)"/><path class="cls-7" d="M745.5,686.45Z" transform="translate(-109.84 -237.11)"/><polygon class="cls-7" points="624.85 441.59 624.85 441.59 624.85 441.59 624.85 441.59"/><path class="cls-7" d="M690.54,675.1s.06,0,0,0Z" transform="translate(-109.84 -237.11)"/><path class="cls-7" d="M681.61,702.12c-.19-.18-.23.08,0,0Z" transform="translate(-109.84 -237.11)"/><polygon class="cls-7" points="574.32 446.16 574.32 446.16 574.32 446.16 574.32 446.16"/><path class="cls-7" d="M676.73,709.52c.24-.71-.22.09,0,0Z" transform="translate(-109.84 -237.11)"/><path class="cls-6" d="M296.82,662.68c-6.59,5.64-14.19,16.83-22.21,13.83-8.72-3.25-19.25-17.06-26.65-23-4.36-3.5-12.23-10.27-16.5-8.34-1.72.78-2.16,13.14-1.94,17.66.61,12.8.51,25.43.53,35.54,0,1.38-7.08-.73-9.21-.3-7.53,1.5-37.65,8.47-27.93,19.86,1.4,1.64,11.82,8,18,10.13h0c8,2.79,15.82,5.8,22.95,8.62,2.18,9.15,5.26,20.76,9.37,34,1.17,3.77,1.44,8.17,4.17,11.15,6.87,7.51,11.25-4.75,13.76-10,3.06-6.42,6.35-12.6,10-18.63,2.46-4.07,4.52-10.65,9.14-12.86,5-2.37,10.77,1,16.53,2.1,7.1,1.39,14.23,3,21.35,4.45,11.52,2.39,20.36,1.42,14.16-10.65-2.58-5-15.63-26.74-20.11-34.45-3.86-6.64-2.92-7.59,2.11-21.8,1.72-4.87,8.34-19.46,2.61-23.39S300.83,659.24,296.82,662.68Z" transform="translate(-109.84 -237.11)"/><path class="cls-10" d="M307.7,655.08c-3-.29-15.41,5.85-18.44,7.19-7.26,3.21-10,6.61-17.37,9.63-6.81-6.5-16-14.8-27.3-24-4.15-3.38-11.65-9.91-15.67-8.08-1.63.73-2.64,13.76-2.41,18.08.66,12.26,1.3,23.16,1.38,32.84-6.13,2.71-16.33,5.43-23.73,9.15-4.6,2.31-10,6.79-9.62,11,.14,1.71,11.22,6.65,15.38,8.14,7.59,2.72,15,5.66,21.79,8.39,1.63,6.78,8.74,50.7,18.3,46.64,3.18-1.35,6.36-9.83,7.76-12.83,2.87-6.13,6-12,9.36-17.77,2.3-3.89,4.21-10.17,8.57-12.26,4.7-2.24,11,1.3,15.67,2.1,6.1,1,27.76,10.9,31.85,3,2.49-4.79-6-17.87-8.42-21.92-3.88-6.55-8.46-12.63-12.6-19,2.41-6.21,5-13.2,7.6-20.88C311.27,670.28,315.47,655.84,307.7,655.08Z" transform="translate(-109.84 -237.11)"/><path class="cls-11" d="M288.25,663.15c-7.44,3.49-14.91,6.59-21.42,9.27-5.86-5.52-13.78-12.56-23.47-20.34-3.56-2.86-10-8.4-13.49-6.82-1.41.63-1.77,10.75-1.59,14.45.5,10.47.41,20.8.43,29.08-5.31,2.34-11.25,5.11-17.66,8.33-4,2-11.54,5.46-11.25,9.09.11,1.46,9.65,5.62,13.25,6.88,6.54,2.28,12.94,4.75,18.77,7,1.78,7.49,4.3,17,7.67,27.82,1.32,4.26,3.55,12.26,6.85,12.64,1.33.15,6.25-8.41,7.82-11.69,2.5-5.26,5.2-10.31,8.18-15.25,2-3.33,3.69-8.71,7.47-10.52,4.07-1.94,9.49,1.06,13.52,1.72,5.85.95,11.65,2.42,17.47,3.63,4.37.91,12.45,2.86,14.38.15.78-1.09-4.32-9.55-6.43-12.51-6-8.41-11.44-16.94-15.87-23.73,2.12-5.32,4.38-11.31,6.68-17.89,1.55-4.42,4.69-12.54,2.24-15.24C300.81,658.19,291.54,661.61,288.25,663.15Z" transform="translate(-109.84 -237.11)"/><path class="cls-7" d="M295.61,660.32a.68.68,0,0,1,.8.62c0-.48,0,.25,0,0,0,1.33-1.86.68-1.41-.25a.62.62,0,0,1,.23-.25c-2.66.89-5.46,2-7,2.71-2.06,1-4.12,1.9-6.17,2.81a.67.67,0,0,1-.13.42c-.29,0-.45-.06-.5-.14-5.12,2.25-10.1,4.32-14.62,6.18-1.92-1.81-4.07-3.78-6.42-5.89.2.71-1.1,1.21-1.39.41a.75.75,0,0,1,.79-1q-2.4-2.15-5.1-4.47a.58.58,0,0,1-.43,0,2,2,0,0,1-.15-.45q-1.71-1.47-3.52-3c-.46.45-1.47-.17-1.08-.84l0,0c-2-1.65-4-3.35-6.2-5.08-3.47-2.79-9.67-8.11-13.22-6.93a1,1,0,0,1-.14.31,1.54,1.54,0,0,1-.23-.14,4.93,4.93,0,0,0-.88,2.56s0,0,0,0h0a.28.28,0,0,1-.06.42,70.57,70.57,0,0,0-.54,11.41c.5,10.47.41,20.8.43,29.08q-4.12,1.82-8.73,4-.18.26-.3.15-4.16,2-8.63,4.2c-4,2-11.54,5.46-11.25,9.09.11,1.46,9.65,5.62,13.25,6.88l2.19.77c.06-.65.93-1.17,1.23-.31l0-.09h0l.06.18h0l0-.09c.14.4.05.61-.13.71,5.39,1.94,10.63,4,15.48,5.88,1.78,7.49,4.3,17,7.67,27.82,1.32,4.26,3.55,12.26,6.85,12.64,1.33.15,6.25-8.41,7.82-11.69.55-1.17,1.12-2.33,1.7-3.48v0h0c1.05-2.1,2.14-4.16,3.27-6.2-.09.06-.26.1-.11-.12.1,0,.14,0,.14,0,1-1.84,2.07-3.67,3.16-5.47,2-3.33,3.69-8.71,7.47-10.52a6.46,6.46,0,0,1,1.12-.39,1,1,0,0,1-.25-.16c-.07-.66.14-.77.62-.31,0-.12,0,.13,0,0a.94.94,0,0,1-.09.4c3.86-.84,8.53,1.59,12.12,2.18,4.07.66,8.11,1.57,12.15,2.48a1.9,1.9,0,0,1,1,.22c1.43.32,2.86.64,4.29.93s3.08.67,4.86,1a1,1,0,0,1,.12-.22c-.25.11.1,0,0,0,.3,0,.47.12.49.32,3.76.62,7.65.84,8.91-.93.53-.75-1.69-4.94-3.82-8.47-.44,0-.89-.36-.63-.91l0,0c-.77-1.24-1.49-2.34-2-3.09-2.93-4.11-5.73-8.25-8.34-12.2a7.47,7.47,0,0,1-2.47-2.48,2.78,2.78,0,0,1,.34-.76c-1.93-2.94-3.73-5.74-5.4-8.29,2.12-5.32,4.38-11.31,6.68-17.89,1.55-4.42,4.69-12.54,2.24-15.24C301.29,658.71,298.57,659.36,295.61,660.32Zm-93.73,43a.85.85,0,0,1,1.56,0h0C203.88,704.74,201.33,704.68,201.88,703.35Zm2.37,5.21c0-.5.28-.63.74-.39l0,.06C204.82,708.46,204.32,709.27,204.25,708.56Zm1.37,1.21c-.25-.43-.17-.6.25-.51h0c.06.09,0,0,0,0C206.2,709.71,206.11,709.88,205.62,709.77Zm.62-.48c.56.5-.65-.56,0,0Zm-.61-1.46c.25.18-.08.3,0,0Zm-.4-2.35c.51.15,0,.57,0,0Zm2,3.54h0Zm1.51-2.42c0,.45-.17.53-.44.24-.17-.68,0-.76.44-.24C208.71,706.49,208.78,706.71,208.74,706.6Zm-2.21-4.8c.68.5-.68.54,0,0Zm3,2.76Zm5.18,5.69c-.44,0-1.82-.76-.77-1.08h0C214.63,709,214.65,709.86,214.69,710.25Zm41.95-44.36Zm3.73,12.91c-.26-.6-.34-1.11.39-.23-.11-.14.17.2,0,0l.27.78c.13.87-.35.16-.64-.49C260.12,679.5,259.73,678.66,260.37,678.8Zm-14.76-19.37Zm-2.6-3.91h0c0,.12,0,.06,0,0l-.36,1C240.34,654.79,243,655.25,243,655.52ZM241,659.59c.11.13,0,.31,0,0Zm1.06,4.57c-.3-1,1.15-1.67,1.58-.62-.05-.1-.09-.2,0,0h0C244,664.54,242.31,665.14,242,664.16Zm7.13,10.89c-.43-.11-.47-.27-.14-.48h0C249.51,674.62,249.56,674.78,249.14,675.05Zm3.26,7c.55-.05.74.24.56.88-.78,0-1-.33-.56-.88Zm-5.15-10.86c-.47.66.08-.11,0,0Zm1.15,4.54c.85,0-.27,0,0,0Zm-4.55-9.58h0l.05,0,.14-.06h0Zm-9.94-19.68c.46.23-.15.56,0,0Zm7.53,17.79c-1.71,2.58-1-2.45,0,0Zm-4.13-5,.32-.09v0l.89-.24h0c.42,0,.14,0,0,0,.94.08,0,3.07-.9.26l-.4.11Zm2.28,6.19Zm-7.52-14.43c.29,0,0,.33,0,0Zm5.18,10.47c.23.7-.66.39-.9,0A.6.6,0,0,1,237.25,661.54Zm-7.54-13.61c.83.13-.18.82,0,0Zm9.95,22.29c-.33-1.43,1.39-1.3,1.74-.41-.05-.12-.13-.34,0,0,0,.12,0,.08,0,0C241.77,670.77,239.9,671.26,239.66,670.22Zm2.57,6.21a.12.12,0,0,1,0-.1c0-.08,0-.07,0,0,.69.09.74.36.17.81S242.14,676.78,242.23,676.43Zm2.22,8.31c.09,0,.91-.82.78-.34h0c-.09.77-.35.89-.78.34h0Zm-11.6-25.48c.15.11.21.54,0,0Zm8.8,20.15h0C241.54,679.37,242.2,679.58,241.65,679.41Zm5.4,12.61Zm-.51-1.32c.12.37-.4,0,0,0ZM233,663c0-.49.32-.62.82-.37C233.79,663,233.24,663.72,233,663Zm14.88,29.71h0c.39,1-1.23,1.53-1.6.59S247.53,691.75,247.9,692.75Zm-19.17-36.4v0h0C228.64,655.59,228.84,657.23,228.73,656.35Zm.94,4.12.09.21C231.22,664.22,226.33,658.53,229.67,660.47Zm1.29,4.09c0,.6-.27.7-.74.31C230.27,664.4,230.52,664.29,231,664.56Zm8.15,20.29Zm-8-12.19c.81.11-.29.89,0,0ZM241,697.25Zm-6.63-12.75c.69.08.88.41.58,1C234.22,685.5,234,685.17,234.32,684.5Zm6.28,13.64c-.06.1-.38.41,0,0C240.54,698.21,240.61,698.13,240.6,698.14Zm.64,1.44c0-.07,0-.17,0,0s0,0,0,0c-.08.7-.43.83-1.06.38C240.15,700,241.15,698.62,241.24,699.58ZM247,713c-.12-.13.18.17,0,0,.05.67-.28.88-1,.61C246,712.86,246.36,712.66,247,713ZM253,727ZM242,704.4c.34,0,0,.36,0,0Zm3.37,8.26h0c.63.16.7.38.21.64C244.93,713.15,244.86,712.93,245.34,712.66ZM238,698.77c.71.24,0,.36,0,0Zm4.93,10.74h0l.21.78C242.12,709.9,242.63,709.09,242.93,709.51Zm2,5.85c.38-.16,0,.4,0,0Zm-6.7-8.93c.71.23-.29-.07,0,0Zm-5.43-10.7c-.5-.48.08.07,0,0Zm12.32,29.78c.35.1-.25.29,0,0Zm-7.46-15.26Zm7.49,16.3c-.85,1-1.17-.22-.93-.2h0Zm-8.42-14.23,1.1.53h0C238,713,236.57,714.93,236.74,712.32Zm2.71,4.67h0c.31.14.35.36.1.68-.42-.06-.46-.29-.1-.68Zm-6-11.38c.34.23-.1.67,0,0ZM228.64,695Zm6.44,12.82.83.18c-.16-.31,0,.09,0,0C236.19,708.58,235,708.62,235.08,707.86Zm-7.8-16.17Zm-.23,5.27c.23-.45.41-.41.53.13,0,0,0-.08,0,0h0C227.39,697.5,227.21,697.45,227.05,697Zm.69.85c-.52.67.4-.53,0,0Zm6.51,15.34Zm-4.1-6.87c.69.21-.11.4,0,0ZM224,694.47l.91.38c-.19-.17.07.07,0,0S223.7,696.68,224,694.47Zm5.08,11.08h0c0,.09-.4.16-.23-.68C229.2,704.84,229.28,705.07,229.11,705.55Zm11.63,24.34.07.15C241.82,732.6,237.67,728.75,240.74,729.89Zm-5.3-10.62c.67.18-.08.36,0,0Zm7,14.62c.34.22-.1.68,0,0Zm-2.78-2.24.83.12h0C241.2,732.48,239,732.13,239.68,731.65ZM245.56,745c-.06.39-.41,0,0,0Zm-13.64-31.89c-.09-.34,0,.11,0,0-.16.58-.55.64-1.16.18C231,712.7,231.41,712.64,231.92,713.12Zm-9.65-18.42Zm-5.18,5.63c.22.15-.25.42,0,0Zm-.2.86Zm5.67,12.13ZM220,706.54c.25,1.11-.89.55-1.39.37.21-.3,1.11-1.62,1.39-.37C219.91,706.12,220.07,706.85,220,706.54Zm1.48.52,0,0h0C221.94,707.33,220.7,706.6,221.48,707.06Zm-.78-6.18c.51.9-.84,1.15-1.23.46.16-.43.69-1.36,1.22-.48-.05-.08-.09-.15,0,0S220.74,701,220.7,700.88Zm8.8,15.32c-.38,0,1.41.06,0,0ZM235.39,730c.71.18-.09.39,0,0Zm2.48,3.44c0-.4,0,.41,0,0Zm-17.46-39.16c-2.06-1-.25-1-.09-.87h0c.06.07,0,0,0,0Zm7.9,15.91c-.23-1.16,1.07-1.31,1.48-.49-.23-.46.2.39,0,0C230.31,710.71,228.53,711.26,228.31,710.18Zm9.52,19.59c.11-.16.08-.1,0,0Zm11.54,22.55c0,.08,0,0,0,0,0,.67-.27.87-.93.58,0-1,.35-1.17.93-.59C249.35,752.28,249.33,752.24,249.37,752.32Zm1.06.27c-.32,0,.79-.05,0,0Zm-1.52-4.5Zm-.36-1.69h0s0,0,0,0c0,.92-1.7.61-1.6-.13s1.58-.53,1.6.13Zm-1-1.59ZM235.6,718.49q-1.17.07-.36-.69h0Q236.25,717.91,235.6,718.49Zm.2-1.38Zm12.51,26.11h0c-.24.45-.42.4-.53-.16C248,742.68,248.15,742.73,248.31,743.22Zm-7-16.29Zm-1-5.24c.14.34.07.17,0,0,.49,1.26-1.3,2.29-1.85,1s1.26-2.46,1.84-1Zm-9.85-21.44h0C231.2,700.17,230.05,700.3,230.45,700.25Zm-2.82-7.3a.62.62,0,0,1,.15.19c.28-.6,1.66-.25,1.55.4,0-.14,0,.13,0,0-.1.65-1.59.51-1.6-.15a.81.81,0,0,1,0-.16A.17.17,0,0,1,227.63,693ZM253,748.62c-.19.61-.4,0,0,0Zm-12.92-28.18c.67.18-.07.37,0,0Zm12.13,24.82c-.55-.21-1.34-.36-.69-1h0C252.39,743.44,252.26,745.11,252.24,745.26Zm-4-11c.22.23-.21.19,0,0Zm-2.46-4.42a.82.82,0,0,1,1.55.09c0-.13-.06-.36,0,0,0,.1,0,.07,0,0C247.57,731.58,245.41,731,245.74,729.88Zm6,11.29c-.15-.58,0-.7.58-.37C252.3,741.17,252.11,741.3,251.79,741.17Zm2.74,4.59c.66.19-.1.34,0,0Zm-1.78-5.91c-.66.13-.8-.07-.43-.59C252.71,739.31,252.86,739.51,252.75,739.85Zm-6.69-17.3h0c0,.46-.23.55-.61.28,0-.61.18-.7.61-.28Zm-1.85-5.23Zm1.39,1.15c.67-1.57,2.44-.46,2.51.78,0-.58,0,.57,0,0C248.22,721.3,244.65,720.66,245.6,718.47Zm3.1,2.53ZM256,739c-1.17,2.93-1.26-2.31,0,0Zm.3,1.52,0,0h0l0,0,0,0,0,0,.84.06C256.27,741.67,255.8,740.91,256.26,740.48Zm-1.76-7.57c-.26.59-.94.06,0,0Zm-2.68-5.54c-.62,0-.72-.16-.3-.55h0C251.92,726.75,252,726.93,251.82,727.37Zm-4.2-9.66c-.41-.08-.54-.3-.37-.69C248,717,248.12,717.21,247.62,717.71Zm9.3,15.7c-1.27,1.79-2.25-.88,0,0Zm.92,2c0,.76-.79,0,0,0Zm-1.65-5.28h0c0,.64-.24.8-.77.47-.08.11-.11.14,0,0h0C255.64,730.32,256.24,729.56,256.19,730.11ZM246,706.61Zm-8.57-19.7c-.28.8-.75-.17,0,0Zm-4.08-8.64q-.07-.87.66-.36h0C234.4,678.19,233.62,678.8,233.39,678.27Zm-2.59-9c-.39-.62-.2-1.13.55-1.53.07.4.14.81.22,1.21,0-.32,0,.29,0,0A.56.56,0,0,1,230.8,669.3Zm27,57.15q-.58-.09-.42-.6Q258.35,725.67,257.78,726.45Zm-17.39-38.06c-.5-1,.92-2,1.48-.94-.23-.41.26.5,0,0C242.42,688.48,240.89,689.39,240.39,688.39Zm5.32,8.55c.22-.29.17,0,0,0Zm10.87,24.55q.15-1.07,1.2-.42v0C257.63,721.27,256.65,722.58,256.58,721.49Zm-7.89-20.88c.73.35-.59.67,0,0Zm13.07,30.47c.21.22-.21.19,0,0Zm-.47-1.76.76,0h0C262.81,729.73,261.54,731.36,261.29,729.32Zm-15.49-33a.73.73,0,0,1,.88-.53h0a1.37,1.37,0,1,1-.88.53Zm6.64,8.19c.17-.13.36,0,0,0Zm-3.3-9s0,.09,0,.13c0,.23,0,.41,0,.44h0q-1.29-.15-.66-1.08h0c.44-.53.59,0,.63.52Zm-3.76-8a1.37,1.37,0,1,1,2.37-1.37c-.09-.14-.18-.27,0,0h0C248.65,687.46,246.23,688.93,245.38,687.44Zm14.05,29.71c.65.21-.05.32,0,0Zm1.54,2.26h0C260.5,719.08,261.16,719.54,261,719.41Zm.58-1.2c.52.93-.93,1.43-1.39.38.21-.56.85-1.32,1.39-.38C261.34,717.85,261.73,718.54,261.55,718.21Zm-13.24-27.86c-.52-.21-.62-.62-.29-1.24l.8.28h0c.17.16.06.06,0,0C249,690,248.88,690.36,248.31,690.35ZM260,714.19c.12.73-.15-.88,0,0C259.93,714.1,260,714.25,260,714.19Zm2.48,4.95ZM250.55,693.2c-.63-.91,1-2,1.55-1-.06-.1-.1-.18,0,0h0A.91.91,0,0,1,250.55,693.2Zm5.23,7.62.66.45h0C256.61,701.85,255.42,702.3,255.78,700.82Zm-.93-2.13c.61.16-.06.35,0,0Zm-.43.76c.31-.42-.59.82,0,0Zm3.63,7.74q.17-.93,1.11-.54S258.23,708.32,258.05,707.19Zm6.69,11.22c.42.21,0,.3,0,0ZM252,689.69h0c.4,2.24-1.61-.21-2.32-1.13l0,0c-.35-.5-.27-.38,0,0,.73-1.24,2.13.09,2.32,1.13C252,689.55,251.86,689,252,689.69Zm-3.65-8.29c.16-.56.4-.61.7-.16-.09-.13,0,0,0,0C249,681.61,248.72,681.67,248.33,681.4ZM247.25,679h0C247.12,678.62,247.37,679.32,247.25,679Zm18.3,38.87h0C265.07,718.05,266,717.68,265.55,717.86Zm-19.64-40.22c-.27-1.2,1.83-2.21,2.25-.9h0C248.64,678.22,246.25,679.16,245.91,677.64Zm11.17,17.7h0c.66-.07.77.11.34.53C256.54,696,256.43,695.81,257.08,695.34Zm.66,1.43c.25,0,.4,0,.45.14l.09,0-.09,0a.46.46,0,0,1,0,.37C257.73,697.26,257.59,697.09,257.74,696.77Zm5.69,12.11c-.18-.51.13.36,0,0Zm-1.2-3.1c.61,0,0,.57,0,0Zm-.77-4.81c.07.19,0,.1,0,0,.48,1.3-1.15.66-1.53.53.24-.37,1.06-1.78,1.52-.54C261.42,700.87,261.39,700.79,261.46,701ZM254,683.87c-.19.26-.73,1-.75.37.07-.47.34-.62.81-.46A.23.23,0,0,1,254,683.87Zm-4.68-10.66c-.08.72-.35.77-.81.17.12-.52.39-.58.81-.17C249.24,672.92,249.32,673.35,249.29,673.21Zm6.87,14.1c.38.34-.15.27,0,0Zm-12.8-29c.11.33.06.17,0,0,.45,1.34-1.76,2.35-2.26,1.09s1.74-2.61,2.26-1.1Zm4.84,8.4c0,.56-.32.66-.85.3.18-.56.46-.66.85-.3C248.14,666.62,248.25,666.85,248.2,666.74Zm25.2,55.48Zm-3.4-8.15c0-.59.36-.69,1-.31h0C271.7,714,270.3,715.11,270,714.07Zm-1-5.24Zm-7.39-16.56a.69.69,0,0,1-.37,1c-1.22-.78-.12-1.54.37-1h0C261.77,692.46,261.65,692.33,261.6,692.27ZM250.26,667.2c-.44.15.21-.08,0,0Zm10.55,22.16c-.47-.09-.47-.26,0-.54-.13.09,0,0,0,0C261.21,688.9,261.21,689.08,260.81,689.36ZM276.87,723c-.55-.47-.58-.77-.1-.89h0l.4.77A.25.25,0,0,1,276.87,723ZM263,690.46q-.76-.08-.3-.75h0Q263.8,689.65,263,690.46Zm-3.27-8.54c.11-.75.44-.92,1-.5h0C260.67,682.08,260.34,682.24,259.72,681.92Zm11.16,22.21c.62.57-.67-.6,0,0Zm-7.22-15.07,0,0h0l0,0C263,689.64,263.84,688.89,263.66,689.06Zm9.09,20c-1.06-.29-.43-2.33.67-2.08h0C274.66,707.24,273.94,709.34,272.75,709ZM268,695.28c-.4-.27-.4-.56,0-.84h0C268.8,694,268,695.28,268,695.28Zm-7-16.89Zm14.33,29.68c.5.1-.36.42,0,0Zm7.58,15.56.25.13h0c-.08,0,0,0,0,0h0Zm-22.64-49.85c-.53-.15-.52-.34,0-.57h0Q261,673.42,260.28,673.78Zm12.18,22.47c-.52-.14-.54-.4-.08-.77h0C273.1,695.6,273.13,695.86,272.46,696.25Zm-1.31-4.64c-1.49.09-2-1.81-.95-1.55h0c.59.16.1,0,0,0A1.26,1.26,0,0,1,271.15,691.61Zm-3.54-8.52c.35.61-.33.21,0,0Zm2.6-11.18h0v0c0,.51-.25.61-.67.31C269.52,671.57,269.74,671.47,270.21,671.91Zm2.33,6c-.53.12-.63-.1-.32-.66C272.63,677.12,272.74,677.34,272.54,677.86Zm12.58,27.87c.19,0,.26.18,0,0Zm-9.55-20c0,.41-.18.54-.62.39C274.94,685.68,275.14,685.55,275.57,685.75Zm1.57,6.86c0-.3,0,.33,0,0ZM285.49,713l0,0C285.76,712.69,284.94,713.54,285.49,713Zm3,7.77c.86,0-.24,0,0,0ZM272,685.11h0Zm3.77,9.24c-.08-.5.06.41,0,0Zm-12.61-22.11c.44-.06-.24.41,0,0Zm8.81,18.37c.07.31-.45.24,0,0Zm13.68,28.48Zm-2.08-4.84c.21.1.11.06,0,0Zm-1.95-6.62.86.57C281.79,709,281.44,708.55,281.58,707.63Zm8.83,18.19c.2.09.08,0,0,0Zm0-2.51c-.22.62-.6.7-1.13.26,0,0,1.27-1.45,1.13-.26C290.43,723,290.37,723.5,290.39,723.31Zm-9.15-21.54c-.18-.76,1.48-1.38,1.76-.56h0c.08.25,0,.11,0,0C283.36,702.32,281.57,703.07,281.24,701.77Zm4.35,5.8c.14-.12.33,0,0,0Zm.36,2.53c.73.19-.25.8,0,0Zm-2.25-5.2Zm9.63,19.46c-.08-.31.21.57,0,0Zm-6.23-14h0l0,0,0,0,0,0,0,0c1-.7.68,1.06.65,1.28C287.17,711.45,286.08,711.07,287.1,710.37Zm6.37,12.52c.51.5-.52.54,0,0ZM279,681.37c.13-.27-.34.89,0,0Zm.24,5.65h0c.22.35,0,.07,0,0,.28.5.14.86-.43,1.08C278.66,687.85,278.51,686,279.2,687Zm10.94,25.09c.46-.16.15,0,0,0ZM280.61,691v0c-.13,0-.1,0,0,0,.14-.64.43-.71.88-.21h0C281.91,691.26,280.92,691.09,280.61,691Zm3.12,3.68c-.56-.6.19.21,0,0Zm9.94,21.19c.74.15-.12.71,0,0ZM284,692.54c-.63-.12-.8-.4-.51-.86h0C284.06,691.71,284.23,692,284,692.54Zm24,23.65c.22.2-.48-.39,0,0Zm-22.59-42.25c-.22-.28.27.36,0,0,.46.61-.31,1.72-1,.89S284.81,673.16,285.41,673.94ZM291.49,700c.25.26-.29.27,0,0Zm-10.43-20.94c.35,0,0,.4,0,0Zm2.54,5.86c.8.22-.46.75,0,0Zm9.33,17.48c-.2-.55.26.69,0,0a1.11,1.11,0,1,1-2.07.79A1.11,1.11,0,0,1,292.93,702.41Zm-10.28-16.33c0,.79-.81,0,0,0ZM287.58,697c.53.25-.28.46,0,0Zm16.51,30.48c.29.21-.29.57,0,0Zm-5-12a1.06,1.06,0,0,0,.05.12v0a.78.78,0,0,0-.05-.12c.51,1.38-1.84,2.29-2.43,1a1.32,1.32,0,1,1,2.43-1v-.05c-.13-.34-.06-.17,0,0Zm-19-41.15c-.38-.06-.51-.26-.4-.59C280.33,673.6,280.46,673.8,280.12,674.32Zm1-2.38c.3.89-1.21,1.54-1.54.61s1.24-1.52,1.54-.61C281,671.59,281.29,672.35,281.15,671.94ZM307.85,729c.2.29-.82.83-.6-.41l.6.41ZM295,700.28c.76,0,0,.77,0,0Zm-1.5-3.6ZM301,712.5c.14-.22.06-.1,0,0Zm-13-26.89c.22-.52.55-.67,1-.44C288.8,685.76,288.48,685.9,287.94,685.61Zm13.36,26.32c.06.82-.07-.85,0,0ZM308,723.11l.09,0h0Zm3.11,5.43v0h0C311.19,729.37,311,727.73,311.08,728.54Zm-7.33-17c.48.12-.36.42,0,0Zm.73,2.15c-.31.65-.93-.17,0,0Zm.69,3.47c.76,0,0,.77,0,0Zm1.63,3.62ZM298,703.4v0s0,.07,0,0c.07.48-.14.62-.62.43,0-.52.21-.66.62-.43ZM287.7,682.28a1.8,1.8,0,0,1,.11-1.95H288C289.26,680.38,288.59,682.83,287.7,682.28Zm.43-2.77h0l.83,0C288.36,680.67,287.57,680,288.13,679.51Zm3.07,4.27c.57.09,0,.63,0,0Zm-.8-3.85c-.32,0,.78,0,0,0Zm-4-10.65c-.07.47-.3.55-.69.27q-.15-1.09.69-.27C286.24,669.15,286.41,669.33,286.37,669.28Zm3.28,1.51Zm5.08,7.77Zm.43-11.45c.86,0,1,.21.38.72C294.94,667.76,294.81,667.51,295.16,667.11Zm.82,4Zm-4.4-7.81a.87.87,0,0,1-.53,1.16c-1.48-.67,0-2,.53-1.16C291.41,663,291.79,663.61,291.58,663.26Zm6,11.49h0l.72.06C297.77,676.08,297.23,674.87,297.62,674.75Zm-.45-4.9c.17.23-1.83,1.71-.93-.7l.93.7Zm1.65.47c.17-.14.4,0,0,0Z" transform="translate(-109.84 -237.11)"/><path class="cls-6" d="M368.13,580.56c-6.56-.31-16.57,1.92-19.44-3.9-3.12-6.32-1.76-19.42-2.76-26.54-.59-4.19-1.42-12-4.78-13.17-1.35-.46-8,6.13-10.24,8.74-6.31,7.38-12.93,14.3-18.16,19.89-.72.77-3.53-4.07-4.93-4.94-4.94-3.09-25.18-14.88-25.73-3.55-.08,1.63,2.38,10.54,4.66,14.93h0c3,5.69,5.72,11.42,8.19,16.68-3.55,6.18-7.88,14.19-12.48,23.63-1.31,2.69-3.45,5.26-3.49,8.32-.11,7.71,8.67,3.22,12.78,1.63,5-2,10.05-3.66,15.2-5.1,3.47-1,8-3.53,11.71-2.35,4,1.28,5.45,6.13,8,9.74,3.2,4.46,6.31,9,9.48,13.55,5.11,7.3,10.49,11.36,13.34,1.47,1.18-4.1,5.26-22.87,6.79-29.45,1.32-5.67,2.33-5.71,12.49-10.94,3.47-1.79,14.71-6.41,13.59-11.55S372.13,580.75,368.13,580.56Z" transform="translate(-109.84 -237.11)"/><path class="cls-10" d="M378.08,582c-1.51-1.72-11.54-4.78-13.91-5.61-5.67-2-9-1.56-14.59-3.7-.38-7.13-1.16-16.5-2.62-27.41-.54-4-1.28-11.52-4.45-12.6-1.28-.44-8.6,6.23-10.72,8.73-6,7.11-11.31,13.46-16.3,18.84-4.79-1.69-11.83-5.48-17.84-7.27-3.74-1.12-9-1.44-11,1.09-.81,1,2.73,9.5,4.26,12.49,2.78,5.44,5.35,10.91,7.67,15.94-2.62,4.59-21.51,32.52-14.13,35.24,2.46.91,8.62-2.12,10.95-3,4.77-1.9,9.53-3.55,14.4-5,3.29-.95,7.61-3.43,11.1-2.31,3.76,1.2,5.39,6.42,7.55,9.29,2.83,3.75,9.66,20.43,16,18.21,3.87-1.35,6-13,6.75-16.47,1.26-5.63,1.88-11.37,2.92-17,4.55-2.18,9.6-4.7,15-7.58C372.16,592.26,382,586.47,378.08,582Z" transform="translate(-109.84 -237.11)"/><path class="cls-11" d="M363.16,576.37c-5.92-1.94-11.65-4.11-16.64-6-.36-6.09-1.08-14.09-2.39-23.41-.48-3.43-1.16-9.84-3.9-10.78-1.11-.37-6.57,5-8.39,7.15-5.16,6-10.57,11.7-14.86,16.28-4.15-1.46-8.87-3-14.08-4.58-3.23-1-9.2-3-10.92-.82-.7.86,2.4,8.12,3.74,10.68,2.42,4.65,4.67,9.34,6.7,13.64-2.91,5.06-6.46,11.61-10.22,19.34-1.48,3-4.41,8.61-2.78,10.53.65.78,7.81-1.39,10.38-2.39,4.12-1.6,8.23-3,12.44-4.17,2.84-.79,6.56-2.89,9.58-1.93,3.26,1.05,4.69,5.51,6.58,8,2.73,3.56,5.17,7.38,7.75,11.08,1.94,2.77,5.39,8,7.86,7.54,1-.2,2.57-7.51,2.95-10.24,1.06-7.76,2.48-15.29,3.57-21.34,3.93-1.84,8.28-4,13-6.4,3.15-1.64,9.1-4.5,9.15-7.25C372.67,580.15,365.77,577.23,363.16,576.37Z" transform="translate(-109.84 -237.11)"/><path class="cls-7" d="M368.69,578.63a.5.5,0,0,1,.12.75c.25-.26-.13.15,0,0-.68.75-1.38-.58-.65-.86a.46.46,0,0,1,.26,0c-1.93-.89-4.05-1.73-5.26-2.13q-2.46-.81-4.86-1.65a.57.57,0,0,1-.3.16c-.15-.16-.21-.27-.2-.34-4-1.41-7.82-2.86-11.28-4.18-.12-2-.28-4.2-.48-6.59-.26.5-1.24.1-1-.49a.56.56,0,0,1,.93-.11c-.15-1.62-.31-3.33-.5-5.12a.5.5,0,0,1-.21-.25,1.38,1.38,0,0,1,.15-.32c-.12-1.14-.25-2.3-.39-3.49-.48,0-.72-.85-.16-1h0c-.24-1.94-.5-3.94-.79-6-.47-3.35-1.12-9.5-3.7-10.69a.7.7,0,0,1-.23.09.82.82,0,0,1-.06-.19,3.78,3.78,0,0,0-1.82,1h0a.21.21,0,0,1-.25.2,54.1,54.1,0,0,0-6.23,6c-5.16,6-10.57,11.7-14.86,16.28-2.14-.76-4.45-1.54-6.89-2.33-.15,0-.23,0-.24-.08q-3.3-1.08-7-2.17c-3.23-1-9.2-3-10.92-.82-.7.86,2.4,8.12,3.74,10.68.27.52.54,1,.8,1.57.37-.34,1.13-.17.85.46l0-.07h0l-.06.14h0l0-.07c-.14.29-.29.36-.44.32,2,3.87,3.8,7.72,5.49,11.29-2.91,5.06-6.46,11.61-10.22,19.34-1.48,3-4.41,8.61-2.78,10.53.65.78,7.81-1.39,10.38-2.39.92-.36,1.83-.7,2.75-1l0,0v0q2.51-.91,5-1.73c-.08,0-.19-.07,0-.12s.07.08.06.1c1.51-.49,3-1,4.58-1.38,2.84-.79,6.56-2.89,9.58-1.93a6.17,6.17,0,0,1,.83.37.64.64,0,0,1-.06-.22c.31-.4.48-.35.5.15,0-.08,0,.1,0,0a.59.59,0,0,1-.25.18c2.56,1.54,3.88,5.31,5.56,7.5,1.9,2.47,3.65,5.07,5.42,7.67a1.48,1.48,0,0,1,.45.66c.62.92,1.25,1.84,1.88,2.75s1.35,2,2.17,3.06l.18-.07h0c.17.17.2.32.11.44,1.75,2.29,3.79,4.43,5.4,4.11.68-.13,1.64-3.6,2.29-6.65-.23-.25-.3-.66.12-.84h.05c.22-1.08.39-2.06.49-2.75.52-3.79,1.12-7.53,1.73-11.07a5.71,5.71,0,0,1-.07-2.65,2.23,2.23,0,0,1,.58-.24c.46-2.63.92-5.11,1.33-7.38,3.93-1.84,8.28-4,13-6.4,3.15-1.64,9.1-4.5,9.15-7.25C372.66,580.69,370.82,579.63,368.69,578.63ZM294.61,553.7c.47-.21,1.12.28.87.8h0c-.07.14,0,.07,0,0C295,555.51,293.61,554.15,294.61,553.7Zm-1.4,4.11c.28-.26.48-.2.61.17l-.05,0C293.58,558.05,292.88,558.23,293.21,557.81Zm.13,1.38c.08-.37.22-.42.4-.15h0c0,.08,0,0,0,0C293.69,559.46,293.56,559.5,293.34,559.19Zm.59.06c.05.56-.07-.65,0,0Zm.42-1.12c0,.22-.2.12,0,0Zm1-1.51c.2.35-.3.3,0,0Zm-.73,3h0C294.53,559.56,295,559.79,294.62,559.61Zm2.09-.55c-.25.23-.37.2-.37-.1.26-.46.38-.43.37.1Zm1.27-3.8c.12.63-.66,0,0,0Zm.21,3.07Zm-.1,5.84c-.23-.24-.61-1.37.14-1h0C298.74,563.41,298.28,563.93,298.09,564.17Zm46.2-2.71Zm-4.65,9.07c.17-.47.39-.79.34.07,0-.13,0,.2,0,0l-.26.57c-.38.55-.27-.09-.1-.6C339.14,570.79,339.36,570.12,339.64,570.53Zm1.91-18.36s0,0,0,0Zm.6-3.51h0l-.69.35C341.05,546.87,342.29,548.52,342.15,548.66Zm-3.25,1.18c0,.13-.15.18,0,0Zm-1.79,3.08c.34-.7,1.5-.33,1.2.47,0-.08.06-.16,0,0h0C338,554.15,336.77,553.61,337.11,552.92Zm-1.72,9.71c-.17-.29-.12-.4.18-.34h0c0,.05,0,0,0,0Q335.95,562.72,335.39,562.63Zm-1.85,5.56c.34.26.29.52-.14.78-.41-.42-.37-.68.14-.78Zm2.8-8.66Zm-1.72,3.1c.49.41-.15-.13,0,0Zm2.47-7.65h0l.11,0h0Zm4.73-16c.13.37-.38.24,0,0Zm-5.08,13.73c-2.29.54.73-1.86,0,0Zm.29-4.89.23.12h0l.62.33h0c.48.54-1.59,1.71-.63-.32l-.28-.14Zm-1.95,4.61c.07.14,0,.07,0,0Zm3.34-11.87c.17.14-.16.19,0,0ZM335.85,549c-.24.51-.57-.13-.5-.46A.46.46,0,0,1,335.85,549Zm2.9-11.42c.39.5-.53.36,0,0ZM332.67,555c.56-1,1.44,0,1.17.68h0C333.55,556.44,332.26,555.74,332.67,555Zm-1.81,4.76a.16.16,0,0,1,.06,0c.06,0,.05,0,0,0,.33.41.22.59-.33.53S330.63,560,330.86,559.8Zm-3.09,5.74c.07,0,.93,0,.61.21h0c-.45.39-.66.31-.61-.21h0Zm6.83-20.09c0,.14-.16.41,0,0ZM329,561.14v0C329,561.06,329.21,561.52,329,561.14Zm-3.57,9.77Zm.41-1c-.12.26-.23-.21,0,0Zm6.9-22.29c.28-.25.5-.18.64.22C333.2,548,332.5,548.12,332.73,547.63Zm-7.22,24.13h0c-.32.77-1.46.2-1.19-.51S325.83,571,325.51,571.76Zm8.33-30v0h0C334.19,541.24,333.44,542.25,333.84,541.71Zm-1.62,2.76a1.16,1.16,0,0,0-.06.16C331.12,547.34,331.38,541.67,332.22,544.47Zm-1.41,2.93c-.33.31-.52.24-.57-.22C330.51,547,330.7,547,330.81,547.4Zm-6,15.43Zm1.9-10.9c.38.48-.63.34,0,0Zm-7.33,18.7Zm3-10.48c.34.4.27.68-.19.84C321.73,560.65,321.8,560.37,322.3,560.15Zm-3.61,10.79c-.09,0-.43,0,0,0Zm-.4,1.12h0c-.4.35-.67.23-.78-.34C317.47,571.73,318.74,571.49,318.29,572.06Zm-3.8,10.37c0-.14,0,.18,0,0q-.5.59-.87-.18Q314.25,581.69,314.49,582.43Zm-3.92,10.86Zm5.62-18.19c.2.16-.16.22,0,0Zm-2.42,6.31h0c.26.42.18.58-.23.46C313.28,581.47,313.36,581.31,313.77,581.41Zm3.16-11.47c.26.5-.21.17,0,0Zm-2.86,8.48h0c0,.1,0,0,0,0l-.29.55C313.42,578.21,314.12,578,314.07,578.42Zm-1.93,4.27c.29.12-.19.24,0,0Zm.94-8.41c.27.5-.12-.18,0,0Zm2.56-8.72c0-.52,0,.08,0,0ZM307,588.39c.14.24-.29,0,0,0Zm3.8-12.29c.05.08.07.13,0,0ZM306.45,589c-1,.11-.53-.73-.41-.6h0Zm2.74-12.23c.11.29.22.57.34.86,0-.24,0,.22,0,0C309.55,577.78,307.74,578.11,309.19,576.76Zm-.93,4h0c.1.24,0,.38-.3.43-.2-.25-.1-.4.3-.43Zm2.62-9.37c.07.3-.4.31,0,0Zm2.81-8.36Zm-3.1,10.43.36.52c.08-.25,0,.08,0,0C310.83,574.41,310.16,573.82,310.59,573.44Zm4.09-13Zm-2.86,2.79c.36-.13.44,0,.22.35h0C311.73,563.72,311.66,563.6,311.82,563.25Zm-.06.82Zm-4.37,11.85Zm1.3-5.92c.27.48-.27.17,0,0Zm2.76-9.7.3.69c0-.2,0,.07,0,0S310.11,561.35,311.45,560.3Zm-3,8.76h0c0,.05-.3-.12.23-.5C308.91,568.71,308.84,568.88,308.49,569.06Zm-6.21,19.47c0,.06,0,.09,0,.12C301.47,590.59,301.17,586.31,302.28,588.53Zm2.59-8.61c.27.45-.24.15,0,0Zm-3.72,11.72c.07.29-.41.31,0,0Zm-.37-2.68.39.49h0C301.19,590.2,300.15,588.86,300.78,589Zm-3.7,10.42c-.23.19-.23-.2,0,0Zm9-24.68c.12-.24,0,.07,0,0-.4.23-.64.06-.74-.51C305.84,574,306.08,574.17,306.12,574.7Zm4.24-15.18Zm-5.79.42c.05.19-.35.1,0,0Zm-.55.36c.21.1-.62-.25,0,0Zm-3.17,9.64Zm2.11-5.06c-.44.74-.78-.16-1-.53.26-.05,1.45-.31,1,.53C303.12,564.6,302.83,565.08,303,564.88Zm.54,1v0h0C303.61,566.32,303.31,565.27,303.5,565.93Zm2.78-3.82c-.19.76-1.06.2-.92-.38.32-.15,1.09-.39.92.37,0-.07,0-.13,0,0S306.27,562.17,306.28,562.11Zm-3.1,13Zm-3.91,10.67c.3.47-.25.17,0,0Zm-.41,3.19c.2-.23-.21.23,0,0Zm10.7-30.68c-.64-1.62.4-.71.39-.53h0Zm-3.91,12.88c.48-.76,1.27-.17,1.07.5h0C306.48,572.53,305.21,571.91,305.65,571.2ZM300.73,587Zm-5.34,18.43h0c-.33.4-.6.34-.82-.16.53-.51.8-.46.82.16Zm.45.7c-.19-.15.45.39,0,0C295.89,606.14,295.82,606.08,295.84,606.09Zm1.49-3.27Zm.69-1.12h0c-.46.53-1.25-.55-.82-.9s1.15.52.83.9C298,601.67,298,601.69,298,601.7Zm.25-1.41Zm7.09-20.72c-.46-.38-.4-.57.16-.56h0C305.85,579.39,305.8,579.58,305.36,579.57Zm.83-.66Zm-6.66,20.91h0q-.55.2-.21-.36Q299.78,599.3,299.53,599.82Zm4.59-12.63Zm2.17-3.41c-.1.26-.05.13,0,0-.38,1-1.9.59-1.54-.41s2-.71,1.54.4C306.34,583.67,306.37,583.57,306.29,583.78Zm5.7-16.95h0C312.44,567.17,311.74,566.65,312,566.83Zm2.23-5.49a.46.46,0,0,1,0,.18c.46-.19,1,.72.64,1,.09-.06-.07.06,0,0-.39.31-1.14-.54-.8-.91l.09-.08A.12.12,0,0,1,314.22,561.34Zm-14.89,43.91c-.42.24-.21-.22,0,0ZM306.84,583c.28.45-.24.17,0,0Zm-6.2,20c-.2-.4-.56-.9.14-.91h0C301.67,602.06,300.73,602.92,300.64,603Zm3.46-8.15c0,.24-.21,0,0,0Zm.94-3.72a.62.62,0,0,1,.81.86h0c0,.07,0,0,0,0C305.17,593,304.3,591.55,305,591.12Zm-2.52,9.38q.32-.6.51.09Q302.69,600.86,302.52,600.5Zm-.88,4c.27.45-.23.14,0,0Zm2.09-4.18c-.43-.27-.41-.45.07-.55C304,600,304,600.13,303.73,600.27Zm5.29-13h0c-.25.23-.41.18-.47-.17.3-.34.46-.29.47.16C309,587.23,309,587.21,309,587.25Zm1.7-3.85c.06.13,0,.07,0,0Zm.17,1.35c1.19-.52,1.58,1,1,1.74.29-.34-.27.33,0,0C310.87,587.68,309.23,585.47,310.89,584.75Zm.4,3ZM306,601.45c-2.16,1,.51-1.93,0,0Zm-.62,1h0l.43.47C304.73,603.1,304.86,602.44,305.34,602.44Zm3-5.09c-.44.19-.54-.46,0,0Zm1.4-4.45c-.35-.31-.31-.47.12-.46-.12,0,.06,0,0,0C310.07,592.6,310,592.76,309.7,592.9Zm2.7-7.52q-.28-.37.15-.57Q313.2,585.35,312.4,585.38Zm-3,13.5c-1.63.33-.79-1.66,0,0Zm-.52,1.57c-.41.42-.45-.4,0,0Zm1.83-3.77h0c-.33.36-.56.32-.67-.13-.11,0-.14,0,0,0v0C310.28,596.51,311,596.4,310.69,596.68Zm6.6-18.24Zm5.5-15.32c-.57.29-.32-.49,0,0Zm2.24-6.89c.27-.35.45-.31.55.14h0c0,.11,0,0,0,0C325.63,556.71,324.88,556.64,325,556.23Zm3.23-6.31c.11-.54.47-.72,1.09-.55-.17.26-.34.52-.5.78.18-.16-.17.14,0,0A.42.42,0,0,1,328.26,549.92Zm-14.79,45.56c-.19-.23-.16-.42.08-.54C314,595.21,313.94,595.39,313.47,595.48Zm10.16-30c.25-.8,1.53-.61,1.31.26.09-.35-.11.41,0,0C324.71,566.55,323.39,566.26,323.63,565.44Zm-1.5,7.49c.27,0,.1.08,0,0Zm-6.75,19.19c.42-.33.72-.2.88.4h0C316.07,592.55,314.85,592.76,315.38,592.12Zm6.49-15.62c.22.57-.67.06,0,0Zm-8.61,23.61c0,.23-.22,0,0,0Zm.65-1.22.41.42h0c.05.14,0,.05,0,0C314.54,599.91,313,600.15,313.91,598.89Zm8.61-26.27a.54.54,0,0,1,.75.17h0a1,1,0,1,1-.75-.17Zm-.59,8c.16,0,.21.16,0,0Zm2.86-6.7-.09.07c-.1.13-.2.23-.21.25h0c-.43-.5-.37-.82.19-.94h0c.52-.07.31.31.08.61Zm2.09-6.38a1,1,0,1,1,2,.48h0C328.68,569.22,326.58,568.78,326.88,567.51Zm-7.67,23.7c.25.45-.2.15,0,0Zm-.33,2v0C318.8,592.83,318.92,593.42,318.88,593.26Zm.94-.37c-.19.79-1.25.31-1-.51.41-.2,1.16-.29,1,.51C319.9,592.59,319.75,593.17,319.82,592.89ZM327,570.64q-.27-.58.48-.84l.3.58h0c0,.17,0,.06,0,0C327.56,570.85,327.3,570.94,327,570.64Zm-6,19.2Zm-1.2,4Zm6.92-20.49c.12-.83,1.56-.56,1.34.29,0-.09,0-.15,0,0h0A.69.69,0,0,1,326.75,573.37Zm-1.08,6.93c.05.2.09.39.13.59.06-.12-.05.11,0,0C325.6,581.3,324.7,580.93,325.67,580.3Zm.6-1.66c.25.4-.22.17,0,0Zm-.64.2Zm-2,6.15c.38-.28.68-.19.89.28C324.53,585.27,323.13,585.71,323.62,585Zm-2.14,9.67c.13.33-.15.17,0,0Zm7.88-22.48h0c-.95,1.45-.78-.95-.7-1.83h0c.07-.47.05-.36,0,0,1-.3,1.13,1.16.7,1.83C329.41,572.09,329.64,571.75,329.36,572.18Zm2.29-6.47c.38-.22.53-.13.47.27,0-.11,0,0,0,0C331.88,566.15,331.72,566.06,331.65,565.71Zm.65-1.89h0C332.42,563.54,332.2,564.06,332.3,563.82Zm-10.09,31h0C321.85,594.64,322.57,594.92,322.21,594.78Zm10.05-32.4c.48-.8,2.16-.27,1.72.67.16-.36-.24.49,0,0C333.47,564.12,331.66,563.39,332.26,562.38Zm-3,15.57h0c.39.3.36.46-.09.47C328.61,578,328.64,577.87,329.24,578Zm-.38,1.13c.15.12.2.22.17.31l.07,0c.2.09,0,0-.07,0a.34.34,0,0,1-.21.17C328.6,579.35,328.61,579.18,328.86,579.08Zm-3.15,9.64Zm1-2.33c.33.31-.28.34,0,0Zm2.07-3.06h0c-.41,1-1-.24-1.12-.5.33-.08,1.51-.43,1.12.49C328.76,583.26,328.78,583.2,328.73,583.33ZM333.48,570c-.24,0-.94.19-.61-.18s.51-.17.68.16A.11.11,0,0,1,333.48,570Zm2.95-8.31c-.42.36-.6.24-.54-.33q.51-.33.54.33ZM332.9,573c0,.39-.22.07,0,0Zm8-22.64c-.11.24-.06.12,0,0-.45,1-2.19.38-1.82-.57s2.31-.54,1.82.56Zm-1.69,7.15q-.46.44-.63-.27.58-.33.63.27Zm-14.9,43.71Zm2.35-6.26c.32-.31.56-.2.71.34h0C327.6,595.86,326.26,595.73,326.64,595Zm2.16-3.41Zm4.52-13a.52.52,0,0,1-.72.37c-.27-1.07.73-.92.72-.37,0,0,0,0,0,0Zm6.76-19.72c-.31-.15.16.06,0,0Zm-5.68,17.71c-.21-.29-.12-.4.27-.31-.12,0,0,0,0,0C334.86,576.54,334.77,576.64,334.4,576.59Zm-8.59,26.89c-.06-.54.07-.72.4-.54,0,0,0,.21,0,0-.06.21-.12.42-.17.63A.18.18,0,0,1,325.81,603.48ZM335,578.33c-.25-.3-.18-.49.23-.58h0C335.69,578.12,335.61,578.31,335,578.33Zm2.64-6.42c.44-.36.71-.28.8.24h0C338.1,572.49,337.84,572.41,337.67,571.91ZM332.29,590c0,.63-.06-.68,0,0Zm3.84-12.07h0Zm-5.35,15.74c-.43-.71,1-1.51,1.45-.8h0c.11.16,0,.08,0,0C332.76,593.64,331.27,594.43,330.78,593.64Zm4.51-10c-.07-.36.07-.52.43-.48h0C336.39,583.31,335.29,583.59,335.29,583.59Zm4.92-13Zm-7.5,23.82c.22.31-.42,0,0,0ZM328.8,607a2.05,2.05,0,0,0,.08.2h0v0Zm13.4-39.27c-.22-.36-.11-.46.31-.3h0C342.69,567.72,342.59,567.82,342.2,567.71Zm-4.95,18.73c-.21-.35-.09-.5.36-.47h0C337.94,586.41,337.82,586.57,337.25,586.44Zm1.69-3.24c-.87-.73-.15-2,.28-1.35h0c.24.39,0,.06,0,0A1,1,0,0,1,338.94,583.2Zm2.47-6.54c-.12.51-.29-.06,0,0Zm7.24-4.82h0v0c-.28.26-.45.2-.53-.18C348.45,571.29,348.62,571.35,348.65,571.84Zm-1.8,4.49c-.36-.21-.3-.38.16-.53C347.28,576,347.23,576.15,346.85,576.33Zm-7.53,21.92c.12.08.05.23,0,0Zm5.1-16c-.2.24-.38.21-.54-.11C344.11,581.89,344.29,581.93,344.42,582.26Zm-2.69,4.6c.16-.16-.17.19,0,0Zm-6,15.57h0C336.06,602.42,335.16,602.46,335.76,602.43Zm-2.35,5.87c.47.45-.14-.12,0,0ZM342.76,580l0,0C343.28,580.53,342.61,579.89,342.76,580ZM340,587.09c.22-.32-.17.26,0,0Zm4.53-18.75c.27.19-.35.1,0,0Zm-4.68,14.71c-.12.21-.37-.1,0,0Zm-7.24,22.83Zm1.36-3.76c.07.17,0,.09,0,0Zm2.37-4.66.18.76C335.76,598.35,335.82,597.89,336.38,597.46Zm-4.57,14.62c.06.15,0,.06,0,0Zm1.29-1.39c-.45.22-.7.07-.77-.45,0,0,1.46-.14.77.45C333.27,610.54,333,610.78,333.1,610.69ZM339.24,594c.28-.51,1.53,0,1.25.61h0c-.08.18,0,.08,0,0C340.12,595.45,338.74,594.93,339.24,594Zm-.62,5.46c.14,0,.19.17,0,0Zm-1.11,1.59c.3.48-.56.31,0,0Zm1.45-4Zm-4.78,15.74c.12-.21-.18.42,0,0ZM338,601.84h0c.94.15-.17.93-.31,1C337.48,602.47,337.07,601.69,338,601.84Zm-3,10.21c0,.54-.56,0,0,0Zm13.56-30.45c.21-.08-.65.32,0,0Zm-2.81,3.24h0c-.1.43-.37.55-.79.38C345,585,345.94,583.89,345.76,584.84Zm-7,19.53c.33.16.07.1,0,0Zm5.68-16.58h0c-.05-.09,0-.07,0,0,.41-.28.61-.16.59.35h0C345.06,588.59,344.6,588,344.46,587.79Zm-.19,3.66c0-.63,0,.21,0,0Zm-5.52,16.86c.33.46-.44.33,0,0Zm6.79-17.93c-.29-.39-.23-.64.17-.74h0C346,590,346,590.21,345.54,590.38Zm1,25.52c0,.23-.06-.46,0,0Zm9.48-35c0-.27,0,.34,0,0-.07.58-1.07.79-1,0S356.07,580.11,356,580.85ZM345.81,598.4c0,.27-.31,0,0,0Zm5.12-17c.2.16-.19.24,0,0ZM349.28,586c.33.54-.64.17,0,0Zm-3.93,14.49c.18-.41-.21.51,0,0a.84.84,0,1,1-1.55-.64A.84.84,0,0,1,345.35,600.47Zm2.81-14.35c-.41.43-.47-.4,0,0Zm-3,8.59c.16.42-.4.12,0,0Zm-6.72,25.41c0,.26-.45.16,0,0Zm3.49-9.24a.41.41,0,0,1,0,.09h0a.26.26,0,0,0,0-.09c-.43,1-2.21.31-1.84-.73a1,1,0,1,1,1.84.73l0,0c.11-.25.05-.12,0,0Zm10.9-32.57c-.18-.23-.15-.41.09-.53C353.36,578,353.33,578.2,352.87,578.31Zm1.81-.78c-.3.65-1.47.22-1.17-.46s1.47-.19,1.17.46Zm-14.9,45.36c0,.27-.89,0-.12-.53l.12.53s0-.08,0,0Zm7.8-22.54c.4.42-.42.41,0,0Zm1-2.77Zm-4.08,12.63c.19-.05.08,0,0,0Zm6.78-21.61c.4-.17.65-.08.77.28C351.72,589.14,351.47,589,351.32,588.6ZM345,610.07Zm-2.13,9.64,0,.06v0s0,0,0,0v0Zm-1.1,4.61h0C341.43,624.83,342.16,623.82,341.8,624.32Zm4.76-13.17c.21.32-.42,0,0,0Zm-.71,1.57c-.51.19-.43-.58,0,0ZM344.43,615c.41.4-.4.43,0,0Zm-1,2.84Zm4.17-14.21v0s0,.05,0,0c-.21.3-.4.27-.56-.08.27-.29.46-.26.56.08Zm5.31-17a1.38,1.38,0,0,1,1.07-1l.09.08C354.77,586.4,353.12,587.41,352.92,586.64Zm1.68-1.31h0l.48.42C354.12,586.1,354.06,585.29,354.6,585.33Zm-.53,4c.27.34-.31.36,0,0Zm1.56-2.54c-.17-.17.45.38,0,0Zm3.31-8c-.29.22-.46.15-.52-.21.32-.46.5-.39.52.21C358.93,578.63,358.94,578.82,358.94,578.78Zm1,2.53Zm-1.23,6.93Zm6.19-6.1c.49.43.43.63-.17.6C364.46,582.39,364.51,582.19,364.92,582.14Zm-1.6,2.62Zm1.62-6.6a.68.68,0,0,1-.9.37c-.46-1.14,1-1.13.9-.37C365,577.92,364.88,578.46,364.94,578.16Zm-2.63,9.48h0l.36.41C361.7,588.45,362,587.5,362.31,587.64Zm2.29-2.94c0,.21-1.89,0-.15-.87l.15.87C364.62,584.47,364.58,584.9,364.6,584.7Zm.67,1.12c.17,0,.24.19,0,0Z" transform="translate(-109.84 -237.11)"/></g></svg>