<svg version="1.1" xmlns="http://www.w3.org/2000/svg" width="64" height="64" viewBox="-12.5 2.1 64 64" enable-background="new -12.5 2.1 64 64">
<g id="logo">
	<path id="Fill-1" fill="#D2AE6E" d="M20.2,8.4c-1.5,0-3.1,0.1-4.6,0.4l0,0l0,0l0.2,0.9l0,0.1l0,0c0.5-0.2,0.9-0.2,1.3-0.2
		c0.4,0,0.8,0,1.1-0.3l0.1,0l0.1,0.1l0,0.2l0,0.2l0,0.1l0.2,0c0.1,0,0.2,0,0.3,0.1l0,0l0,0c0.4-0.3,0.8-0.4,1.2-0.5l0,0L20.2,8.4
		L20.2,8.4L20.2,8.4z M10.6,13.8L10.6,13.8L10.6,13.8L10.6,13.8c0.2-0.1,0.4-0.2,0.6-0.2c0.2,0,0.4,0,0.5,0c0.2,0,0.4,0,0.5,0
		c0.2,0,0.4,0,0.6-0.1l0.1,0l0,0.1c-0.2,0.1-0.4,0.1-0.7,0.1c-0.1,0-0.3,0-0.4,0l-0.2,0l0.3,0.2l0,0.1l-0.1,0l-0.6-0.4l0,0h0h0
		c-0.2,0-0.3,0-0.4,0.1l0,0l0,0v0l0.6,0.4l0,0.1l-0.2,0l-0.5-0.3l-0.1,0l0,0.1c0,0.2-0.1,0.4-0.2,0.6l0,0.1h0.1
		c1.4,0,2.5-0.7,2.9-1.4l0-0.1l-0.1,0l-0.2,0c-0.1,0-0.2,0-0.3,0h0l-0.2,0c-0.2,0-0.3-0.1-0.4-0.2l0,0h0c-0.1,0-0.2-0.1-0.3-0.1l0,0
		l-0.2,0.3l-0.1,0l0-0.1l0.1-0.2l0-0.1l-0.3,0h0l-0.3,0.4l-0.2,0l0-0.1l0.1-0.2l0.1-0.1l-0.3,0l-0.1-0.1l0,0l0,0l0.1,0
		c0.2-0.1,0.4-0.1,0.6-0.1l0,0h0c0.3,0,0.5,0,0.7,0.1l0.1,0l0-0.1c0-0.3,0.2-0.5,0.6-0.5l0.2,0l0,0l0,0c0.7-0.4,1.1-0.9,1.3-1.5v0v0
		l0-0.1c0-0.1,0-0.2,0.1-0.3v0l0-0.2v-0.1l-0.1,0c-0.1,0.1-0.2,0.1-0.3,0.1h0l-0.1,0c-0.2,0-0.4,0.1-0.5,0.1
		c-0.5,0.1-1.1,0.1-1.4,0.8l0,0l0,0c0.1,0.1,0.2,0.3,0.2,0.4c0,0.1-0.1,0.3-0.2,0.4c-0.1,0.1-0.2,0.2-0.4,0.2c-0.1,0-0.2,0-0.3-0.1
		l-0.1,0l0,0.1c-0.1,0.3-0.2,0.5-0.4,0.7L10.6,13c-0.1,0.1-0.2,0.1-0.3,0.2l-0.1,0l0-0.2c0.5-0.3,0.7-0.7,0.7-1.2
		c0-0.2,0-0.3-0.1-0.5l0-0.1l-0.1,0.1c-0.1,0.1-0.2,0.1-0.3,0.2l0,0c-0.1,0.1-0.3,0.1-0.4,0.1c-0.3,0.1-0.7,0.2-1.1,0.6l0,0l0.1,0
		c0.2,0.1,0.3,0.3,0.3,0.5c0,0.3-0.2,0.6-0.6,0.6c-0.2,0-0.4-0.2-0.5-0.4l0-0.1l-0.2,0.3L8,13.3l0,0.2c0,0.1,0,0.2,0.1,0.3L8.1,14v0
		l0.2,0.1l0,0l0,0h0c0.1,0,0.2,0,0.3-0.1l0-0.2l0-0.1l0,0l0.1-0.1l0,0l0.1,0.1l0,0.2c0,0.1,0,0.2-0.1,0.3c-0.1,0.1-0.2,0.1-0.3,0.2
		h0l0,0l0,0l0,0.2v0l0.1,0.1l0.1,0.1l0,0l0,0l0,0c0.2-0.2,0.4-0.2,0.6-0.2h0.1c0.1,0,0.2,0,0.3-0.1l0.2,0l0,0.1
		c-0.2,0.1-0.3,0.1-0.5,0.1h0H9.3c-0.2,0-0.4,0-0.5,0.2l0,0v0l0,0.1l0,0.1v0l0.1,0.2l0,0l0,0c0.1,0.1,0.3,0.2,0.5,0.2l0.2,0h0l0.1,0
		l0.2-0.1C10.3,15.1,10.5,14.2,10.6,13.8L10.6,13.8z M12.8,10.7l0.1-0.1l0.1,0.1l-0.2,0.4l-0.1,0.1l-0.1-0.1L12.8,10.7z M12.2,12
		L12.2,12L12.2,12L12.2,12c0.2-0.2,0.5-0.4,0.7-0.5c0.4-0.3,0.8-0.5,0.9-0.9l0.1-0.1l0-0.1l0.1,0.2c-0.1,0.4-0.3,0.6-0.6,0.8
		l-0.1,0.1h0.1l0.1,0.1l-0.1,0.1h-0.5l0,0c-0.1,0.1-0.2,0.1-0.3,0.2l-0.1,0.1h0.2l0.1,0.1l-0.1,0.1h-0.5l-0.1,0.1l-0.1,0l0-0.1
		L12.2,12z M9.5,12l0.1-0.1h0l0.1,0.1l0,0.3v0l-0.1,0.1h0l-0.1-0.1L9.5,12L9.5,12z M10,12.3c0.3-0.2,0.5-0.4,0.5-0.7l0-0.1l0.1,0
		l0.1,0.1v0c0,0.4-0.3,0.7-0.6,0.9c-0.2,0.1-0.4,0.3-0.5,0.5l-0.2,0l0-0.1C9.6,12.6,9.8,12.4,10,12.3z M9.7,14.3
		c-0.3,0-0.6-0.2-0.6-0.5c0-0.3,0.2-0.5,0.6-0.6c0.3,0,0.5,0.2,0.5,0.6C10.2,14,10,14.3,9.7,14.3z M8.4,12.1l0,0.1l0,0.1l0.1-0.1
		l0.1,0l0.1,0L8.4,12.1L8.4,12.1z M14.7,11.3c-0.1,0-0.3-0.1-0.4-0.1l0-0.1l0,0.1c-0.2,0.4-0.4,0.8-0.8,1.1l-0.1,0.1
		c-0.1,0.1-0.2,0.1-0.3,0.2l0,0l0,0c0.1,0.1,0.1,0.2,0.1,0.3c0,0.1,0,0.2-0.1,0.3l0,0.1h0.1c0.1,0,0.3,0,0.4-0.1l0.1,0l0,0.1
		c-0.1,0.2-0.1,0.3-0.2,0.5l0,0l0.1,0c0.4,0.2,0.9,0.3,1.3,0.3l0.1,0l-0.8-1.1l-0.2,0l-0.1-0.1l0.1-0.1l0.2,0l0.1,0
		c0.3,0.1,0.6,0.1,0.8,0.2c0.3,0.1,0.7,0.3,1.1,0.3c0.1,0,0.3,0,0.4,0h0l0.1,0.1v0l-0.1,0.1c-0.1,0-0.3,0-0.4,0
		c-0.2,0-0.5,0-0.7-0.1l-0.1,0l0.5,0.6l0,0h0c0.5-0.1,1-0.4,1.2-0.8l0.1-0.1h-0.1c-0.3,0-0.6-0.1-0.9-0.2l0,0l-0.1,0
		c-0.2,0-0.3-0.1-0.4-0.2l0,0h0c-0.1,0-0.2-0.1-0.3-0.1l0,0.1l0,0l0,0.2L15.2,13L15,13l0-0.1l0.2-0.1l0.1,0l0-0.1
		c-0.2-0.1-0.4-0.1-0.6-0.2l0,0h0l0,0.2l-0.2,0.1l-0.1,0l0-0.1l0.2-0.1l0.1-0.1l-0.1,0c-0.1,0-0.2,0-0.3,0c-0.2,0-0.4,0-0.7,0.1
		l-0.1-0.1l0-0.1l0,0l0,0c0.3-0.1,0.5-0.1,0.7-0.1c0.4,0,0.8,0.1,1.2,0.2l0.1,0l0-0.1c0-0.3,0.3-0.5,0.6-0.5h0l0,0l0,0
		c1-0.4,1.6-0.9,1.9-1.5l0,0v0c0-0.1,0-0.2,0.1-0.2v0v0c0-0.1,0-0.3,0-0.4V9.6l-0.1,0c-0.1,0-0.2,0.1-0.3,0.1l0,0.1l0,0l0,0.2
		c-0.2,0.3-0.5,0.6-0.8,0.8L17,10.8l0.2,0l0.1,0.1v0L17.1,11l0,0l-0.5,0l0,0l0,0c-0.1,0-0.2,0.1-0.3,0.1l-0.1,0.1l0.3,0l0.1,0.1
		l-0.1,0.1l-0.6-0.1l0,0l0,0c-0.2,0.1-0.4,0.1-0.6,0.2l0,0.1l0.5,0l0.1,0.1v0l-0.1,0.1h0l-1,0l0,0L14.5,12h-0.2v-0.2l0.2-0.2l0,0
		c0.3-0.3,0.8-0.4,1.2-0.6c0.7-0.3,1.5-0.5,2-1.2l0,0l0-0.1c-0.2,0-0.4,0.1-0.7,0.1c-0.6,0-1.2,0.1-1.9,0.6l0,0l0,0
		c0.1,0.1,0.1,0.2,0.1,0.3C15.3,11,15,11.3,14.7,11.3z M16.5,10.1l0.2,0l0,0.1l-0.2,0.4l-0.1,0l0-0.1L16.5,10.1z M15.7,10.4l0.1,0
		l0,0.2l-0.2,0.3l-0.1,0l0-0.1L15.7,10.4z M9.7,13.4c-0.2,0-0.3,0.2-0.3,0.3c0,0.2,0.1,0.3,0.3,0.3c0.2,0,0.3-0.2,0.3-0.3
		C10,13.6,9.9,13.4,9.7,13.4z M10.3,11.3L10.3,11.3L10,10.2l0,0c-0.5,0.2-0.9,0.4-1.4,0.6l0,0L8.9,12l0-0.1c0.4-0.4,0.8-0.5,1.1-0.6
		C10.2,11.3,10.2,11.3,10.3,11.3z M8.4,12.7c0,0.2,0.1,0.3,0.3,0.3c0.2,0,0.3-0.1,0.3-0.3c0-0.2-0.2-0.3-0.3-0.3
		C8.6,12.3,8.4,12.5,8.4,12.7z M11,6.7l-0.1-0.2l0,0l-0.1,0C10.5,6.6,10,6.8,9.4,7h0h0h0l0,0l0,0l0,0L8.4,4.4L8.2,4.5l0,0L9,7.1
		l0,0.1v0l0,0l0,0C8.5,7.4,8,7.6,7.6,7.9l0,0l0,0.1l0,0.1l0,0C8.7,7.5,9.8,7.1,11,6.7L11,6.7z M20.9,4.8c0.7,0,1.2,0,1.7,0.1l0,0
		V2.2h0c-0.5,0-1.1-0.1-1.7-0.1h-0.1L20.9,4.8L20.9,4.8z M20.1,4.8L20.1,4.8L20.1,4.8l0-2.6h-0.1c-0.6,0-1.2,0-1.8,0.1h0v2.7l0,0
		C18.9,4.8,19.5,4.8,20.1,4.8z M20.5,5.2c0.7,0,1.4,0,2.1,0.1h0V5l0,0c-0.5,0-1.1,0-1.8-0.1l0,0l0,0l0,0l0,0l0-2.7l-0.2,0h0l0,2.7
		L20.3,5c-0.7,0-1.4,0-2,0.1h0v0.3h0C19,5.3,19.8,5.2,20.5,5.2z M27.7,8.6L27.7,8.6l0.5-2.2l0,0c-1.1-0.3-2.3-0.5-3.5-0.6h0L24.3,8
		l0,0C25.5,8.1,26.6,8.3,27.7,8.6z M31.6,6.8L31.6,6.8L31.6,6.8l0.6-1.4l0.3-0.8l0,0l0,0c-0.5-0.2-1-0.4-1.5-0.6l0,0l-0.7,2.4l0,0
		C30.7,6.4,31.1,6.6,31.6,6.8z M28.1,6.2L28.1,6.2L28.2,6l0-0.1h-0.1c-0.4-0.1-0.9-0.2-1.4-0.3l-0.1,0l0-0.1v0l0.5-2.6l-0.2,0l0,0
		l-0.5,2.6l-0.1,0.1h0c-0.5-0.1-1.1-0.2-1.6-0.3l0,0l0,0.2l0,0.1l0,0C25.9,5.6,27,5.9,28.1,6.2z M26.2,5.3L26.2,5.3L26.2,5.3
		l0.5-2.5l0,0c-0.5-0.1-1-0.2-1.6-0.3l0,0L24.7,5l0,0C25.2,5.1,25.7,5.2,26.2,5.3z M20.4,7.7c0.7,0,1.5,0,2.2,0.1l0,0V5.5l0,0
		c-0.7,0-1.4-0.1-2.1-0.1c-0.8,0-1.5,0-2.3,0.1l0,0v2.3l0,0C19,7.8,19.7,7.7,20.4,7.7z M9.5,6.8c0.5-0.2,1-0.4,1.3-0.5l0,0l-0.7-2.5
		l0,0C9.7,4,9.1,4.1,8.6,4.3l0,0L9.5,6.8L9.5,6.8z M12.7,5.7c0.5-0.1,1-0.2,1.4-0.3l0,0l0,0l-0.4-2.6l-0.1,0c-0.5,0.1-1,0.2-1.5,0.3
		l0,0L12.7,5.7L12.7,5.7z M8.8,7.1L7.9,4.6l0,0C7.5,4.8,7.1,5,6.7,5.2l0,0l0.8,2.4l0,0C7.9,7.4,8.3,7.3,8.8,7.1L8.8,7.1z M12.9,6.4
		L12.9,6.4l0.4,2.2l0,0c1.1-0.3,2.3-0.5,3.5-0.6l0,0l-0.3-2.3l0,0C15.2,5.9,14,6.1,12.9,6.4z M8.3,10.2c1-0.5,2.1-0.8,3.2-1.2l0,0v0
		l-0.6-2l0,0C9.8,7.3,8.7,7.8,7.7,8.3l0,0L7.9,9L8.3,10.2L8.3,10.2z M14.4,5.5L14.4,5.5L14.4,5.5c-0.6,0.2-1.1,0.3-1.7,0.4l0,0
		l0,0.2l0,0l0.1,0c1.2-0.3,2.4-0.5,3.6-0.7l0,0l0-0.2l0,0l0,0c-0.6,0.1-1.1,0.2-1.6,0.2l0,0h0l-0.1-0.1l-0.5-2.7l-0.2,0l0,0
		L14.4,5.5L14.4,5.5z M14.9,5.2c0.4-0.1,0.9-0.2,1.4-0.2l0,0L16,2.4h0c-0.5,0.1-1,0.1-1.5,0.2l0,0L14.9,5.2L14.9,5.2z M27,5.4
		c0.4,0.1,0.8,0.2,1.2,0.3l0.1,0l0,0l0.5-2.5l0,0c-0.4-0.1-0.8-0.2-1.3-0.3l0,0L27,5.4L27,5.4z M10.5,15.1L10.5,15.1L10.5,15.1
		l-0.2,0.2l-0.1,0.1l0.1,0c0.2-0.1,0.5-0.1,0.7-0.2l0-0.1C10.9,15.1,10.7,15.1,10.5,15.1z M12.4,12.9c0,0.2,0.2,0.3,0.3,0.3
		c0.2,0,0.3-0.2,0.3-0.3c0-0.2-0.1-0.3-0.3-0.3C12.5,12.5,12.4,12.7,12.4,12.9z M19,14.1c-0.7,0-1.4-0.2-1.9-0.5l0,0l0,0
		c-0.5,0.4-1.1,0.7-1.9,0.7h-0.1c-0.5,0-1.1-0.1-1.7-0.3l0,0l0,0c-0.3,0.3-0.7,0.6-1.1,0.8l0,0.1C14.4,14.5,16.7,14.2,19,14.1
		L19,14.1L19,14.1z M14.8,8.9L14.8,8.9c-1.4,0.3-2.8,0.6-4.1,1l0,0l0.3,0.7v0l0.1,0.1c0,0.2,0.1,0.3,0.1,0.4l0,0.1l0.1,0
		c0.1-0.1,0.2-0.1,0.3-0.1l0.1,0l0,0l0,0c0.4-0.8,1-0.9,1.6-0.9c0.4-0.1,0.8-0.1,1.1-0.4l0.1,0l0.1,0.1v0c0,0.1,0,0.2,0,0.3v0.1
		l0.2,0c0.1,0,0.2,0,0.2,0.1l0,0l0,0l0,0l0-0.1L14.8,8.9z M15.1,10.7c0-0.2-0.2-0.3-0.3-0.3c-0.2,0-0.3,0.2-0.3,0.3
		c0,0.2,0.2,0.3,0.3,0.3C14.9,11.1,15.1,10.9,15.1,10.7z M31,15.5L31,15.5c-0.6-0.1-1.1-0.4-1.5-0.8l0,0l0,0
		c-0.3,0.1-0.6,0.2-0.9,0.2l-0.1,0h-0.2c-0.2,0-0.4,0-0.6,0l0,0c-0.2,0-0.5-0.1-0.7-0.2l-0.1,0c-0.5-0.2-1-0.5-1.4-0.9l0,0l0,0
		c-0.5,0.4-1,0.5-1.7,0.5c-0.7,0-1.6-0.2-2.6-0.7l0,0l0,0c-0.3,0.2-0.7,0.4-1.1,0.5h0c-0.2,0.1-0.4,0.1-0.7,0.1v0.1h0
		c0.1,0,0.3,0,0.4,0c3.6,0,7.3,0.5,11.2,1.4l0,0.1l0,0.1l0.1-0.1l0.2-0.1l0.1-0.1L31,15.5L31,15.5z M11.2,11.7L11.2,11.7
		c0,0.2,0.2,0.4,0.3,0.4c0.2,0,0.3-0.1,0.3-0.3c0-0.2-0.1-0.3-0.3-0.3C11.4,11.4,11.2,11.5,11.2,11.7z M32.1,12.7L32.1,12.7
		L32.1,12.7L32,12.6l0,0c-0.1,0.1-0.3,0.2-0.4,0.2c-0.2,0-0.4-0.1-0.5-0.4l0-0.1l-0.1,0c-0.3,0.3-0.6,0.5-0.9,0.6l0,0l0,0.1
		c0,0.3-0.2,0.5-0.5,0.5l-0.1,0l0.1,0.1c0.2,0.2,0.4,0.3,0.6,0.4l0.1,0.1l-0.1,0.1c-0.1,0.1-0.3,0.1-0.4,0.2l-0.1,0l0.1,0.1
		c0.6,0.4,1.1,0.7,1.5,0.7l0.2,0l0.2,0l0.1,0l0.1,0l-0.1,0c-0.3-0.1-0.5-0.4-0.8-0.6l-0.2-0.2l-0.1,0L31,15l-0.1,0.1l-0.1-0.1
		l-0.2-0.5l0.1-0.2h0.1h0.1l-0.1-0.1c-0.2-0.1-0.3-0.3-0.5-0.3l-0.1-0.1l0.1-0.1c0.4,0.1,0.6,0.4,0.9,0.7c0.3,0.3,0.5,0.5,0.9,0.6
		l0.1,0l-0.2-0.3l0,0l-0.1-0.2l0,0h0c-0.3-0.1-0.5-0.3-0.5-0.5l0-0.1l0,0l0,0c-0.2-0.2-0.5-0.3-0.9-0.3l-0.1-0.1v0l0.1-0.1h0
		c0.4,0.1,0.8,0.2,1,0.3l0,0l0,0c0.1-0.1,0.1-0.1,0.2-0.1l0.1,0l0.1,0l0,0l0,0c0.1,0,0.2-0.1,0.3-0.1l0,0c0.1-0.1,0.2-0.2,0.3-0.4
		l0-0.1l-0.1,0C32.3,12.8,32.2,12.7,32.1,12.7z M30,6.9L30,6.9l-0.7,2.2l0,0c1.1,0.3,2.2,0.7,3.3,1.2l0.1,0l0.7-2l0,0
		C32.3,7.8,31.2,7.3,30,6.9z M32,7.2L32,7.2L32,7.2L32,7.2L32,7.2L32,7.2L32,7v0v0l0.6-1.5l0.3-0.8l0,0l-0.2-0.1l0,0l-0.9,2.4l0,0
		l0,0l0,0h0l-0.1,0c-0.5-0.2-1-0.4-1.5-0.5l0,0l-0.1,0.2l0,0l0,0c1.2,0.4,2.3,0.8,3.4,1.4l0,0l0.1-0.2l0,0l0,0
		C33.1,7.6,32.6,7.4,32,7.2z M34.4,5.4C34,5.2,33.5,5,33.1,4.8l0,0L32.2,7l0,0c0.5,0.2,0.9,0.4,1.3,0.6l0,0L34.4,5.4L34.4,5.4z
		 M31.1,10.3L31.1,10.3L31,10.5l-0.3,0.9l0,0l0,0c0.2,0.1,0.4,0.1,0.5,0.1l0.2,0l0.1,0l0,0.1l0,0.1l0,0.1l0.1,0
		c0.2,0,0.4,0.2,0.4,0.4l0,0.2l0.5-1.4l0,0C32,10.7,31.6,10.5,31.1,10.3z M14.9,13.3c-0.1,0-0.2-0.1-0.3-0.1l-0.1,0l0.1,0.1l0.7,0.9
		h0c0.1,0,0.2,0,0.3,0l0.1,0L14.9,13.3L14.9,13.3z M28.8,9.1L28,8.9l0,0l0-0.1c-1.3-0.3-2.7-0.6-4-0.7l-0.8-0.1
		c-0.9-0.1-1.8-0.1-2.8-0.1c-0.8,0-1.6,0-2.5,0.1l-0.8,0.1c-1.4,0.1-2.7,0.4-4.1,0.7l-0.9,0.2c-1.3,0.3-2.5,0.8-3.8,1.3l0,0l0.1,0.2
		l0,0l0,0c0.5-0.2,1-0.4,1.5-0.6l0.2,0.1l0.4,1.1l0.2-0.2l0,0l-0.4-1l0.1-0.2c1.4-0.5,2.9-0.9,4.4-1.1h0L15,8.8l0.2,1.3l0.2-0.1l0,0
		l-0.2-1.2l0,0l0.1-0.1c1.6-0.3,3.3-0.4,4.9-0.4l0,0l0.1,0.1l0,1.1v0l0.2,0h0V8.3l0,0l0,0l0,0l0,0l0.1,0c1.7,0,3.3,0.2,4.9,0.5l0,0
		l0,0l0,0l0,0l0,0.1v0l0,0l0,0l-0.2,1.3l0.2,0l0,0l0.2-1.3l0.1-0.1h0c1.5,0.3,2.9,0.7,4.4,1.2l0,0l0.1,0.1l0,0.1l-0.4,1.2l0.2,0l0,0
		l0,0l0.3-0.9l0.1-0.2l0,0l0,0l0,0h0l0,0v0h0c0.5,0.2,1,0.4,1.5,0.6l0,0l0.1-0.2l0,0l0,0C31.4,9.9,30.1,9.5,28.8,9.1z M31.9,13.6
		c-0.2,0-0.3,0.2-0.3,0.3c0,0.2,0.2,0.3,0.3,0.3h0l0.1,0l0.1,0l0,0l0.1-0.2l0,0v0C32.2,13.8,32.1,13.6,31.9,13.6z M28.5,14.6
		L28.5,14.6c0.3,0,0.6-0.1,0.8-0.2l0-0.1c-0.4,0-0.7-0.2-1.1-0.4l-0.1-0.1L28.5,14.6L28.5,14.6z M30.5,11.6l-0.2-0.1
		c-0.4-0.1-0.8-0.3-1.3-0.3c-0.2,0-0.4,0-0.6,0.1l0,0l0,0.1c0,0.3-0.3,0.5-0.6,0.5c-0.2,0-0.4-0.2-0.5-0.4l0-0.1l0,0
		c-0.4,0.3-0.9,0.5-1.7,0.7l0,0l0,0.2c0,0.2-0.1,0.3-0.2,0.4l-0.1,0.1l0.1,0c0.1,0.1,0.3,0.1,0.4,0.1h0l0.1,0.1l0,0.1
		c-0.1,0.1-0.2,0.2-0.3,0.3l0,0l0,0c0.3,0.3,0.7,0.5,1,0.7l0.1,0l-0.5-1.4l0,0c-0.1,0-0.2-0.1-0.4-0.1h0l-0.1-0.1l0,0h0l0.1-0.1h0
		c0.2,0,0.3,0,0.5,0.1h0c0.2,0.1,0.5,0.2,0.7,0.3l0,0c0.2,0.1,0.5,0.3,0.7,0.4c0.5,0.4,1.1,0.7,1.6,0.7l0.1,0.1l0,0.1l0,0.1l0.1,0
		c0.1,0,0.2-0.1,0.3-0.1l0.1,0l-0.1,0c-0.3-0.2-0.6-0.5-0.9-0.8c-0.5-0.5-1-1.1-1.9-1.1c-0.2,0-0.3,0-0.5,0l0,0l-0.1-0.1l0,0
		l0.1-0.1c0.2,0,0.4-0.1,0.5-0.1c0.3,0,0.6,0.1,0.9,0.2l0,0l0,0c0.2-0.1,0.5-0.2,0.8-0.2h0l0.6-0.7l0.2,0l0,0.1L29,12.1L29,12.1h0.1
		c0.1,0,0.2,0,0.2,0h0l0.5-0.6l0.2,0l0,0.2l-0.3,0.4l-0.1,0.1h0.1c0.4,0,0.7,0,1-0.2l0.2,0l0,0.2c-0.3,0.2-0.7,0.2-1.1,0.2h-0.3h0
		h-0.1H29c-0.3,0-0.6,0-0.9,0.1l-0.1,0l0.1,0c0.3,0.2,0.5,0.4,0.7,0.6l0.1,0.1l0-0.1c0-0.3,0.3-0.5,0.5-0.5c0.2,0,0.4,0.1,0.5,0.3
		l0,0l0,0c0.4-0.2,0.7-0.4,1-0.8l0,0v0c0-0.1,0.1-0.2,0.2-0.3l0,0l0-0.1l0.1-0.1h-0.1C31,11.7,30.8,11.6,30.5,11.6z M28,13.2
		l0.2-0.1l0.1,0l0,0.1l-0.2,0.1l-0.2,0L28,13.2z M27.5,12.9l0.3-0.1l0.1,0l0,0.1l-0.3,0.1L27.4,13L27.5,12.9z M25.1,12.1
		c-0.2,0-0.3,0.1-0.3,0.3c0,0.2,0.1,0.3,0.3,0.3c0.2,0,0.3-0.2,0.3-0.3C25.4,12.3,25.3,12.1,25.1,12.1z M18.9,10.3
		c0-0.2-0.2-0.3-0.3-0.3c-0.2,0-0.3,0.2-0.3,0.3c0,0.2,0.2,0.3,0.3,0.3C18.8,10.7,18.9,10.5,18.9,10.3z M27.9,11.8
		c0.2,0,0.3-0.2,0.3-0.3c0-0.2-0.1-0.3-0.3-0.3c-0.2,0-0.3,0.2-0.3,0.3C27.6,11.6,27.7,11.8,27.9,11.8z M31.5,12.6
		c0.2,0,0.3-0.2,0.3-0.3c0-0.2-0.2-0.3-0.3-0.3c-0.2,0-0.3,0.1-0.3,0.3C31.2,12.5,31.3,12.6,31.5,12.6z M27.8,14.6
		c0.1,0,0.2,0,0.4,0l0.1,0l0-0.1l-0.5-0.9l0,0c-0.1-0.1-0.2-0.1-0.2-0.2l-0.1-0.1L27.8,14.6L27.8,14.6z M29.1,13.2
		c0,0.2,0.2,0.3,0.3,0.3c0.2,0,0.3-0.2,0.3-0.3c0-0.2-0.1-0.3-0.3-0.3C29.2,12.8,29.1,13,29.1,13.2z M26.9,13.2
		c-0.1-0.1-0.2-0.1-0.3-0.2l-0.1,0l0,0.1l0.5,1.3l0,0c0.1,0,0.2,0.1,0.4,0.1l0.1,0L26.9,13.2L26.9,13.2z M25.5,8.8
		c-1.5-0.3-3-0.4-4.6-0.4h0l0,1v0h0c0.2,0,0.4,0,0.6,0.1c0.3,0,0.6,0.1,0.8,0.1c0.3,0,0.5,0,0.8-0.1l0.1,0l0,0.1
		c0,0.1,0,0.3-0.1,0.4l0,0.1l0.1,0c0.2,0,0.3,0.1,0.4,0.2l0,0l0,0c0.5-0.2,0.9-0.2,1.3-0.2h0.2l0,0L25.5,8.8L25.5,8.8z M19.1,10.1
		L19.1,10.1L19.1,10.1l0,0.3c0,0.3-0.2,0.6-0.5,0.6c-0.2,0-0.3-0.1-0.4-0.2l0-0.1l0,0.1c-0.3,0.5-0.8,0.9-1.6,1.3l-0.1,0l0,0
		c0.1,0.1,0.2,0.2,0.2,0.4c0,0.1-0.1,0.3-0.2,0.4l0,0l0.1,0c0.2,0.1,0.4,0.1,0.6,0.1c0.1,0,0.2,0,0.3-0.1l0.1,0l0,0.1
		c-0.1,0.1-0.1,0.2-0.2,0.3l0,0l0,0c0.5,0.3,1.1,0.4,1.8,0.4c0.2,0,0.4,0,0.6-0.1l0.1,0l-0.9-0.8h0c-0.2-0.1-0.4-0.1-0.5-0.2
		l-0.2-0.1l0.5,0.7l0,0.1l-0.1,0l-0.7-1l0,0c-0.2-0.1-0.4-0.1-0.6-0.1h-0.1h0L17,12.4v0l0.1-0.1l0.1,0c0.2,0,0.5,0.1,0.7,0.1l0,0
		c0.1,0,0.3,0.1,0.4,0.2c0.5,0.2,1,0.5,1.9,0.5c0.1,0,0.3,0,0.4,0l0,0l0.1,0.1v0l-0.1,0.1c-0.2,0-0.3,0-0.4,0c-0.3,0-0.5,0-0.7-0.1
		l-0.2,0l0.7,0.6l0,0c0.4-0.1,0.7-0.2,1-0.5l0.1-0.1l0.2-0.2l0-0.1l-0.1,0c-0.3-0.1-0.6-0.2-0.9-0.4v0h0c-0.1,0-0.2-0.1-0.3-0.2l0,0
		h0c-0.5-0.3-1.1-0.6-1.8-0.6c-0.3,0-0.6,0.1-0.9,0.2l-0.1-0.1l0.1-0.1c0.3-0.1,0.7-0.2,1-0.2c0.1,0,0.2,0,0.3,0l0,0l0,0
		c0.1-0.1,0.2-0.2,0.3-0.3l0,0c0.5-0.4,1.2-0.5,1.9-0.6c0.7-0.1,1.4-0.2,1.8-0.7l0.2,0l0,0.1c-0.3,0.3-0.7,0.5-1.1,0.6l0,0.1l0.1,0
		l0.1,0.1L21.6,11h0l-0.8-0.2h0h-0.1c-0.2,0-0.3,0-0.5,0.1l0,0.1l0.5,0.1l0.1,0.1l-0.1,0.1l-1-0.3h0c-0.2,0.1-0.3,0.1-0.5,0.2
		l-0.1,0l0.6,0.2l0.1,0.1l-0.1,0.1l-0.7-0.2l0,0l-0.1,0.1l-0.1,0.1l0.1,0c0.4,0.1,0.7,0.3,1.1,0.4l0.1,0l0-0.1
		c0-0.3,0.3-0.5,0.5-0.5l0.1,0h0l0,0c0.8-0.1,1.6-0.5,2.1-1.1l0,0c0-0.2,0.1-0.3,0.2-0.4l0,0v0c0.1-0.1,0.1-0.2,0.1-0.3l0-0.1
		l-0.1,0c-0.2,0.1-0.4,0.1-0.7,0.1c-0.3,0-0.5,0-0.8-0.1c-0.3,0-0.6-0.1-0.9-0.1C20.2,9.6,19.6,9.7,19.1,10.1z M19.1,12.4l0.4-0.1h0
		l0.1,0.1l-0.1,0.1l-0.4,0.1L19,12.6L19.1,12.4z M18.2,12.1l0.4-0.1l0.1,0.1l-0.1,0.1l-0.4,0.1l-0.1-0.1L18.2,12.1z M19.5,10.6
		l-0.1,0l0-0.1l0.2-0.3l0.1,0l0,0.1L19.5,10.6z M20.2,10.4l-0.1,0l0-0.1l0.2-0.3l0.1,0l0,0.1L20.2,10.4z M21.1,9.9l0.1,0l0,0.1
		l-0.2,0.3l-0.1,0l0-0.1L21.1,9.9z M16.1,12.1c-0.2,0-0.3,0.1-0.3,0.3c0,0.2,0.1,0.3,0.3,0.3c0.2,0,0.3-0.2,0.3-0.3
		C16.4,12.2,16.3,12.1,16.1,12.1z M23.3,10.9c0.2,0,0.3-0.2,0.3-0.3c0-0.2-0.2-0.3-0.3-0.3c-0.2,0-0.3,0.1-0.3,0.3
		C22.9,10.7,23.1,10.9,23.3,10.9z M30.3,10.1c-1.3-0.4-2.7-0.8-4-1.1l0,0l0,0l-0.2,1.1l0,0c0.2,0,0.3,0.1,0.4,0.1
		c0.3,0.1,0.6,0.2,0.8,0.2c0.1,0,0.2,0,0.3,0l0.1,0l0,0.1c0,0.1,0,0.2-0.1,0.3l0,0.1l0.1,0c0.2,0,0.3,0.1,0.4,0.2l0,0l0,0
		c0.2-0.1,0.5-0.1,0.7-0.1c0.3,0,0.7,0.1,0.9,0.1l0,0L30.3,10.1L30.3,10.1z M23.8,10.5L23.8,10.5L23.8,10.5L23.8,10.5
		c0,0.4-0.3,0.6-0.6,0.6c-0.2,0-0.4-0.1-0.5-0.3l0-0.1l0,0.1c-0.5,0.5-1.1,0.8-1.8,0.9l-0.1,0l0,0.1c0.1,0.1,0.1,0.2,0.1,0.3
		c0,0.2-0.1,0.3-0.2,0.4l-0.1,0l0.1,0c0.2,0.1,0.4,0.2,0.7,0.2h0.1l0.1,0.1l0,0.1c-0.1,0.1-0.2,0.2-0.3,0.3l0,0l0.1,0
		c0.9,0.4,1.7,0.7,2.4,0.7c0.7,0,1.3-0.2,1.8-0.8l0.1,0l-0.1,0c-0.1,0-0.3-0.1-0.4-0.2l0,0h0c-0.2,0-0.4-0.2-0.5-0.4l0,0l0,0
		c-0.5-0.4-1.2-0.9-2-0.9c-0.2,0-0.5,0-0.7,0.1l-0.1-0.1l0.1-0.1c0.3-0.1,0.5-0.1,0.8-0.1c0.8,0,1.4,0.4,2,0.8l0.1,0l0-0.1
		c0.1-0.2,0.3-0.4,0.5-0.4c0.2,0,0.3,0.1,0.4,0.1l0,0h0c1.6-0.3,2.1-0.9,2.1-1.4l0-0.1l-0.1,0l-0.2,0c-0.3,0-0.6-0.1-0.9-0.2
		c-0.4-0.1-0.9-0.2-1.4-0.2C24.7,10.3,24.3,10.3,23.8,10.5z M23.5,12.2L23.5,12.2l0.1,0.1l-0.1,0.1l-0.4,0.1L23,12.4l0.1-0.1
		L23.5,12.2z M22.4,11.9L22.4,11.9l0.5-0.1h0l0.1,0.1l-0.1,0.1l-0.4,0.1l-0.2-0.1l0,0L22.4,11.9L22.4,11.9z M22.9,12.6
		c0.3,0.2,0.5,0.3,0.8,0.4l0.1-0.1l0,0v0l0.1-0.1l0.4-0.1l0.1,0.1l0,0l-0.1,0.1L23.9,13l0,0.1c0.3,0.1,0.5,0.2,0.8,0.2
		c0.1,0,0.2,0,0.3,0l0.1,0.1L25,13.5c-0.1,0-0.2,0.1-0.4,0.1c-0.3,0-0.6-0.1-0.9-0.2l-0.1-0.1l0.1,0.3l0,0.1l-0.2,0l-0.3-0.5l0,0
		l0,0c-0.2-0.1-0.3-0.2-0.5-0.3l-0.1-0.1l0.4,0.7l0,0.1l-0.1,0l-0.5-1l0,0c-0.2-0.1-0.4-0.2-0.5-0.2l-0.1,0l0.7,1.1l0,0.1l-0.2,0
		l-0.8-1.3h-0.1h0l-0.1-0.1l0.1-0.1h0.2h0.1C21.9,12.1,22.4,12.3,22.9,12.6z M24.3,10.6l0.2,0l0,0.2l-0.4,0.4l-0.2,0l0-0.2
		L24.3,10.6z M25.5,10.4l0,0.2L25,11.2l-0.1,0.1l0.1,0c0.2,0,0.3,0,0.5,0h0l0.6-0.7l0.2,0v0.2l-0.4,0.4l-0.1,0.1l0.1,0
		c0.5,0,0.9-0.1,1.2-0.5l0.2,0l0,0.1c-0.4,0.5-1,0.6-1.7,0.6h0c-0.2,0-0.4,0-0.6,0c-0.2,0-0.4,0-0.5,0c-0.2,0-0.5,0-0.6,0.1
		l-0.1-0.1l0.1-0.1c0.2-0.1,0.4-0.1,0.7-0.1l0.2,0h0l0.7-0.8L25.5,10.4z M20.4,11.8c-0.2,0-0.3,0.2-0.3,0.3c0,0.2,0.2,0.3,0.3,0.3
		c0.2,0,0.3-0.1,0.3-0.3C20.8,11.9,20.6,11.8,20.4,11.8z"/>
	<path id="Fill-6" fill="#D2AE6E" d="M15.8,54.2c-0.1-0.1-0.2-0.2-0.3-0.4c0,0.2-0.1,0.3-0.2,0.4c0.1,0.3,0.2,0.8,0.7,0.7
		C16.2,55,15.7,54.7,15.8,54.2z M12.2,40.3c0,0.2,0.1,0.4,0.2,0.6c0.1,0,0.2,0,0.2-0.1c0-0.2,0-0.3,0.1-0.5
		C12.6,40.3,12.4,40.3,12.2,40.3z M13.7,39.2c0.2-0.3,0.7-0.4,1-0.7c0.9,0,2.3-0.5,6.9-0.1c0.6-0.3,0.7-0.6,0.8-1c0,0,0,0,0-0.1
		c-0.5-0.3-1-1-0.9-2.3c-1.5,2.2-2.8,1.8-3.4,1.3c1.5-0.4,1.9-1.2,1.5-3.3c-2.4,1.5-0.9,2.9-0.4,0.5c1.2,2-1.7,3.4-2.2,0.9
		c0,0.9,0.7,1.8,0.5,1.7c-0.5,0-0.8-0.2-1-0.3c-0.9,0.4-2.4,0.7-2.9,1.2c-0.5-0.1-0.9,0.1-1.1,0.3c-0.3,0.3-0.6,0.5-1,0.9
		c-0.8,0.5-1.2,0.9-1.4,1.2c0.1,0.2,0.2,0.5,0.6,0.4c0,0.4,0.4,0.5,0.6,0.4c-0.1-0.8,0.5-1.5,1.4-1.4c0,0.1,0,0.1,0,0.2
		c-0.7-0.1-1.5,0.6-1.1,1.6c0.2,0.2,0.4,0.3,0.6,0.4C12,40.6,12,40.3,12,40c0.3,0.1,0.8,0.1,1.1,0c-0.1,0.1-0.2,0.4-0.2,0.7
		C13.4,40.4,13.8,39.7,13.7,39.2z M14.5,37.7c1.3-0.8,2.2-0.2,4-0.7c0.1-0.1,0.3,0,0.1,0.2c-0.8,0.5-3.1,0-3.9,0.8
		C14.5,38,14.4,37.8,14.5,37.7z M11.6,39c-0.4-0.1-0.8,0.2-0.7,0.7l-0.2,0c-0.2-0.6,0.4-1,0.9-0.9C11.6,38.9,11.6,38.9,11.6,39z
		 M17.8,53.7c0,0.4,0.1,0.6,0.2,0.9c0.1-0.2,0.2-0.4,0.2-0.9C17.9,53.6,17.9,53.6,17.8,53.7z M11.3,40.5c-0.2,0.1-0.4,0.1-0.6-0.1
		c0,0.1,0,0.2,0.1,0.3c0.1,0.3,0.4,0.5,0.7,0.5c0,0,0.1,0,0.2,0c0,0-0.1-0.1-0.1-0.2C11.4,40.9,11.3,40.7,11.3,40.5z M13.6,30.6
		c0.6,0.9,1.3,1.6,2,2.4c0.5-1,1.3-1.7,2-2.2L13,27.4c0.2,0.3,0.4,0.5,0.6,0.7c-0.3,0.1-0.6,0.1-1-0.1c0,0.2-0.1,0.3-0.1,0.4
		c0.2,0.2,0.3,0.4,0.5,0.5c-0.3,0.2-0.6,0.2-1,0c0,0.1-0.1,0.3-0.2,0.4c0.1,0,0.2,0,0.2,0l0.9,0.2c0,0,0,0.1,0.1,0.1
		c0.2,0.1,1.6,1.9,2.9,1.6l0,0.3C14.9,31.6,14.5,31.4,13.6,30.6z M14.3,29.5l0.1-0.2l2.5,1.6l-0.1,0.2L14.3,29.5z M12.6,41.1
		c0,0,0.1,0.1,0.1,0.1C12.7,41.2,12.7,41.1,12.6,41.1C12.7,41.1,12.6,41.1,12.6,41.1z M10.5,40.1c-0.2,0-0.5-0.1-0.5-0.4
		c-0.4,0.8,0.6,1.1,0.6,1.1C10.5,40.6,10.4,40.3,10.5,40.1z M27,54.7c-0.3,0.5-0.3,1-0.2,1.3c0.1-0.3,0.4-0.4,0.5-0.7
		C27.2,55,27.2,54.8,27,54.7z M30.6,55.8c0,0.3,0.1,0.5,0.2,0.8c0,0,0.1,0,0.1,0c0.1-0.2,0.1-0.4,0.1-0.8
		C30.8,55.7,30.7,55.7,30.6,55.8z M32.8,28c0.2,0.3,0.3,0.5,0.4,0.8c1.1-0.5,1.5,0.3,1.4,0.8c-0.1,0.5-1.1,0.7-1.5-0.3
		c-0.1-0.1-0.1-0.3-0.2-0.4c0,0-0.1-0.1-0.1-0.1c0,0,0,0,0,0c-0.1-0.2-0.2-0.4-0.4-0.8c0,0,0,0,0,0c-1.5-1.1-2.8,0.1-3,0.8
		c0,0,0,0.1,0,0.1c2.2-1.3,2.1,0.3,2.9,1.4c0.4,0.5,0.9,0.8,1.3,0.9c0.2,0,0.4,0,0.6,0c0.4,0,1.3-0.4,1.4-1.7
		C35.9,28.7,34.8,27.3,32.8,28z M20.2,25.2l-0.2,0l0,0.1L20.2,25.2z M19.6,24.6c-1.4,0.4-1.4,0.4-2.1,0.6c0,0.2,0,0.3,0.1,0.4
		c-0.2,0.8-0.2,1.5,0.2,1.6c3.3-0.6,2.6,1.7,0.9,1.3c-0.3,0-0.7-0.3-0.9-0.1c-0.3,0.2,0.1,0.7,0,1.1c-0.3,0.6,0.6,0.3,0.9,0.5
		c1.6-0.2,3-0.5,2.9-3l0.2,0c0.1,2.5-1.2,2.9-2.5,3.2c-2.6,0.6-4,3.2-4.1,4.5c-0.1,0.7-0.3,0.9-0.9,0.9c1.4,0.8,1.8-1.3,1.9-1.4
		c-0.1,0.2,0,0.9,0.4,1.3c0,0,0,0,0,0c0.1,0.1,0.3,0.2,0.5,0.3c0.2,0-0.9-1.2-0.2-2.6c0.3,3.4,2.6,2.2,2.3,0.8
		c-0.6,2.3-2.7,0.2,0.5-1.5c0.4,1.9,0.4,3.3-1.2,3.7c1.6,0.4,2.3-1,3.4-2.1c-0.8,3.4,1.9,3.6,1.9,1.9c-0.4,1-2.5-0.3,0.6-2.5
		c-0.4,2.8,0.4,3.4,0.9,3.3c0-0.1,0-0.2,0-0.2C24.9,36.8,24,36.3,25,35c0.2,0.1,0.4,0.2,0.6,0.1c-0.1-0.1-0.1-0.2-0.1-0.2
		c-0.5-1,0.2-1.7,0.3-1.6c-0.6,3.4,1.3,3.3,1.4,3c-1-0.2-0.6-2.2-0.3-2.8c0,0,0,0,0,0.1c0,0,0,0.1,0,0.2c0.3,1.9,1,1.7,1.3,1.5
		c0,0,0-0.1,0.1-0.1c-0.4,0.2-0.7-0.4-0.7-1.2c0.7-8.8-1.9-10.5-3.8-10c0,0,0,0,0-0.1c0,0-0.1,0-0.1,0c0,0,0-0.1,0-0.1
		c-0.3-0.7-1.4-1.4-1.8,0.1C21.1,24,19.4,24.1,19.6,24.6z M24.4,32c0.5-0.3,0.4-1.2,0.1-2.1c0-0.1,0.1-0.1,0.2-0.1
		c0.7,2-0.1,2.4-0.2,2.4C24.3,32.2,24.4,32,24.4,32z M22.3,23.7c0.9-0.1,1,0.7,0.9,1.2c-0.1,0-0.2,0-0.2-0.1c0.1-0.4,0-0.9-0.6-0.9
		C22.2,23.9,22.2,23.8,22.3,23.7z M22.4,30.7c0-0.2,0.1-0.2,0.2-0.2c0.3,0.6,0.8,2-0.3,3c2-0.9,0.4-2.6,1-3.6
		c0.1-0.1,0.3,0.1,0.2,0.2c-0.5,0.8,1,2.7-1.2,3.7c-0.2,0.1-0.2,0-0.2-0.1c-0.2,0.2-0.5,0.3-0.8,0.5c-0.2,0-0.2-0.1-0.1-0.2
		c-0.1,0-0.2,0.1-0.2,0.1c-0.2,0.1-0.3-0.1-0.2-0.2c2.3-0.9-0.9-2,0.2-3c0.1-0.1,0.2,0,0.1,0.2c-0.8,0.7,1.9,1.8,0.2,2.8
		C21.7,33.7,23.4,32.9,22.4,30.7z M20.5,28.8c0-0.1-0.1-0.1-0.2-0.2c0.3-0.1,0.5-0.7,0.1-1.4l0.1-0.1C20.7,27.2,21.2,28.2,20.5,28.8
		z M19.9,24.9l1.1,0.2l-1.2,0.5l0-0.5l-0.2-0.2l0.1-0.2L19.9,24.9z M19.6,28.1c0,0,0.1,0,0.2,0c0-0.1,0.1-0.1,0.1-0.2
		c-1.2,0-3.1-0.5-3.7,0.1C17.3,27.6,18.5,28.1,19.6,28.1z M33,50.6c0.2-0.7,0.2-1.1,0.1-1.5c-0.1-0.4-0.4-0.7-0.9-0.8
		c-0.4-0.1-0.9-0.1-1.4-0.1c-0.9-0.3-1.7-1.1-1.3-5c0,0,0,0,0,0c0-0.4,0-0.8,0-1.2l0,0c0,0,0,0,0-0.1c0,0,0,0,0,0c0-0.1,0-0.1,0-0.2
		c-0.3-2.6-3.6-1.4-4.1-4.5c-0.6,0.2-1.6-0.4-1.3-3c-2.1,1.8-0.6,2.7-0.2,1.5c0.3,1.4-0.5,2-1.3,1.8c0,0,0,0,0,0h0
		c-0.2,0.5-0.1,0.7-0.8,1.1c-0.1,0-0.1,0-0.2,0c0.1,0.2,0.5,1.4,2,1.9l0,0.2c-0.3-0.1-0.7-0.2-1.1-0.4c-0.1,0.2-0.2,0.4-0.4,0.4
		l-0.2-0.2c0.3,0,0.4-0.2,0.4-0.4c-0.1-0.1-0.2-0.2-0.3-0.3c-0.1,0.2-0.3,0.4-0.6,0.5l-0.1-0.2c0.3,0,0.5-0.3,0.6-0.5
		c-0.1-0.1-0.2-0.3-0.3-0.4c-0.1,0.2-0.3,0.6-0.7,0.7l-0.1-0.2c0.3-0.1,0.6-0.5,0.7-0.8c0-0.1-0.1-0.2-0.1-0.3c-0.1,0-0.2,0-0.2,0
		c-0.2,0.5-0.5,0.8-0.8,0.9c0-0.1-0.1-0.1-0.1-0.2c0.3-0.1,0.5-0.4,0.6-0.7c-0.9,0-2-0.1-3,0c0.6,1.1,1.4,1.8,2.3,2.2
		c0.2,0.1,0.3,0.1,0.5,0.2c0.1,0,0.1,0,0.2,0.1c0.2,0.1,0.5,0.1,0.8,0.2c0.1,0,0.3,0,0.4,0.1c0,0,0.1,0,0.1,0c0.2,0,0.5,0.1,0.8,0.1
		c0.1,0,0.2,0,0.4,0.1c0.2,0.1,0.4,0.3,0.4,0.6c-2.2,0.2-5.5,0.2-8.1,1.5c-0.3,0-0.5,0.7,0.2,1.3c0.2,0.1,0.3,0.1,0.4,0.4
		c0.6,2.3,2,3.1,3,3.9c0,0,0.1,0.1,0.1,0.1c0.1,0.1,0.1,0.1,0.1,0.2c0,0,0.1,0.1,0.1,0.1c0.2,0.6-1.1,1.6-1.6,2.1
		C17.6,52,16.8,51.5,16,52c-0.3-0.1-0.3,0-0.4-0.1c-0.1,0-0.2-0.1-0.2-0.1c-0.1,0-0.1-0.1-0.2-0.1h0c-0.1,0-0.1,0-0.2,0
		c-0.4,0-0.8,0.2-1,0.5c0.4,0.3,0.5,0.6,0.3,1.2c0.2,0.4,0.4,0.4,0.5,0.4c-0.1-0.1,0.1-0.6,0.1-0.7c0.1-0.5,1.3-1,2.5-0.9l-0.1,0.2
		c-1.2,0-2.1,0.4-2.2,0.8c-0.1,0.2-0.2,0.5,0,0.8c0-0.1,0.3-0.2,0.3-0.5c0-0.1,0.1,0,0.2-0.1c0,0.2,0.3,0.6,0.5,0.8l0,0
		c0.6,0.2,0.5-0.4,0.6-0.3c0.4,0.5,0.8,0.8,1.1,0.7c-0.2-0.3-0.2-0.7-0.2-1.1c0.2-0.2,0.5-0.2,0.8-0.1c0.1,0.4,0.1,0.7,0,0.9
		c0.3-0.3,0.4-0.7,0.4-1.3c1-1.1,1.7-1.8,2.5-2.6c0.2-0.2,0.5-0.4,0.7-0.5c1.5-0.4,0-1.8-0.9-2.3c-1.5-1.5,2.4-2.1,2.6-2.2
		c0.5,1.3,1.9,2.2,2.9,3.3c-0.2,0.7,0.6,1.1,1.6,0.8c0.8,0,1.4,1,2.6,0.9c0.3,0.8,0.6,2.1,0.5,2.7c-0.3,0.1-0.7,0.4-0.9,0.6
		c-0.4-0.1-1,0.1-1.3,0.3c-0.9-0.5-1.4-0.2-1.8,0.2c0.4,0.3,0.5,0.6,0.3,1.1c0.1,0.1,0.3,0.2,0.5,0.3c0-0.3,0-0.5,0.1-0.6h0
		c0.1-0.5,1.3-1.1,2.5-0.9l-0.1,0.2c-1.2,0-2.1,0.4-2.2,0.9c-0.1,0.2-0.1,0.4,0.1,0.5c0.1-0.1,0.2-0.2,0.3-0.5c0-0.1,0.1,0,0.2-0.1
		c0,0.2,0.1,0.4,0.3,0.6c0,0.1,0.1,0.1,0.1,0.1c0.2,0,0.4,0,0.5-0.3c0.2,0.4,0.6,0.6,0.9,0.6c-0.1-0.3-0.2-0.6-0.2-0.9
		c0.2-0.2,0.5-0.2,0.8-0.1c0.1,0.3,0.1,0.6,0,0.8c0.2-0.2,0.4-0.4,0.3-0.6c0.1,0,1.2,0.2,1.3,0.1c0.6-0.2,0-0.7,0.1-2.1
		C32.9,53.1,33,52.3,33,50.6z M16.2,45.2c-0.2,0-0.1-0.2-0.1-0.2c0.1,0,0.2-0.5,0.1-0.9c0-0.2,0.1-0.2,0.2-0.1
		C16.5,44.9,16.2,45.2,16.2,45.2z M18.4,53c-0.6-0.5-1.4,0-1.5,0.4c-0.1-0.1-0.1-0.1-0.2-0.2c0.1-0.5,1.2-1,1.9-0.4L18.4,53z
		 M19.9,48.9c-0.1,0-1.6-0.2-2.2-2.1c0-0.2,0.1-0.2,0.2-0.1c0.3,1,1.3,1.9,2,1.9C19.9,48.7,20.1,48.8,19.9,48.9z M23.9,42.7
		c-1.1,1.7-2.2,1-3.5,3c-0.2,0.1-0.2,0-0.2-0.2c1.3-1.9,2.8-1.6,3.5-3C23.8,42.4,24,42.4,23.9,42.7z M29.4,49.2
		c-0.1,0-3.2-1.7-2.9-4c0.1-0.1,0.2-0.1,0.2,0c-0.1,1,0.5,2,1.5,2.8c-0.3-0.3-0.6-0.8-0.8-1.4c0.1-0.1,0.2-0.1,0.2,0
		c0.1,0.8,1.2,1.9,1.8,2.3C29.4,48.9,29.6,49.2,29.4,49.2z M30.5,48.9c-0.1,0-1.5-0.5-1.6-2.5c0-0.1,0.2-0.1,0.2,0
		c0,1.1,0.8,2.2,1.5,2.3C30.6,48.7,30.8,48.8,30.5,48.9z M31.3,55.1c-0.6-0.5-1.4,0-1.5,0.4c-0.1-0.1-0.1-0.1-0.2-0.2
		c0.1-0.5,1.2-1,1.9-0.4L31.3,55.1z M31.2,49.9c-0.1-0.1,0-0.2,0.1-0.2c1.3,1.1,0.9,2,0.9,2.4c-0.2,0.1-0.2-0.1-0.2-0.1
		C32.1,51.4,32,50.6,31.2,49.9z M33,55.3l-0.1,0.2c-0.3-0.2-0.5-0.4-0.8,0c-0.1-0.1-0.1-0.1-0.2-0.2C32.3,54.9,32.7,55,33,55.3z
		 M32.6,35.2c0.1,0.8,0.5,1.4,0.8,1.7c-0.7-1.6,0.4-3.1-1.7-3.1c0,0,0,0,0,0c-0.4,0.3-0.9,0.3-1.2,0.5c-1.5,1.3,0.8,1.7,0.2,3.7
		c0.1,0,0.1,0,0.1,0c0.2-0.1,0.4-0.2,0.6-0.4c0,0,0,0,0,0c0.2-0.4,0.3-0.8,0.3-1.4c0.6,0.6,0.9,0.9,1.6,1.1c0,0,0.1,0,0.1,0
		c-0.8-0.6-1.1-1.5-1.1-2.1C32.4,34.9,32.7,35,32.6,35.2z M10.5,29.2c0,0,0-0.1-0.1-0.2c0.2-0.2,0.4-0.4,0.8-0.5
		c0,0.3,0.1,0.6,0.3,0.8c0.2-0.1,0.2-0.4,0.2-0.5c-0.1-0.1-0.2-0.2-0.3-0.3c-0.4,0-0.8-0.3-0.8-1.1c0.1,0,0.2,0,0.3,0
		c-0.1,0.3,0.2,0.7,0.4,0.8c0.1-0.2,0.2-0.3,0.4-0.4c-0.2-0.3-0.1-0.7,0.2-1C12,26.9,12,27,12.1,27c-0.3,0.2-0.3,0.5-0.2,0.7
		c0,0,0.1,0,0.1,0c0.1,0.2,0.1,0.4,0.3,0.6c0.1-0.1,0.1-0.2,0.1-0.4c-0.2-0.1-0.3-0.3-0.4-0.5c0.1-0.2,0.3-0.4,0.5-0.5
		c-0.1-0.1-0.2-0.2-0.4-0.3v0c0,0,0,0,0,0c-0.6-0.4-1.2-0.5-1.3,0.4c0,0,0,0-0.1,0c0,0,0,0,0,0c0,0-0.1,0-0.1,0
		c-0.3,0.1-0.5,0.2-0.5,0.7c0,0,0,0,0,0c0,0,0,0,0,0c0,0,0,0-0.1,0C9.1,28.2,10,28.9,10.5,29.2z M28.6,55.9c0,0.1-0.1,0.2-0.2,0.3
		c0.2,0.6,0.5,0.7,0.6,0.7v-0.1c-0.1-0.1-0.1-0.3-0.1-0.5C28.7,56.2,28.6,56.1,28.6,55.9z M17.6,21.3L16.7,23l0.9,0.9
		c0.4-0.6,3.1-2.6,1.8-4.5c-0.6-0.3-1.1-0.3-1.6-0.1c-0.3,0.1-0.6,0.3-1,0.5c-0.1,0.1-0.2,0.1-0.3,0.2c-0.3,0.3-0.5,0.4-0.6,0.6
		c-0.3,0.3-0.6,0.7-0.8,0.8l1,0.9L17.6,21.3z M32.7,37.3c-0.2-0.2-0.5-0.3-0.7-0.5c0,0.1,0,0.5-0.3,1c0,0,0,0.1,0,0.1c0,0,0,0,0,0
		c0,0,0,0,0,0.1c0.2,0.8,0.3,2.4-0.8,3.4c-0.2,0.2-0.5,0.3-0.7,0.4c0,0-0.1,0-0.1,0c-0.1,0-0.1,0-0.2,0.1c-0.1,0-0.1,0-0.2,0.1
		c0,0.4,0,0.8,0,1.2C32.4,42.4,33.1,40.4,32.7,37.3z M25.5,36.8c0.1-0.1,0.1-0.3,0-0.5C25.5,36.5,25.5,36.6,25.5,36.8z M25.3,35.9
		c0-0.1,0-0.3,0-0.4c-0.1,0-0.2-0.1-0.3-0.1c-0.8,1.3,0.8,1.6,0,0.5C25.1,35.9,25.2,35.9,25.3,35.9L25.3,35.9z M31.8,29.9
		c-0.1-0.2-0.3-0.6-0.4-0.8c-1.5,1.8-1.4,3.7-0.9,5c0.3-0.2,0.7-0.1,1-0.4c0-0.1-0.1-0.2-0.1-0.3c-0.5-1.3-0.1-2.6,0.3-3.3
		C31.7,30,31.8,30,31.8,29.9z M25.3,35.4L25.3,35.4C25.3,35.4,25.3,35.5,25.3,35.4C25.3,35.5,25.3,35.5,25.3,35.4L25.3,35.4z
		 M10.3,29.4c-0.2-0.1-0.3-0.2-0.5-0.4L5,34l-0.7-0.6l-0.5,0.5l0.1,0.1l1.7,1.6L6,35l-0.7-0.7L10.3,29.4z M12.8,26.7l1-1l0.7-0.8
		l0.2,0.2l0.5,0.5l0.5-0.5L15,24.5l1.4-1.4l0.8-1.2L16,22.6l-1.4,1.5l-0.7-0.7l-0.5,0.5l0.6,0.6l0,0l0,0l-1.7,1.7
		C12.6,26.4,12.7,26.6,12.8,26.7z M13.8,52.4c-0.3,0.6-0.4,1.3-0.3,1.4c0.2-0.2,0.4-0.4,0.6-0.6C14.1,53,14.2,52.6,13.8,52.4z
		 M17.7,27.5C17.7,27.5,17.7,27.5,17.7,27.5c-0.3,0-0.6,0-0.9,0C17.1,27.5,17.4,27.5,17.7,27.5z M11.6,28.3c0.2,0.3,0.5,0.5,0.8,0.5
		c-0.2-0.2-0.5-0.6-0.6-0.8L11.6,28.3z M9.8,37.3l0.5,0.8l0.3-0.2l0.3,0.5c0.1-0.1,0.3-0.2,0.5-0.3c0.1-0.1,0.2-0.1,0.3-0.2
		l-0.3-0.5c1.4-1.7,0.2-3.5-0.8-4c-2.2-1-3.5,0.6-3.7,1.9c0,0,0,0.1,0,0.1c0,0.1,0,0.1,0,0.2c0,0.2,0,0.4,0.1,0.5
		C7,34.2,8.6,33.2,10,34C11.4,35,10.8,36.8,9.8,37.3z M12.5,27.1l-0.3,0.3c0.2,0.4,0.4,0.5,0.8,0.6C12.8,27.7,12.5,27.3,12.5,27.1z
		 M15.8,28.1C15.8,28.1,15.8,28.1,15.8,28.1C15.9,28.1,15.9,28.1,15.8,28.1C15.9,28.1,15.8,28.1,15.8,28.1z M10.7,29.1
		c0,0.3,0.5,0.7,0.8,0.7C11.2,29.6,11,29,11,28.9L10.7,29.1z M17.8,27.5c0.4,0,0.8,0.1,1.3,0.1C18.6,27.6,18.2,27.5,17.8,27.5
		C17.8,27.5,17.8,27.5,17.8,27.5z"/>
	<path id="Fill-8" fill="#D2AE6E" d="M0,15.2v43.3c0,2.1,1.6,4,3.5,4H17c1,0,2.3,1.2,2.8,2.2c0.2,0.5,0.5,1.1,0.5,1.5
		c0.2-0.8,0.5-1.7,0.9-2.3c0.6-0.8,1.6-1.5,2.4-1.5H37c1.9,0,3.5-1.8,3.5-4V15.2H0z M39.7,16v42.4c0,1.7-1.3,3.1-2.7,3.1H23.6
		c-1.1,0-2.6,1-3.3,2.2c0,0,0,0,0,0h0c0,0,0,0,0,0c-0.7-1.2-2.2-2.2-3.3-2.2H3.5c-1.4,0-2.7-1.5-2.7-3.1V16H39.7z"/>
</g>
</svg>
